<!-- Generator: Adobe Illustrator 23.0.3, SVG Export Plug-In  -->
<svg version="1.1" xmlns="http://www.w3.org/2000/svg" xmlns:xlink="http://www.w3.org/1999/xlink" x="0px" y="0px" width="313.9px"
	 height="87.77px" viewBox="0 0 313.9 87.77" style="enable-background:new 0 0 313.9 87.77;" xml:space="preserve">
<style type="text/css">
	.st0{fill:url(#SVGID_1_);}
	.st1{fill:#FFFFFF;}
	.st2{fill:#979BA4;}
	.st3{fill:url(#SVGID_2_);}
</style>
<defs>
</defs>
<g>
	
		<linearGradient id="SVGID_1_" gradientUnits="userSpaceOnUse" x1="67.2852" y1="466.632" x2="22.0494" y2="363.7146" gradientTransform="matrix(1 0 0 -1 0 457.2414)">
		<stop  offset="0" style="stop-color:#F29127"/>
		<stop  offset="0.2054" style="stop-color:#ED8426"/>
		<stop  offset="0.6036" style="stop-color:#DD6528"/>
		<stop  offset="1" style="stop-color:#D13C28"/>
	</linearGradient>
	<path class="st0" d="M78.4,87.77H9.32C4.17,87.77,0,83.6,0,78.45V9.32C0,4.17,4.17,0,9.32,0h69.13c5.15,0,9.32,4.17,9.32,9.32
		v69.13C87.72,83.6,83.55,87.77,78.4,87.77z"/>
	<g>
		<path class="st1" d="M71.54,51.64l3.4,4.33C66.06,63.32,56.08,67.1,43.86,67.1S21.6,63.32,12.77,55.97l3.4-4.33
			c8.77,6.25,15.95,9.1,27.69,9.1S62.77,57.89,71.54,51.64"/>
		<path class="st1" d="M29.11,25.05h9.76v9.32h-8.99c-5.59,0-9.26-1.37-11.68-6.8l3.73-2.14c1.7,3.45,3.73,4.28,7.18,4.28
			L29.11,25.05L29.11,25.05z"/>
		<rect x="52.08" y="25.05" class="st1" width="9.76" height="9.32"/>
	</g>
</g>
<g>
	<path class="st2" d="M116.32,20.8h6.4v45.65h24.01v6.11h-30.41V20.8z"/>
	<path class="st2" d="M148.54,53.08c0-12.15,7.33-20.42,18.69-20.42c11.65,0,18.77,8.41,18.77,20.42c0,12.22-7.19,20.56-18.77,20.56
		C155.66,73.64,148.54,65.16,148.54,53.08z M179.17,53.08c0-8.7-3.95-14.38-11.94-14.38c-8.12,0-11.86,5.89-11.86,14.38
		c0,8.77,4.03,14.45,11.86,14.45C175.29,67.53,179.17,61.63,179.17,53.08z"/>
	<path class="st2" d="M189.62,53.15c0.15-12.15,6.9-20.49,18.62-20.49c8.13,0,14.45,4.31,16.54,11.29l-6.33,1.87
		c-1.65-4.45-5.61-7.11-10.28-7.11c-7.98,0-11.65,6.04-11.72,14.45c0.07,8.63,3.95,14.38,11.72,14.38c5.03,0,8.34-2.37,10.13-6.76
		l6.47,1.65c-2.73,7.26-8.63,11.22-16.61,11.22C196.3,73.64,189.76,65.01,189.62,53.15z"/>
	<path class="st2" d="M260.74,48.55v24.01h-5.68v-6.11c-3.09,4.75-7.91,7.19-14.38,7.19c-8.7,0-13.23-5.32-13.23-11.57
		c0-6.11,3.67-9.71,9.57-11.43c4.89-1.29,11.64-2.08,17.4-2.87c-0.15-6.18-2.8-9.13-9.57-9.13c-4.67,0-8.48,2.01-9.85,6.76
		l-6.11-1.8c1.87-6.83,7.26-10.93,16.03-10.93c7.04,0,12.29,2.52,14.52,7.55C260.53,42.65,260.74,45.46,260.74,48.55z M253.69,59.33
		c0.57-1.87,0.64-4.38,0.64-6.18c-5.46,0.79-10.71,1.36-14.45,2.45c-3.24,1.01-6.04,2.8-6.04,6.4c0,3.23,2.23,6.25,7.77,6.25
		C248.52,68.25,252.76,64.15,253.69,59.33z"/>
	<path class="st2" d="M268.66,19.72h6.4v52.84h-6.4V19.72z"/>
	<path class="st2" d="M281.55,62.07l6.54-1.08c1.08,4.24,5.1,6.9,10.71,6.9c5.25,0,8.48-2.38,8.48-6.18c0-3.24-1.44-4.17-10.93-6.76
		c-10.28-2.73-13.59-5.39-13.59-10.93c0-6.83,5.97-11.36,14.96-11.36c8.84,0,15.24,4.53,16.03,11.36l-6.54,1.15
		c-0.65-4.1-4.24-6.69-9.49-6.83c-5.03-0.14-8.49,2.01-8.49,5.32c0,2.87,1.94,4.1,11.08,6.4c10.28,2.59,13.59,5.46,13.59,11.5
		c0,7.48-5.82,12.08-15.53,12.08C289.1,73.64,282.92,69.32,281.55,62.07z"/>
</g>
</svg>
