<!-- Generator: Adobe Illustrator 23.0.3, SVG Export Plug-In  -->
<svg version="1.1" xmlns="http://www.w3.org/2000/svg" xmlns:xlink="http://www.w3.org/1999/xlink" x="0px" y="0px"
	 width="464.71px" height="160.1px" viewBox="0 0 464.71 160.1" style="enable-background:new 0 0 464.71 160.1;"
	 xml:space="preserve">
<style type="text/css">
	.st0{fill:url(#SVGID_1_);}
	.st1{fill:#FFFFFF;}
	.st2{fill:#979AA4;}
	.st3{fill:url(#SVGID_2_);}
</style>
<defs>
</defs>
<g>
	<g>
		
			<linearGradient id="SVGID_1_" gradientUnits="userSpaceOnUse" x1="122.7341" y1="176.9938" x2="40.2201" y2="-10.7366" gradientTransform="matrix(1 0 0 -1 0 159.8646)">
			<stop  offset="0" style="stop-color:#F29127"/>
			<stop  offset="0.2054" style="stop-color:#EC8427"/>
			<stop  offset="0.6036" style="stop-color:#DE6527"/>
			<stop  offset="1" style="stop-color:#D13B27"/>
		</linearGradient>
		<path class="st0" d="M143,160.1H17c-9.4,0-17-7.6-17-17V17C0,7.6,7.6,0,17,0h126.1c9.4,0,17,7.6,17,17v126.1
			C160,152.5,152.4,160.1,143,160.1z"/>
		<g>
			<path class="st1" d="M130.5,94.2l6.2,7.9c-16.2,13.4-34.4,20.3-56.7,20.3s-40.6-6.9-56.7-20.3l6.2-7.9
				c16,11.4,29.1,16.6,50.5,16.6S114.5,105.6,130.5,94.2"/>
			<path class="st1" d="M53.1,45.7h17.8v17H54.5c-10.2,0-16.9-2.5-21.3-12.4l6.8-3.9c3.1,6.3,6.8,7.8,13.1,7.8L53.1,45.7L53.1,45.7z
				"/>
			<rect x="95" y="45.7" class="st1" width="17.8" height="17"/>
		</g>
	</g>
	<g>
		<path class="st2" d="M199.46,42.42h9.69l16.66,59.26l16.56-59.26h9.79l16.66,59.26l16.66-59.26h9.69l-21.66,74.98h-9.27
			l-16.98-58.84L230.5,117.4h-9.27L199.46,42.42z"/>
		<path class="st2" d="M321.72,110.11c7.39,0,13.02-3.44,16.14-9.89l8.96,3.12c-4.48,9.89-13.75,15.62-24.68,15.62
			c-16.56,0-27.49-11.77-27.49-29.37c0-18.43,10.73-29.99,27.08-29.99c16.98,0,26.87,12.29,25.93,32.28h-43.01
			C305.37,103.55,311.41,110.11,321.72,110.11z M304.85,84.39h33.33c-1.25-11.04-6.56-16.45-16.14-16.45
			C312.04,67.93,306.1,73.77,304.85,84.39z"/>
		<path class="st2" d="M410.35,89.18c0,16.87-9.48,29.79-25.2,29.79c-7.6,0-13.54-3.02-17.6-8.02v6.46h-8.23V42.42h9.27v23.85
			c4.06-4.17,9.58-6.67,16.66-6.67C400.87,59.6,410.35,72.31,410.35,89.18z M400.56,89.18c0-11.87-5.31-21.14-16.77-21.14
			c-11.04,0-16.25,8.75-16.25,21.14c0,12.39,5.1,21.25,16.45,21.25C395.14,110.42,400.56,101.15,400.56,89.18z"/>
		<path class="st2" d="M417.84,102.19l9.48-1.56c1.56,6.14,7.39,10,15.52,10c7.6,0,12.29-3.44,12.29-8.96
			c0-4.69-2.08-6.04-15.83-9.79c-14.89-3.96-19.68-7.81-19.68-15.83c0-9.89,8.64-16.45,21.66-16.45c12.81,0,22.08,6.56,23.22,16.45
			l-9.48,1.67c-0.94-5.94-6.14-9.69-13.75-9.89c-7.29-0.21-12.29,2.92-12.29,7.71c0,4.17,2.81,5.94,16.04,9.27
			c14.89,3.75,19.68,7.92,19.68,16.66c0,10.83-8.44,17.5-22.49,17.5C428.78,118.96,419.82,112.71,417.84,102.19z"/>
	</g>
</g>
</svg>
