<!-- Generator: Adobe Illustrator 23.0.3, SVG Export Plug-In  -->
<svg version="1.1" xmlns="http://www.w3.org/2000/svg" xmlns:xlink="http://www.w3.org/1999/xlink" x="0px" y="0px"
	 width="137.29px" height="33.4px" viewBox="0 0 137.29 33.4" style="enable-background:new 0 0 137.29 33.4;" xml:space="preserve"
	>
<style type="text/css">
	.st0{fill-rule:evenodd;clip-rule:evenodd;fill:#FFFFFF;}
</style>
<defs>
</defs>
<path class="st0" d="M47.47,20.97h-5.68v7.87h5.87c3.69,0,5.53-1.32,5.53-4c0-1.34-0.48-2.33-1.43-2.93
	C50.81,21.3,49.38,20.97,47.47,20.97z M41.79,10.11v6.97h5c1.37,0,2.42-0.14,3.16-0.39c0.74-0.26,1.31-0.76,1.69-1.47
	c0.31-0.52,0.46-1.09,0.46-1.72c0-1.35-0.49-2.27-1.45-2.72c-0.97-0.44-2.44-0.67-4.43-0.67H41.79z M137.29,24.43
	c0,0.86-0.21,1.79-0.63,2.79c-0.42,0.99-1.1,1.98-2,2.93c-0.9,0.96-2.04,1.74-3.46,2.34c-1.41,0.61-3.05,0.91-4.93,0.91
	c-1.42,0-2.71-0.14-3.88-0.41c-1.17-0.27-2.22-0.69-3.17-1.26c-0.94-0.57-1.82-1.31-2.62-2.25c-0.7-0.83-1.31-1.79-1.81-2.83
	c-0.5-1.05-0.88-2.17-1.13-3.36c-0.25-1.19-0.37-2.45-0.37-3.78c0-2.16,0.32-4.11,0.94-5.83c0.64-1.72,1.54-3.18,2.72-4.39
	c1.17-1.22,2.54-2.15,4.12-2.8c1.59-0.62,3.28-0.95,5.06-0.95c2.19,0,4.13,0.44,5.83,1.31c1.71,0.86,3,1.93,3.9,3.21
	c0.9,1.28,1.37,2.49,1.37,3.62c0,0.63-0.22,1.18-0.67,1.67c-0.44,0.46-0.97,0.71-1.6,0.71c-0.68,0-1.23-0.16-1.57-0.49
	c-0.33-0.35-0.73-0.91-1.16-1.72c-0.7-1.32-1.54-2.34-2.51-3c-0.97-0.65-2.15-0.99-3.54-0.99c-2.24,0-4.03,0.86-5.37,2.56
	c-1.32,1.7-1.99,4.11-1.99,7.25c0,2.1,0.29,3.84,0.89,5.24c0.58,1.38,1.41,2.43,2.5,3.09c1.07,0.7,2.34,1.05,3.78,1.05
	c1.56,0,2.89-0.4,3.98-1.18c1.09-0.77,1.91-1.92,2.46-3.43c0.23-0.72,0.51-1.29,0.86-1.74c0.33-0.45,0.88-0.67,1.65-0.67
	c0.64,0,1.19,0.23,1.67,0.69C137.06,23.2,137.29,23.76,137.29,24.43z M104.14,19.4c0-1.98-0.32-3.68-0.97-5.14
	c-0.63-1.44-1.53-2.52-2.72-3.26c-1.17-0.75-2.53-1.12-4.07-1.12c-1.08,0-2.09,0.2-3.01,0.63c-0.93,0.4-1.72,0.99-2.39,1.78
	c-0.66,0.79-1.19,1.79-1.58,3.01c-0.39,1.22-0.57,2.6-0.57,4.11c0,1.54,0.17,2.9,0.57,4.16c0.39,1.23,0.93,2.26,1.65,3.07
	c0.7,0.82,1.48,1.44,2.4,1.83c0.93,0.41,1.91,0.62,3.01,0.62c1.39,0,2.68-0.36,3.85-1.06c1.16-0.7,2.09-1.77,2.78-3.22
	C103.8,23.33,104.14,21.53,104.14,19.4z M96.39,5.56c2.8,0,5.19,0.57,7.21,1.7c2,1.13,3.5,2.74,4.54,4.83
	c1.02,2.08,1.53,4.52,1.53,7.35c0,2.08-0.28,3.98-0.83,5.66c-0.57,1.7-1.42,3.18-2.54,4.44c-1.13,1.24-2.51,2.19-4.16,2.85
	c-1.62,0.66-3.51,1-5.62,1c-2.11,0-3.99-0.35-5.65-1.03c-1.67-0.67-3.07-1.63-4.18-2.86c-1.1-1.25-1.95-2.73-2.52-4.46
	c-0.56-1.75-0.85-3.63-0.85-5.65c0-2.07,0.31-3.97,0.9-5.69c0.58-1.74,1.45-3.2,2.58-4.41c1.12-1.21,2.49-2.14,4.11-2.79
	C92.5,5.88,94.34,5.56,96.39,5.56z M68.79,8.88v19.58h11.05c0.89,0,1.56,0.22,2.03,0.65c0.47,0.43,0.71,0.96,0.71,1.6
	c0,0.68-0.23,1.22-0.69,1.62c-0.46,0.41-1.14,0.61-2.04,0.61H66.67c-1.18,0-2.04-0.26-2.55-0.79c-0.52-0.54-0.78-1.38-0.78-2.55
	V8.88c0-1.11,0.25-1.94,0.74-2.5c0.51-0.55,1.15-0.82,1.97-0.82c0.81,0,1.48,0.28,1.97,0.82C68.52,6.92,68.79,7.74,68.79,8.88z
	 M2.35,11.55v10.19c0,4.96,3.89,8.98,8.69,8.98h18.07V11.55c0-4.95-3.9-8.97-8.7-8.97h-9.37C6.24,2.58,2.35,6.59,2.35,11.55z
	 M0,10.57C0,4.73,4.58,0,10.24,0h11.05c5.65,0,10.24,4.73,10.24,10.57v22.58H10.24C4.58,33.15,0,28.41,0,22.57V10.57z M47.88,32.95
	h-8.24c-1.19,0-2.03-0.26-2.54-0.79c-0.51-0.54-0.77-1.41-0.77-2.55V9.35c0-1.19,0.26-2.04,0.79-2.56c0.51-0.52,1.35-0.77,2.51-0.77
	h8.74c1.28,0,2.4,0.08,3.35,0.24c0.94,0.15,1.78,0.46,2.53,0.91c0.64,0.38,1.2,0.86,1.69,1.44c0.49,0.58,0.87,1.22,1.13,1.93
	c0.25,0.71,0.38,1.46,0.38,2.24c0,2.69-1.34,4.67-4.04,5.93c3.55,1.12,5.31,3.3,5.31,6.56c0,1.51-0.39,2.87-1.16,4.08
	c-0.78,1.22-1.81,2.1-3.12,2.67c-0.83,0.34-1.77,0.59-2.84,0.74C50.54,32.87,49.3,32.95,47.88,32.95z M25.24,19.08
	c-0.05,0.28-0.32,0.39-0.65,0.27c-0.35-0.14-0.64-0.49-0.7-0.83l-0.31-8.01c-0.03-0.81,0.67-1.16,1.55-0.78
	c0.87,0.37,1.61,1.33,1.66,2.15C26.8,12.04,25.24,19.08,25.24,19.08z M21.01,18.31c0.1,0.32-0.02,0.62-0.32,0.68
	c-0.31,0.06-0.71-0.17-0.93-0.52l-4.5-9.03c-0.48-0.96-0.15-1.79,0.71-1.85c0.85-0.06,1.92,0.62,2.39,1.57
	C18.45,9.34,21.01,18.31,21.01,18.31z M17.58,19.95c0.26,0.32,0.32,0.72,0.14,0.95c-0.19,0.26-0.6,0.24-0.95-0.02l-8.45-7.73
	c-0.93-0.85-1.17-2.05-0.53-2.66c0.63-0.58,1.85-0.38,2.76,0.45C10.72,11.09,17.58,19.95,17.58,19.95z M15.98,23.83
	c0.36,0.19,0.61,0.59,0.6,0.96c0,0.4-0.3,0.64-0.68,0.55L5.16,21.82c-1.25-0.42-2.17-1.68-2.03-2.8c0.14-1.09,1.23-1.61,2.44-1.19
	C5.79,17.91,15.98,23.83,15.98,23.83z"/>
</svg>
