<!-- Generator: Adobe Illustrator 23.0.3, SVG Export Plug-In  -->
<svg version="1.1" xmlns="http://www.w3.org/2000/svg" xmlns:xlink="http://www.w3.org/1999/xlink" x="0px" y="0px" width="95.25px"
	 height="34.13px" viewBox="0 0 95.25 34.13" style="enable-background:new 0 0 95.25 34.13;" xml:space="preserve">
<style type="text/css">
	.st0{fill:#949698;}
</style>
<defs>
</defs>
<path class="st0" d="M15.24,30.9c-0.03,0-0.05,0.01-0.08,0.01c-0.16,0.23-0.34,0.23-0.61,0.14c-0.51-0.17-1.01-0.11-1.46,0.23
	c-0.02,0.01-0.02,0.02-0.02,0.04c-0.1,0.27-0.32,0.35-0.57,0.38c-0.17,0.1-0.36,0.01-0.54,0.05c-0.17-0.05-0.34-0.02-0.51-0.02
	c-0.28-0.01-0.37-0.07-0.46-0.34c-0.2-0.04-0.38,0.01-0.54,0.11c-0.18,0.12-0.38,0.12-0.57,0.13c-0.16,0.01-0.31-0.05-0.33-0.25
	c-0.03-0.2,0.1-0.25,0.25-0.3c0.34-0.13,0.68-0.17,1.03-0.11c0.2,0.04,0.39-0.01,0.57-0.06c0.29-0.09,0.59-0.19,0.88-0.2
	c0.57-0.02,1.11-0.19,1.67-0.25c0.52-0.06,1.05-0.11,1.57-0.15c0.31-0.03,0.63-0.08,0.95-0.11c0.24-0.02,0.48,0.03,0.72-0.01
	c0.16-0.12,0.34-0.16,0.53-0.15c0.17,0.01,0.35,0.02,0.52,0.01c0.15-0.01,0.35,0.03,0.42-0.12c0.07-0.14-0.12-0.21-0.2-0.29
	c-0.85-0.94-0.93-2.59-0.14-3.51c0.06-0.06,0.1-0.14,0.15-0.21c0.06-0.11,0.16-0.18,0.26-0.25c0.13-0.1,0.15-0.2,0.07-0.36
	c-0.15-0.27-0.11-0.47,0.1-0.64c0.02,0,0.03,0,0.04-0.02c0.31-0.33,0.62-0.64,1.08-0.74c0.21-0.05,0.41-0.18,0.64-0.08l0.01,0.01
	l0.02,0c0.14,0.07,0.32-0.06,0.43,0.1l0,0c0.17,0.07,0.35,0.06,0.53,0.08c0.21,0.03,0.41,0.07,0.57,0.21
	c0.08,0.11,0.2,0.06,0.31,0.07c0.15,0.03,0.3,0.05,0.45,0c0.02-0.02,0.04-0.04,0.07-0.06c0.06-0.01,0.14-0.12,0.17-0.01
	c0.03,0.11-0.01,0.27-0.14,0.3c-0.14,0.03-0.29,0.11-0.45,0.08l-0.45-0.01c-0.14-0.06-0.32,0-0.44-0.15l-0.01-0.01l-0.02,0
	c-0.28-0.08-0.6,0.01-0.85-0.2c-0.1-0.02-0.21-0.04-0.31-0.07c-0.22-0.05-0.42,0.01-0.63,0.06h0c-0.17,0.23-0.31,0.47-0.57,0.63
	c-0.14,0.09-0.24,0.24-0.07,0.43c0.11,0.13,0.17,0.3,0.17,0.48c0,0.09-0.06,0.21-0.15,0.12c-0.25-0.23-0.29,0.03-0.39,0.14
	c-0.34,0.35-0.57,0.76-0.69,1.23c-0.05,0.21-0.04,0.4,0.06,0.58c0.31,0.56,0.77,0.95,1.41,1.1c0.29,0.07,0.57,0.15,0.87,0.14
	c0.61-0.04,1.06-0.44,1.19-1.08c0.11-0.59,0.04-1.16-0.3-1.67c-0.04-0.11-0.22-0.17-0.19-0.27c0.08-0.28,0.07-0.55,0.05-0.83
	c-0.01-0.12,0.13-0.14,0.23-0.06l0,0c0.26,0.12,0.49,0.29,0.68,0.51l0,0c0.21,0.14,0.41,0.29,0.51,0.54c0,0.04,0.01,0.07,0.05,0.08
	c0.15,0.13,0.19,0.31,0.26,0.48c-0.01,0.01,0,0.03,0.01,0.04c0.19,0.25,0.18,0.56,0.21,0.84c0.03,0.39-0.02,0.79-0.25,1.14
	c0,0.02-0.01,0.04-0.01,0.05c0,0.1-0.04,0.19-0.11,0.26l0,0c-0.1,0.22-0.23,0.42-0.41,0.59c-0.1,0.09-0.08,0.15,0.05,0.2
	c0.18,0.06,0.36,0.11,0.52,0.21c0.59,0.07,1.11,0.34,1.67,0.5c0.19,0.05,0.39,0.07,0.57,0.15c0.09,0.04,0.18,0.06,0.25,0.13
	c0.01,0.01,0.03,0.02,0.04,0.01c0.78,0.17,1.52,0.44,2.28,0.68c0.04,0.01,0.09,0.03,0.05,0.09c-0.02,0.06-0.09,0.04-0.13,0.06
	c-0.36,0.15-0.73,0.22-1.09,0c-0.24-0.06-0.49-0.06-0.72-0.17l0,0c-0.29-0.04-0.58-0.07-0.86-0.16c-0.08-0.02-0.17-0.02-0.23-0.11v0
	c-0.23-0.05-0.47-0.03-0.68-0.16l0,0c-0.37-0.05-0.75-0.1-1.1-0.25l-0.02-0.01l-0.02,0c-0.37-0.08-0.74-0.1-1.11-0.21
	c-0.37-0.11-0.82,0.17-0.91,0.54c-0.02,0.08-0.03,0.17-0.08,0.25c0,0.03-0.01,0.05-0.01,0.08c-0.07,0.65-0.11,1.3-0.17,1.95
	c-0.02,0.15-0.04,0.31-0.07,0.46c-0.01,0.06-0.02,0.13-0.08,0.15c-0.07,0.02-0.11-0.05-0.14-0.1c-0.06-0.1-0.14-0.21-0.14-0.33
	c0.01-0.59-0.16-1.17-0.11-1.76c0.02-0.33-0.05-0.66-0.06-1c0-0.03,0-0.05-0.01-0.08c-0.08-0.18-0.19-0.21-0.39-0.17
	c-0.3,0.05-0.61,0.05-0.92,0.07l0,0c-0.35,0.04-0.7,0.09-1.05,0.1l-0.02-0.01l-0.02,0.01c-0.14,0.07-0.29-0.02-0.43,0.05
	c-0.05,0-0.1,0.01-0.15,0.01c-0.18,0.17-0.18,0.17-0.42-0.05c-0.02,0-0.03,0-0.05,0c-0.43,0.06-0.87-0.01-1.3,0.02
	C15.39,30.89,15.31,30.87,15.24,30.9"/>
<path class="st0" d="M16.84,21.75c-0.16,0.3-0.08,0.63-0.05,0.94c0.02,0.28-0.03,0.52-0.14,0.77c-0.11,0.25-0.19,0.52-0.3,0.77
	c-0.14,0.31-0.13,0.62,0.01,0.92c0.02,0.05,0.05,0.09,0.06,0.14c0.05,0.45,0.33,0.74,0.67,0.99c0.25,0.19,0.23,0.22-0.01,0.42
	c-0.55,0.46-1.04,0.98-1.28,1.69c-0.02,0.05-0.04,0.1-0.03,0.15c0.04,0.32-0.1,0.59-0.24,0.85c-0.2,0.34-0.49,0.58-0.83,0.77
	c-0.24,0.13-0.54,0.09-0.8,0.19c-0.51,0.18-1.07,0.08-1.59,0.21c-0.13,0.03-0.27,0.06-0.41,0.08c-0.2,0.02-0.27-0.05-0.26-0.25
	c0.01-0.16-0.01-0.3-0.07-0.45c-0.07-0.17-0.12-0.36,0.1-0.48c0.02-0.03,0.04-0.07,0.06-0.1c0.21-0.2,0.43-0.38,0.71-0.5
	c0.32-0.13,0.63-0.14,0.96-0.09c0.21,0.03,0.43-0.01,0.64-0.02c0.1,0,0.16-0.07,0.2-0.14c0.04-0.06,0.09-0.11,0.11-0.17
	c0.24-0.72,0.53-1.42,0.69-2.17c0.09-0.4,0.13-0.81,0.36-1.18c0.14-0.2,0.21-0.45,0.24-0.7c0.16-0.44,0.28-0.88,0.03-1.34
	c-0.12-0.23-0.02-0.38,0.24-0.4c0.12-0.01,0.16-0.07,0.15-0.16c-0.02-0.09,0.05-0.19-0.01-0.28c-0.22-0.24-0.24-0.5-0.09-0.78
	c0.13-0.11,0.26-0.02,0.39,0.01c0.16,0.04,0.28,0.02,0.26-0.19c-0.01-0.12,0.06-0.21,0.15-0.29c0.63-0.59,0.83-1.33,0.76-2.17
	c-0.03-0.36-0.03-0.71,0.1-1.05c0.04-0.09,0-0.17-0.03-0.25c-0.09-0.19-0.1-0.38-0.07-0.58c0.04-0.24,0.07-0.47-0.22-0.62
	c-0.14-0.07-0.17-0.25-0.12-0.42c0.02-0.07,0.05-0.15,0.1-0.21c0.22-0.27,0.29-0.54,0.07-0.85c-0.05-0.07-0.02-0.15,0.01-0.22
	c0.07-0.21,0.04-0.26-0.17-0.23c-0.25,0.03-0.32-0.06-0.23-0.31c0.03-0.08,0.09-0.15-0.02-0.22c-0.08-0.05-0.22-0.09-0.18-0.22
	c0.04-0.13,0.17-0.16,0.29-0.17c0.15,0.09,0.22,0.27,0.38,0.35c0.07,0.05,0.12,0.12,0.21,0.15c0.1,0.03,0.2,0,0.23-0.1
	c0.04-0.1-0.03-0.16-0.13-0.19c-0.09-0.03-0.19-0.01-0.27-0.06c-0.09-0.07-0.13-0.16-0.07-0.27c0.04-0.07,0.03-0.14,0.01-0.22
	c-0.05-0.19,0.08-0.38,0.28-0.35c0.26,0.03,0.51-0.05,0.77-0.03c0.18,0.01,0.36,0.05,0.55,0.04c0.16-0.01,0.23,0.15,0.16,0.3
	c-0.05,0.12-0.14,0.22-0.23,0.31c-0.11,0.12-0.22,0.24-0.24,0.41c-0.03,0.19,0.08,0.3,0.25,0.25c0.13-0.04,0.3-0.02,0.4-0.16
	c0.04-0.06,0.1-0.05,0.15,0c0.27,0.25,0.56,0.43,0.94,0.32c0.13-0.04,0.13,0.07,0.11,0.14c-0.09,0.31-0.34,0.47-0.6,0.6
	c-0.19,0.09-0.41,0.07-0.57-0.12c-0.11-0.12-0.26-0.18-0.4-0.11c-0.22,0.11-0.48,0.2-0.54,0.48c-0.04,0.2,0.24,0.44,0.53,0.4
	c0.31-0.04,0.3,0.12,0.29,0.33c-0.01,0.26,0,0.51-0.19,0.75c-0.15,0.19-0.23,0.2-0.37,0.03c-0.16-0.2-0.37-0.3-0.62-0.33
	c-0.17-0.03-0.29,0.03-0.28,0.21c0.03,0.59,0.03,1.18,0.29,1.74c0.16,0.35,0.21,0.74,0.11,1.14c-0.08,0.32-0.17,0.63-0.25,0.95
	c-0.11,0.32-0.23,0.63-0.35,0.95c-0.09,0.23-0.24,0.35-0.49,0.35C17.03,21.68,16.92,21.68,16.84,21.75"/>
<path class="st0" d="M9.16,11.96c-0.02,0-0.03,0-0.04,0.02c-0.08,0.11-0.23,0.07-0.31,0.15c-0.1,0.02-0.22-0.04-0.31,0.04
	c-0.04,0.05-0.09,0.07-0.14,0.09c-0.02,0-0.04,0-0.06-0.02c-0.11,0.03-0.19,0.11-0.31,0.11c-0.05,0.05-0.11,0.01-0.17,0.04
	c-0.05,0-0.11-0.01-0.15,0.03c-0.04,0.11-0.15,0.01-0.2,0.08C7.23,12.53,7,12.61,6.78,12.7c-0.09,0.08-0.21,0.07-0.32,0.1l0,0
	c-0.04,0.07-0.12,0.02-0.17,0.06c-0.18,0.06-0.37,0.11-0.56,0.17c-0.09,0.1-0.21,0.07-0.32,0.09c-0.19,0.06-0.38,0.11-0.57,0.17
	c-0.08,0.06-0.17,0.06-0.26,0.09c-0.63,0.17-1.26,0.35-1.87,0.58c-0.05,0.04-0.12,0.02-0.17,0.04c-0.07,0-0.14,0.01-0.19,0.06
	c-0.1,0.07-0.21,0.1-0.32,0.1c-0.57,0.17-1.15,0.31-1.71,0.53c-0.11-0.01-0.22,0.19-0.33,0l0.07-0.1c0.03-0.1,0.1-0.17,0.2-0.22
	c0.04-0.04,0.08-0.08,0.11-0.12c0.04-0.04,0.05-0.11,0.11-0.14c0.02-0.02,0.03-0.04,0.05-0.05c0.03-0.07,0.07-0.13,0.15-0.16
	c0.04-0.04,0.08-0.08,0.11-0.12c0.03-0.06,0.06-0.11,0.11-0.14c0.12-0.14,0.24-0.27,0.36-0.41c0.02-0.08,0.07-0.13,0.15-0.16
	c0.02-0.02,0.04-0.04,0.06-0.06c0.08-0.08,0.11-0.19,0.21-0.25c0.09-0.09,0.17-0.18,0.26-0.27c0.04-0.08,0.08-0.15,0.16-0.19
	l0.05-0.05c0.04-0.06,0.09-0.11,0.15-0.15c0.02-0.02,0.04-0.05,0.06-0.07c0.04-0.07,0.07-0.16,0.16-0.19
	c0.12-0.14,0.24-0.28,0.36-0.42c0.02-0.05,0.05-0.08,0.1-0.1c0.07-0.08,0.14-0.15,0.2-0.23c0.13-0.27,0.36-0.46,0.57-0.66
	c0.05-0.06,0.11-0.11,0.16-0.17c0.06-0.06,0.1-0.13,0.17-0.19l0,0C4.1,10,4.13,9.96,4.18,9.94c0.09-0.1,0.19-0.2,0.28-0.3
	C4.45,9.54,4.52,9.5,4.59,9.47C4.8,9.24,5.01,9.01,5.22,8.77C5.27,8.7,5.27,8.6,5.39,8.59l0,0c0.12-0.2,0.24-0.42,0.46-0.53v0
	C5.9,7.98,5.97,7.92,6.04,7.86C6.2,7.67,6.36,7.47,6.52,7.28C6.54,7.24,6.57,7.2,6.62,7.18l0.11-0.12C6.77,6.99,6.8,6.9,6.89,6.87
	c0.03-0.04,0.07-0.07,0.1-0.11C7.03,6.66,7.1,6.6,7.18,6.55C7.22,6.5,7.26,6.45,7.3,6.4c0.09-0.17,0.22-0.3,0.38-0.41l0,0
	c0.03-0.1,0.11-0.16,0.19-0.22c0.09-0.1,0.18-0.21,0.27-0.31c0.03-0.03,0.05-0.08,0.1-0.1c0.02-0.02,0.04-0.04,0.06-0.06
	C8.35,5.23,8.4,5.15,8.47,5.1C8.5,5.07,8.52,5.03,8.55,4.99C8.58,4.92,8.63,4.87,8.7,4.83c0.14-0.16,0.29-0.32,0.43-0.48
	C9.22,4.23,9.28,4.08,9.43,4c0.05-0.06,0.11-0.11,0.16-0.17c0.11-0.22,0.3-0.38,0.47-0.55c0.09-0.09,0.17-0.18,0.26-0.27
	c0.07-0.05,0.08-0.15,0.17-0.18l0,0c0.02-0.08,0.06-0.14,0.14-0.17c0.04-0.04,0.07-0.08,0.11-0.12c0.07-0.05,0.07-0.16,0.16-0.19
	c0.05-0.06,0.1-0.11,0.15-0.17c0.07-0.08,0.1-0.2,0.21-0.25c0.07-0.07,0.14-0.15,0.21-0.22c0.05-0.05,0.09-0.11,0.14-0.15
	c0.04-0.05,0.08-0.1,0.12-0.15c0.04-0.06,0.08-0.11,0.14-0.15c0.02-0.02,0.04-0.05,0.06-0.07c0.1-0.18,0.21-0.35,0.4-0.46
	c0.04-0.05,0.08-0.1,0.12-0.15c0.02-0.05,0.05-0.09,0.1-0.11c0.02-0.02,0.04-0.04,0.06-0.06c0.12-0.15,0.2-0.35,0.42-0.4
	c0.22,0.04,0.45,0.08,0.67,0.11c0.05,0.01,0.11,0,0.16,0.04c0.3,0.11,0.61,0.15,0.92,0.21c0.15,0.02,0.31,0,0.44,0.1
	c0.14,0.08,0.3,0.12,0.46,0.11c0.14,0.05,0.3-0.01,0.42,0.12c0.22,0.06,0.44,0.13,0.67,0.15c0.15,0.01,0.29,0.04,0.43,0.1
	c0.06,0.06,0.13,0.06,0.21,0.05c0.08-0.01,0.14,0.03,0.21,0.05c0.22,0.07,0.44,0.15,0.67,0.16c0.08,0.04,0.2-0.06,0.26,0.07
	c0.13,0.04,0.26,0.09,0.41,0.09c0.08,0.06,0.2-0.03,0.27,0.07c0.21,0.05,0.4,0.14,0.62,0.13c0.2,0.04,0.41,0.04,0.59,0.15
	c0.01,0.01,0.03,0.02,0.04,0.01c0.07,0.05,0.15-0.01,0.22,0.04c0.23,0.09,0.46,0.17,0.71,0.17c0.13,0.03,0.27,0,0.38,0.1
	c0.09,0,0.16,0.08,0.25,0.05c0.12,0.03,0.25,0.03,0.37,0.1c0.16,0.08,0.33,0.1,0.51,0.11c0.05,0.03,0.12-0.01,0.17,0.04
	c0.02,0.02,0.03,0.04,0.05,0.05C23.09,2.53,23,2.55,22.87,2.54c-0.09-0.01-0.18-0.06-0.27,0l-0.41-0.1c-0.15,0-0.29-0.03-0.42-0.09
	l-0.02-0.01l-0.02,0c-0.16-0.04-0.33-0.03-0.48-0.1C21,2.18,20.74,2.13,20.49,2.07c-0.06-0.03-0.13,0-0.18-0.04L20.3,2.02l-0.02,0
	c-0.07-0.03-0.16,0.03-0.22-0.05l0,0c-0.06-0.05-0.15,0.01-0.21-0.05c-0.03-0.01-0.07-0.01-0.1-0.02c-0.06,0.02-0.11,0-0.16-0.04
	c-0.08-0.03-0.18,0.02-0.26-0.06c-0.06,0.01-0.11-0.01-0.16-0.04c-0.03-0.01-0.07-0.01-0.1-0.01c-0.06,0.01-0.11-0.01-0.16-0.04
	c-0.09-0.06-0.22,0.04-0.3-0.06c-0.05-0.04-0.12,0-0.17-0.04L18.42,1.6l-0.02,0c-0.08-0.05-0.19,0.02-0.27-0.05
	c-0.01,0-0.03-0.01-0.05-0.01c-0.05,0-0.11,0-0.16-0.04l-0.01-0.01L17.89,1.5c-0.15-0.02-0.29-0.05-0.43-0.09l-0.78-0.16
	c-0.15,0-0.3,0.01-0.42-0.1l-0.02-0.01l-0.02,0c-0.05-0.03-0.12,0.01-0.17-0.04l-0.09-0.01c-0.07-0.05-0.16,0.03-0.23-0.05
	C15.58,1,15.43,0.96,15.28,0.93c-0.07-0.03-0.15,0-0.22-0.04l-0.02-0.01l-0.02,0c-0.14-0.04-0.29-0.02-0.42-0.1
	c-0.15-0.02-0.31-0.04-0.46-0.06l0,0c-0.07-0.15-0.24,0.02-0.33-0.1c-0.07-0.07-0.18,0.01-0.25-0.06c-0.15,0.04-0.34-0.19-0.47,0.05
	c-0.03,0.08-0.09,0.12-0.15,0.16c-0.05,0.01-0.05,0.05-0.06,0.09c-0.01,0.07-0.05,0.11-0.11,0.11C12.74,1,12.73,1.01,12.71,1.03
	c-0.03,0.11-0.1,0.18-0.2,0.21c-0.07,0.08-0.14,0.17-0.22,0.25c-0.01,0.06-0.05,0.09-0.1,0.11c-0.06,0.09-0.18,0.13-0.21,0.25
	c-0.02,0.12-0.1,0.18-0.2,0.22c-0.03,0-0.05,0.02-0.05,0.05c-0.09,0.2-0.21,0.37-0.41,0.47l-0.37,0.41
	c-0.03,0.07-0.09,0.12-0.15,0.16c-0.16,0.22-0.4,0.37-0.53,0.61C10.24,3.9,10.16,3.96,10.06,4C9.88,4.13,9.77,4.3,9.64,4.47
	c-0.05,0.11-0.1,0.21-0.23,0.26C9.29,4.84,9.17,4.95,9.07,5.1C8.91,5.39,8.71,5.64,8.44,5.82c-0.1,0.04-0.13,0.15-0.2,0.23
	C8.18,6.11,8.17,6.21,8.07,6.24c-0.05,0.02-0.08,0.05-0.09,0.1C7.91,6.44,7.87,6.55,7.75,6.6C7.62,6.67,7.57,6.83,7.46,6.92
	c-0.05,0.11-0.1,0.21-0.22,0.26C7.22,7.19,7.21,7.2,7.2,7.22C7.17,7.3,7.13,7.36,7.04,7.39C6.8,7.6,6.62,7.86,6.41,8.1
	C6.4,8.19,6.34,8.24,6.26,8.27c-0.05,0.02-0.08,0.05-0.1,0.1c-0.05,0.07-0.1,0.15-0.18,0.2C5.9,8.66,5.8,8.73,5.74,8.84
	C5.72,8.92,5.66,8.96,5.6,9C5.59,9,5.58,9.02,5.58,9.03C5.55,9.21,5.4,9.28,5.27,9.36C5.22,9.43,5.16,9.49,5.11,9.55
	c0,0.07-0.04,0.1-0.1,0.12c-0.07,0.12-0.22,0.15-0.26,0.3c-0.01,0.07-0.05,0.1-0.11,0.11c-0.15,0.14-0.29,0.29-0.41,0.46
	c-0.03,0.1-0.09,0.19-0.2,0.22c-0.08,0.05-0.15,0.1-0.17,0.2c-0.01,0.06-0.05,0.09-0.1,0.1l0,0c-0.03,0.08-0.09,0.13-0.15,0.16
	c-0.07,0.08-0.14,0.16-0.21,0.25c-0.07,0.19-0.21,0.32-0.38,0.42c-0.08,0.09-0.16,0.18-0.24,0.26c-0.05,0.08-0.11,0.15-0.19,0.21
	c-0.18,0.17-0.35,0.35-0.49,0.55c0,0.07-0.04,0.1-0.1,0.12c-0.05,0.02-0.09,0.05-0.1,0.11c-0.03,0.09-0.05,0.19-0.17,0.2
	c-0.01,0.01-0.03,0.03-0.04,0.04c-0.07,0.23-0.29,0.33-0.39,0.55c0.22-0.08,0.44-0.15,0.67-0.16c0.12-0.03,0.25-0.04,0.35-0.11
	c0.04-0.06,0.11-0.02,0.16-0.05c0.02,0.01,0.03,0,0.05-0.01c0.08-0.05,0.17-0.08,0.26-0.08c0.34-0.11,0.69-0.22,1.04-0.33
	c0.06-0.05,0.15,0.01,0.21-0.05c0.05-0.02,0.1-0.04,0.16-0.05c0.07-0.04,0.15-0.04,0.2-0.11c0.06-0.06,0.11-0.12,0.17-0.18
	c0.01-0.09,0.08-0.13,0.14-0.18l0.06-0.07c0.04-0.05,0.09-0.1,0.14-0.14c0.02-0.01,0.02-0.02,0.02-0.04
	c0.07-0.16,0.17-0.29,0.33-0.37c0.03-0.04,0.05-0.08,0.08-0.12c0.07-0.1,0.16-0.18,0.25-0.26c0.02-0.04,0.04-0.07,0.07-0.11
	c0.11-0.18,0.24-0.34,0.41-0.47c0.05-0.06,0.11-0.11,0.16-0.17c0.02-0.06,0.06-0.11,0.11-0.14c0.02-0.02,0.03-0.04,0.05-0.05
	c0.02-0.05,0.06-0.08,0.1-0.1c0.04-0.06,0.07-0.13,0.14-0.16c0.04-0.05,0.05-0.12,0.12-0.16c0.05-0.06,0.07-0.13,0.14-0.15
	c0.03-0.03,0.06-0.06,0.08-0.1c0-0.06,0.04-0.09,0.09-0.11C7.06,9.92,7.08,9.9,7.09,9.88c0.02-0.04,0.06-0.07,0.1-0.1
	c0.05-0.07,0.11-0.14,0.17-0.2c0.06-0.14,0.2-0.21,0.3-0.32c0.02-0.03,0.05-0.07,0.07-0.1c0.03-0.1,0.1-0.17,0.2-0.21
	C8.02,8.82,8.13,8.7,8.24,8.57C8.3,8.51,8.33,8.42,8.4,8.38c0.05-0.06,0.1-0.11,0.15-0.17c0.02-0.04,0.05-0.08,0.09-0.1
	C8.7,8.04,8.76,7.98,8.81,7.91c0.11-0.18,0.24-0.34,0.41-0.47C9.24,7.42,9.26,7.4,9.28,7.38C9.3,7.3,9.37,7.28,9.42,7.23
	c0.02,0,0.02-0.01,0.02-0.03c0.03-0.18,0.18-0.24,0.29-0.34l0.01-0.01c0.03-0.09,0.08-0.16,0.16-0.2v0c0.01-0.05,0.05-0.09,0.1-0.11
	l0,0c0.05-0.05,0.07-0.13,0.14-0.16c0.04-0.08,0.09-0.16,0.17-0.22c0.04-0.08,0.08-0.15,0.17-0.18h0c0.01-0.09,0.08-0.12,0.14-0.17
	C10.75,5.68,10.87,5.54,11,5.4c0.02-0.04,0.05-0.08,0.09-0.1c0.04-0.05,0.08-0.1,0.12-0.15c0.09-0.17,0.22-0.3,0.36-0.42l0.36-0.42
	c0.02-0.08,0.09-0.11,0.14-0.16c0.02-0.02,0.04-0.04,0.06-0.07c0.02-0.06,0.06-0.1,0.11-0.14c0.11-0.12,0.22-0.24,0.33-0.36
	c-0.01-0.03,0-0.05,0.03-0.06c0.03-0.04,0.07-0.07,0.1-0.11c0.19-0.05,0.1,0.12,0.15,0.19c-0.01,0.01-0.01,0.02,0.01,0.03
	c0.04,0.05,0.05,0.1,0.04,0.16c0,0.02,0.01,0.03,0.01,0.05c0.04,0.09-0.06,0.1-0.09,0.15c-0.2,0.22-0.39,0.45-0.59,0.67
	c-0.03,0.07-0.09,0.12-0.15,0.17l0,0c-0.08,0.21-0.22,0.35-0.4,0.46c-0.09,0.11-0.18,0.21-0.27,0.32c-0.03,0.06-0.06,0.12-0.13,0.14
	c-0.04,0.02-0.08,0.05-0.08,0.1C11.19,5.96,11.12,6,11.04,6.03c-0.15,0.11-0.24,0.27-0.36,0.42c-0.04,0.08-0.07,0.18-0.18,0.2
	c-0.19,0.21-0.4,0.39-0.55,0.63C9.94,7.33,9.9,7.37,9.85,7.39c-0.2,0.25-0.46,0.45-0.62,0.74C9.14,8.28,9,8.41,8.86,8.52v0
	C8.85,8.62,8.77,8.64,8.71,8.69C8.59,8.83,8.46,8.97,8.34,9.11C8.29,9.17,8.27,9.27,8.17,9.3L8.13,9.35
	c-0.01,0.06-0.05,0.1-0.1,0.12C8.01,9.48,8,9.5,7.98,9.52C7.86,9.69,7.78,9.9,7.57,9.99c-0.1,0.03-0.12,0.1-0.12,0.2l0,0
	c-0.08-0.01-0.13,0.04-0.15,0.11c-0.02,0.05-0.05,0.09-0.11,0.11c-0.04,0.05-0.08,0.1-0.12,0.15c0.01,0.04,0,0.06-0.02,0.09
	c-0.02,0.03-0.04,0.05-0.07,0.08c-0.1,0.1-0.2,0.19-0.27,0.32c-0.05,0.06-0.11,0.11-0.19,0.15c-0.02,0.02-0.04,0.04-0.06,0.06
	c-0.04,0.05-0.09,0.1-0.14,0.14c-0.03,0.09-0.1,0.15-0.17,0.2C6.13,11.67,6.06,11.71,6,11.76c-0.07,0.08-0.14,0.17-0.21,0.25
	c-0.07,0.17-0.21,0.29-0.31,0.43c-0.02,0.02-0.03,0.04-0.05,0.05c-0.1,0.09-0.18,0.2-0.32,0.35c0.19-0.07,0.33-0.1,0.47-0.14
	c0.12-0.06,0.25-0.08,0.38-0.11c0.05-0.01,0.09-0.02,0.14-0.04c0.02-0.01,0.05-0.01,0.07-0.02c0.24,0.03,0.43-0.14,0.65-0.18
	c0.04-0.01,0.08,0,0.11,0.03c0.1-0.03,0.22-0.03,0.31-0.1c0.04-0.06,0.11-0.01,0.16-0.04c0.13-0.02,0.25-0.04,0.36-0.11
	c0.05-0.04,0.12-0.01,0.18-0.04c0.24-0.07,0.47-0.14,0.71-0.21c0.06-0.05,0.15-0.02,0.22-0.05c0.1-0.03,0.2-0.07,0.3-0.1
	c0.07-0.07,0.15-0.08,0.2-0.01c0.05,0.09-0.04,0.15-0.1,0.21C9.24,11.95,9.2,11.95,9.16,11.96"/>
<path class="st0" d="M11.44,14.73c0.04,0,0.08,0,0.12,0c0.11,0.05,0.2-0.02,0.29-0.05c0.09-0.14,0.27-0.18,0.39-0.28
	c0.2-0.15,0.25-0.02,0.28,0.15c-0.03,0.07-0.08,0.06-0.14,0.05l-0.21,0.11c-0.02,0.04-0.05,0.08-0.08,0.11
	c-0.07,0.06-0.13,0.13-0.22,0.17c-0.09,0.11-0.18,0.21-0.16,0.37c-0.01,0.14-0.05,0.27,0,0.41c0.02,0.03,0.04,0.07,0.06,0.1
	c0.08,0.11,0.14,0.22,0.11,0.36c0.03,0.05,0.06,0.11,0.09,0.16c0.09,0.04,0.07,0.14,0.11,0.21c-0.01,0.07,0.03,0.12,0.08,0.16
	c0.19,0.11,0.3,0.28,0.38,0.48c0,0.04,0.01,0.08,0.06,0.09c0.04,0,0.07,0.02,0.1,0.04c0.05,0.06,0.1,0.13,0.16,0.19
	c0.18,0.2,0.33,0.41,0.5,0.61c0.05,0.08,0.07,0.17,0.13,0.24l0.08,0.11c0.11,0.04,0.17,0.13,0.23,0.21
	c0.02,0.17,0.14,0.36-0.12,0.45c-0.13,0.1-0.23,0-0.33-0.05c-0.16-0.15-0.36-0.01-0.53-0.1c-0.09-0.04-0.2,0.04-0.27-0.06
	c-0.1-0.07-0.2,0.03-0.29,0.01c-0.09,0-0.18-0.01-0.26-0.06c-0.06-0.04-0.13-0.05-0.2-0.06c-0.02,0-0.04-0.01-0.07-0.02
	c-0.06-0.02-0.13-0.03-0.19,0.01c-0.05,0.04-0.08,0.08-0.1,0.14c-0.05,0.19-0.05,0.39-0.07,0.59c0,0.07-0.01,0.13-0.01,0.2
	c-0.05,0.16,0,0.33-0.02,0.49c0,0.03,0,0.06,0,0.08c0.04,0.31-0.11,0.59-0.12,0.89c0,0.02,0,0.04,0,0.05
	c0.03,0.05,0.05,0.1,0.04,0.16c-0.04,0.13-0.02,0.27-0.03,0.41c0,0.05-0.01,0.11-0.02,0.16c-0.04,0.12-0.03,0.24-0.03,0.36
	c0,0.06-0.01,0.11-0.02,0.16c-0.05,0.11,0.01,0.26-0.11,0.35c-0.01,0.01-0.03,0.03-0.04,0.04c-0.23,0.19-0.37,0.18-0.52-0.02
	c-0.03-0.17-0.01-0.33-0.01-0.5c0-0.04,0.01-0.08,0.02-0.13c0.04-0.1,0.03-0.21,0.04-0.32c0-0.04,0.01-0.08,0.02-0.11
	c0.04-0.11,0.03-0.21,0.03-0.32c0-0.03-0.01-0.07-0.03-0.1c-0.15-0.07-0.31-0.03-0.47-0.02C10,21.49,9.95,21.55,9.91,21.6
	c-0.02,0.02-0.03,0.03-0.05,0.04c-0.08,0.04-0.14,0.11-0.16,0.2C9.65,21.96,9.56,22,9.44,22c-0.03-0.01-0.05-0.02-0.07-0.04
	c-0.02-0.05-0.02-0.1-0.01-0.15c0.1-0.12,0.1-0.28,0.18-0.41c0.03-0.07,0.05-0.15,0.09-0.22c0.09-0.29,0.18-0.59,0.33-0.87
	c0.04-0.13,0.01-0.29,0.14-0.39c0.03-0.2,0.17-0.36,0.22-0.56c0.02-0.08,0.05-0.15,0.09-0.22c0.02-0.01,0.02-0.02,0.02-0.04
	c0.04-0.14,0.07-0.29,0.15-0.43c-0.04-0.07-0.07-0.14-0.11-0.21c-0.06-0.05-0.12-0.09-0.15-0.16c0-0.05-0.01-0.1-0.01-0.15
	c-0.17-0.04-0.29-0.14-0.41-0.26c-0.12-0.09-0.23-0.18-0.35-0.27c-0.06-0.01-0.1-0.03-0.12-0.09c-0.04-0.02-0.07-0.04-0.11-0.06
	c-0.24-0.14-0.19-0.36-0.15-0.57c0.15-0.14,0.1-0.36,0.21-0.52c0.01-0.01,0.02-0.02,0.01-0.03c0.03-0.1,0.03-0.2,0-0.3
	c-0.06-0.19-0.04-0.41-0.21-0.56l0,0c-0.14-0.11-0.33-0.07-0.48-0.15c-0.02-0.04-0.03-0.07,0-0.11c0.11-0.13,0.3-0.06,0.43-0.15
	c0.07-0.05,0.14-0.06,0.2,0.01c0.12,0.04,0.22-0.02,0.32-0.06c0.16-0.08,0.33,0.01,0.48-0.05c0.27-0.14,0.58-0.05,0.86-0.16
	C11.15,14.86,11.31,14.85,11.44,14.73"/>
<path class="st0" d="M29.44,21.12c0,0.04,0,0.07-0.01,0.1c0.09,0.06,0.07,0.15,0.07,0.23c-0.04,0.07,0.09,0.23-0.12,0.19
	c-0.03-0.23-0.11-0.46-0.18-0.68c-0.04-0.12-0.08-0.24-0.09-0.36h0c-0.06-0.08,0.01-0.19-0.05-0.27c0.01-0.02,0.01-0.03-0.01-0.04
	c-0.03-0.07-0.04-0.14-0.04-0.21c0-0.02-0.01-0.03-0.01-0.05c-0.04-0.17-0.08-0.35-0.1-0.53c0.01-0.02,0.01-0.03-0.01-0.04
	c-0.11-0.14,0.01-0.29-0.04-0.44c0.01-0.08-0.07-0.16-0.01-0.24c-0.03-0.14-0.05-0.28-0.01-0.43c0.07-1.03,0.03-2.06,0.04-3.08
	c0-0.09-0.01-0.19,0-0.24c-0.02,0.87,0,1.78-0.01,2.68c-0.01,0.04-0.04,0.05-0.07,0.02c0.01-0.9,0.02-1.79-0.01-2.69
	c-0.06-0.3,0.02-0.6-0.04-0.89c0.01-0.02,0-0.03-0.01-0.05c-0.03-0.03-0.04-0.07-0.03-0.11c-0.05-0.1-0.07-0.22-0.16-0.31
	c-0.11-0.1-0.26-0.15-0.32-0.3c-0.14-0.11-0.27-0.22-0.41-0.33c-0.11,0-0.17-0.1-0.26-0.14c-0.36-0.18-0.73-0.36-1.09-0.55
	c-0.13,0.02-0.23-0.05-0.32-0.13c-0.21-0.02-0.39-0.14-0.58-0.21c-0.3-0.12-0.33-0.34-0.15-0.85c0.06-0.05-0.01-0.14,0.05-0.19l0,0
	c0.09-0.02,0.17-0.06,0.26-0.04c0.04,0,0.07-0.01,0.11-0.01c0.08-0.08,0.18,0.01,0.27-0.05c0.02,0.01,0.03,0.01,0.05-0.01
	c0.29-0.08,0.59-0.13,0.89-0.14c0.03,0,0.07-0.01,0.1-0.01c0.17-0.1,0.36,0.02,0.53-0.05c0.01,0.01,0.03,0.01,0.04,0
	c0.36-0.08,0.73-0.06,1.09-0.01c0.11,0.02,0.23,0.04,0.34,0.01c0.21,0.07,0.43-0.03,0.65,0.05c0.01,0.01,0.03,0.01,0.04,0.01
	c0.19,0,0.36,0.09,0.53,0.17c0.22,0.1,0.44,0.16,0.67,0.2c0.22,0.05,0.43,0.12,0.58,0.3c0.09,0.08,0.18,0.15,0.31,0.16
	c0.09,0.02,0.18,0.05,0.21,0.15c0.04,0.05,0.09,0.11,0.13,0.16c0.06,0.1-0.04,0.11-0.08,0.15c-0.12,0.05-0.24,0.11-0.36,0.17
	c-0.05,0.05-0.1,0.08-0.17,0.09c-0.04,0-0.08,0-0.09,0.05c-0.07,0.07-0.16,0.13-0.26,0.16c-0.14,0.04-0.23,0.14-0.31,0.26
	c-0.05,0.14-0.01,0.28,0,0.42c0,0.02,0.01,0.03,0.01,0.05c0.04,0.07,0.02,0.14,0.03,0.21c0.01,0.03,0.01,0.07,0.02,0.1
	c0.05,0.1,0,0.21,0.04,0.32c0,0.02,0.01,0.03,0.01,0.05c0.06,0.08-0.01,0.19,0.05,0.27c0,0.03,0.01,0.06,0.01,0.09
	c0.06,0.07-0.01,0.15,0.04,0.22c-0.01,0.01-0.01,0.03,0.01,0.04c0.06,0.1-0.01,0.23,0.05,0.33c0,0.03,0.01,0.06,0.01,0.08
	c0.05,0.08-0.01,0.18,0.05,0.27c-0.01,0.02-0.01,0.03,0.01,0.05c0.05,0.08-0.01,0.18,0.05,0.26c-0.01,0.02-0.01,0.04,0.01,0.05
	c0.05,0.09-0.01,0.19,0.04,0.28c0.01,0.14-0.03,0.28,0.06,0.4c0.05,0.08-0.01,0.19,0.05,0.27c-0.01,0.01-0.01,0.03,0.01,0.04
	c0.05,0.32,0.02,0.64,0.02,0.96c0,0.09-0.05,0.2-0.14,0.18c-0.12-0.02-0.08-0.12-0.03-0.2c0.02-0.05,0.02-0.11-0.01-0.16
	c-0.05-0.07-0.02-0.15-0.04-0.23c-0.07-0.11-0.03-0.23-0.07-0.34c-0.06-0.07-0.02-0.15-0.04-0.22c0-0.03-0.01-0.06-0.01-0.09
	c-0.03-0.07-0.04-0.14-0.04-0.21c-0.09-0.09-0.03-0.21-0.06-0.31c-0.06-0.06,0-0.15-0.04-0.21l0,0c-0.07-0.1,0-0.23-0.05-0.33
	c0.01-0.01,0.01-0.02-0.01-0.03c-0.04-0.08-0.03-0.18-0.05-0.26c-0.06-0.08-0.05-0.17-0.05-0.26c-0.08-0.18-0.06-0.39-0.1-0.58
	c-0.07-0.07-0.05-0.16-0.05-0.25c-0.06-0.1-0.03-0.21-0.05-0.32c0-0.03-0.01-0.07-0.01-0.1c-0.05-0.06-0.02-0.14-0.04-0.21l0,0
	c-0.07-0.1,0-0.23-0.05-0.33c0-0.03-0.01-0.05-0.01-0.08c-0.05-0.04-0.01-0.11-0.04-0.16c-0.04-0.06-0.06-0.13-0.06-0.2
	c-0.05-0.04,0.01-0.11-0.05-0.14c-0.02-0.04-0.04-0.08-0.05-0.11c-0.05-0.04-0.08-0.1-0.09-0.16c-0.13-0.23-0.25-0.45-0.38-0.67
	c-0.06-0.1-0.12-0.22-0.28-0.16c-0.33-0.06-0.6,0.07-0.86,0.25c-0.09,0.06-0.16,0.15-0.16,0.28c-0.05,0.04,0.01,0.12-0.06,0.15h0
	c-0.08,0.25,0.07,0.49,0.06,0.74c0.04,0.03,0.02,0.08,0.05,0.11c0.01,0.05-0.02,0.12,0.05,0.15c0.09,0.01,0.07,0.1,0.11,0.15
	c0.11,0.15,0.19,0.32,0.36,0.42c0.04,0.05,0.08,0.1,0.11,0.16c0.12,0.17,0.14,0.38,0.21,0.57c0.06,0.21,0,0.43,0.04,0.65
	c0,0.13,0,0.26,0.01,0.39c0.04,0.05,0.04,0.1,0,0.15c0,0.17-0.01,0.33-0.01,0.5c-0.03,0.14,0.01,0.3-0.04,0.44l-0.01,0.08
	c-0.05,0.12,0.01,0.26-0.04,0.38c0,0.05-0.01,0.09-0.01,0.14c-0.03,0.12,0.02,0.26-0.04,0.38c0,0.04,0,0.07-0.01,0.11
	c0.03,0.21-0.03,0.42-0.05,0.62c0,0.03,0,0.06,0,0.08c-0.04,0.22-0.04,0.44,0,0.66c0,0.06,0.01,0.13,0.01,0.19
	c0.08,0.18-0.03,0.37,0.04,0.54c-0.02,0.12-0.01,0.23,0.01,0.34c0.07,0.16,0,0.33,0.02,0.49c-0.01,0.13,0.02,0.26,0.05,0.39
	C29.46,20.95,29.45,21.04,29.44,21.12"/>
<path class="st0" d="M25.09,21.67c0.01,0.1,0.09,0.14,0.15,0.19c0.11,0.05,0.06,0.17,0.12,0.25c0.01,0.02,0.02,0.04,0.03,0.06
	c0.07,0.01,0.04,0.07,0.07,0.1c0.04,0.1,0.08,0.2,0.11,0.3c0.1,0.1,0.09,0.25,0.14,0.37h0c0.08,0.04,0.08,0.13,0.1,0.21v0
	c0.15,0.09,0.12,0.24,0.15,0.38c-0.01,0.02-0.01,0.03,0.01,0.04c0.19,0.16,0.22,0.41,0.3,0.62c0.1,0.25,0.27,0.43,0.48,0.58
	c0.22,0.17,0.42,0.35,0.42,0.69c0,0.33,0.35,0.52,0.8,0.52c0.28,0,0.55,0.06,0.7,0.34c0.24,0.17,0.48,0.33,0.57,0.64
	c-0.01,0.07,0.01,0.14,0.07,0.19c0.09,0.08,0.08,0.19,0.09,0.29c0.04,0.4,0.18,0.72,0.59,0.87c0.13,0.05,0.23,0.18,0.29,0.31l0,0
	c0.07,0.05,0.07,0.14,0.11,0.2l0,0c0.08,0.03,0.08,0.1,0.1,0.17c-0.01,0.06,0.02,0.11,0.06,0.14c0,0.27,0.18,0.49,0.22,0.76
	c0.08,0.52,0.02,1.05,0.09,1.57c0.03,0.2-0.01,0.41,0.16,0.57c0.04,0.04,0.09,0.13,0.02,0.18c-0.06,0.05-0.13,0.01-0.19-0.02
	c-0.15-0.09-0.22-0.24-0.25-0.4c0-0.02-0.01-0.03-0.01-0.05c-0.18-0.09-0.25-0.26-0.26-0.45c-0.02-0.27-0.04-0.54,0.01-0.8
	c0.08-0.4,0.01-0.77-0.15-1.13c-0.07-0.07-0.14-0.15-0.2-0.23c-0.45-0.25-0.85-0.52-1.03-1.06c-0.09-0.26-0.28-0.51-0.43-0.76
	c-0.22-0.14-0.31-0.38-0.47-0.57l-0.01,0c-0.27-0.14-0.55-0.17-0.82,0l0,0c-0.19,0.35-0.25,0.75-0.47,1.09
	c-0.01,0.01-0.02,0.02-0.01,0.03c-0.05,0.12,0,0.29-0.16,0.37l0,0c-0.03,0.1-0.01,0.24-0.19,0.16l0,0.01
	c-0.1-0.17-0.09-0.37-0.09-0.55c0-0.22-0.04-0.43-0.11-0.63c-0.08-0.21-0.03-0.41-0.05-0.61c-0.02-0.13,0.09-0.2,0.2-0.23l0,0
	c0.09-0.09,0.21-0.15,0.32-0.21c0.19-0.09,0.22-0.19,0.1-0.37c-0.13-0.19-0.29-0.34-0.49-0.45c-0.11-0.06-0.23-0.12-0.29-0.24
	c-0.04-0.03-0.08-0.06-0.13-0.08c-0.25,0.02-0.27-0.15-0.29-0.33c0.01-0.02,0-0.03-0.02-0.04c-0.11-0.07-0.16-0.16-0.16-0.29
	c0-0.2,0-0.41-0.03-0.61c0.01-0.02,0.01-0.03-0.01-0.04c-0.02-0.02-0.05-0.05-0.06-0.08c-0.07-0.52-0.3-0.99-0.45-1.49l-0.01,0.01
	l0.01-0.01c-0.11-0.08-0.16-0.2-0.2-0.32l-0.01,0.01l0.01-0.01c-0.07-0.06-0.15-0.11-0.16-0.22c0.01-0.01,0.01-0.02-0.01-0.03
	c-0.1-0.06-0.06-0.17-0.1-0.25c-0.05-0.02-0.04-0.08-0.05-0.11c-0.17-0.17-0.32-0.36-0.37-0.61c-0.05-0.26-0.28-0.41-0.45-0.58
	c-0.19-0.18-0.27-0.41-0.36-0.64c-0.03-0.07-0.03-0.16,0.05-0.21c0.09-0.05,0.16,0.01,0.19,0.08c0.06,0.13,0.18,0.18,0.28,0.26
	c0.24,0.21,0.42,0.47,0.56,0.76c0.06,0.04,0.07,0.11,0.1,0.16c0,0.04,0,0.08,0.05,0.09c0.11,0.06,0.17,0.15,0.2,0.27
	C24.84,21.05,24.88,21.41,25.09,21.67"/>
<path class="st0" d="M3.97,22.64c0.07-0.18-0.09-0.28-0.15-0.42c-0.05-0.09-0.19-0.09-0.21-0.21v0c-0.2-0.04-0.3-0.17-0.31-0.36v0
	c-0.03-0.16-0.08-0.32,0.05-0.47c0.03-0.11,0.14-0.15,0.21-0.23c0.02-0.04,0.05-0.07,0.09-0.09c0.06-0.05,0.11-0.11,0.17-0.16
	c0.06-0.05,0.05-0.14,0.1-0.2c0.1-0.22-0.09-0.38-0.13-0.57c-0.03-0.11-0.08-0.21-0.13-0.32c-0.12-0.1-0.11-0.25-0.19-0.37
	c-0.02-0.03-0.05-0.06-0.07-0.1c-0.07-0.05-0.08-0.13-0.11-0.2l-0.06-0.11c-0.07-0.05-0.08-0.13-0.1-0.2
	c-0.05-0.09-0.1-0.18-0.15-0.27c-0.07-0.03-0.11-0.1-0.16-0.15c-0.05-0.01-0.1-0.02-0.13-0.06c-0.08-0.03-0.18-0.01-0.23-0.09
	c-0.2-0.07-0.43-0.08-0.6-0.22c-0.07-0.04-0.16-0.05-0.23-0.1c-0.21-0.09-0.43-0.17-0.62-0.31c-0.09-0.02-0.19-0.04-0.2-0.16v0
	c-0.07-0.03-0.14-0.06-0.17-0.13c-0.01-0.02-0.02-0.02-0.04-0.02c-0.11-0.05-0.19-0.12-0.11-0.26c0.1-0.04,0.21-0.07,0.31-0.11
	c0.1-0.02,0.21-0.04,0.31-0.04c0.04,0,0.07-0.01,0.1-0.01c0.09-0.04,0.18-0.01,0.27-0.04c0.02,0.01,0.03,0.01,0.04-0.01
	c0.17-0.03,0.35-0.07,0.52,0.02c0.01,0.1,0.09,0.14,0.15,0.19c0.15,0.05,0.2,0.19,0.26,0.32c0.02,0.03,0.05,0.06,0.07,0.08
	c0.05,0.02,0.07,0.06,0.09,0.11l0,0c0.09,0.03,0.17,0.04,0.26-0.01l0,0c0.02-0.02,0.03-0.03,0.06-0.04
	c0.14-0.08,0.27-0.15,0.41-0.23c0.03-0.1,0.14-0.04,0.19-0.1c0.02-0.05,0.08-0.04,0.12-0.06c0.01-0.02,0.03-0.03,0.06-0.03
	c0.1-0.06,0.2-0.12,0.31-0.17c0.19-0.12,0.43-0.11,0.62,0.04c0,0.04,0,0.07,0.04,0.08c0.08,0.24,0.04,0.48,0.02,0.72
	c0,0.06-0.01,0.12-0.01,0.19c-0.06,0.18,0.03,0.37-0.04,0.54c0,0.06-0.01,0.13-0.01,0.19c-0.03,0.23,0.02,0.46-0.05,0.69
	c0,0.06,0,0.13-0.01,0.19c-0.03,0.2,0.01,0.4-0.04,0.59c0,0.06-0.01,0.13-0.01,0.19c-0.02,0.18,0,0.36-0.04,0.53
	c0,0.06-0.01,0.13-0.01,0.19c-0.07,0.24,0.04,0.5-0.05,0.74l0,0c-0.07,0.24,0.03,0.49-0.04,0.73c0,0.06,0,0.11,0,0.17
	c-0.02,0.01-0.05,0-0.07-0.01c-0.04-0.06,0.02-0.16-0.05-0.2c0.01,0.21,0.12,0.42-0.01,0.63c-0.04,0.07-0.05,0.12-0.01,0.19
	c0.05,0.1,0.04,0.2,0,0.3c-0.03,0.07-0.09,0.11-0.17,0.09c-0.09-0.01-0.07-0.09-0.06-0.15c0.02-0.22-0.1-0.44,0.01-0.59
	c0.02-0.1-0.04-0.07,0-0.07c0.02,0,0.02,0.01,0.02,0.02c-0.01,0.06,0,0.14-0.1,0.07C3.95,22.76,3.93,22.7,3.97,22.64"/>
<path class="st0" d="M19.74,12.16c0.02,0,0.04,0.01,0.05,0.01c0.18,0.19,0.39,0.03,0.59,0.04c0.07,0,0.07-0.11,0.07-0.17
	c0.01-0.12,0.02-0.24,0.06-0.36c0.04-0.1,0.11-0.16,0.21-0.17c0.11-0.01,0.18,0.06,0.21,0.16c0.03,0.11,0.06,0.15,0.18,0.15
	c0.19,0,0.25,0.16,0.28,0.32l-0.01,0.02l0.01,0.01c0.28,0.36,0.44,0.78,0.64,1.18c0.03,0.07,0.07,0.14,0.12,0.2
	c0.35,0.36,0.39,0.77,0.22,1.22c-0.05,0.07-0.02,0.2-0.14,0.21c-0.1-0.14-0.24-0.15-0.35-0.06c-0.15,0.13-0.08,0.32-0.02,0.48
	c0.02,0.06-0.01,0.07-0.06,0.06c-0.03-0.34-0.19-0.62-0.35-0.91c-0.11-0.2-0.02-0.3,0.21-0.33c0.12-0.01,0.24-0.01,0.36,0
	c0.2,0.02,0.22-0.08,0.15-0.23c-0.03-0.07-0.06-0.17-0.11-0.2c-0.33-0.19-0.4-0.54-0.55-0.84c-0.06-0.12-0.13-0.23-0.21-0.32
	c-0.15-0.16-0.39-0.16-0.53-0.01c-0.15,0.17-0.03,0.3,0.1,0.41c0.14,0.12,0.23,0.27,0.12,0.45c-0.13,0.22-0.22,0.23-0.41,0.06
	c-0.16-0.14-0.28-0.31-0.41-0.47c-0.06-0.07-0.09-0.2-0.19-0.18c-0.12,0.02-0.16,0.14-0.17,0.27c-0.14,0.08-0.2-0.04-0.27-0.12
	c-0.09-0.11-0.16-0.25-0.24-0.37c-0.07-0.11-0.15-0.23-0.04-0.35C19.41,12.19,19.54,12.06,19.74,12.16"/>
<path class="st0" d="M16.46,13.21c-0.02,0.03-0.04,0.06-0.06,0.09c-0.07,0.08-0.16,0.15-0.1,0.29c0.02,0.05,0.01,0.13-0.06,0.15
	c-0.09,0.02-0.12-0.05-0.14-0.11c-0.03-0.1-0.05-0.2,0-0.3c0.01-0.01,0.02-0.02,0.01-0.04c0.03-0.12,0.05-0.24,0.06-0.36
	c0.01-0.12,0.01-0.27,0.16-0.33c0.05,0,0.09-0.01,0.14-0.01c0.1-0.1,0.25-0.07,0.36-0.15l0,0c0.37-0.34,0.62-0.78,0.93-1.17
	c0.09-0.11,0.18-0.14,0.31-0.11c0.3,0.06,0.36,0.01,0.4-0.31c0-0.03,0.02-0.04,0.05-0.05l-0.01,0.01c0.21-0.08,0.43-0.09,0.64-0.02
	c0.15,0.04,0.26,0.04,0.36-0.1c0.06-0.08,0.15-0.17,0.28-0.1l0,0c0.07,0.01,0.09,0.08,0.13,0.12c0.07,0.07,0.26,0.07,0.17,0.23
	c-0.08,0.15-0.21,0.29-0.4,0.28c-0.16-0.01-0.32-0.02-0.48-0.09c-0.22-0.1-0.35-0.02-0.37,0.22c-0.01,0.13-0.08,0.19-0.18,0.22
	c-0.31,0.09-0.58,0.25-0.81,0.47c-0.03,0.09-0.14,0.09-0.19,0.16c-0.2,0.15-0.4,0.29-0.54,0.51c-0.07,0.11-0.17,0.22-0.33,0.22
	C16.58,12.9,16.49,13.02,16.46,13.21"/>
<path class="st0" d="M16.41,14.37c-0.22,0.27-0.18,0.62-0.29,0.93c-0.05,0.15-0.05,0.33,0.08,0.46c0.07,0.07,0.06,0.15,0.01,0.24
	c-0.13,0.23-0.21,0.49-0.29,0.74c-0.08,0.24-0.26,0.44-0.26,0.71c0,0.07-0.02,0.14,0.02,0.2c0.1,0.13,0.07,0.26,0.03,0.42
	c-0.07,0.28,0.13,0.48,0.23,0.72c0.08,0.18,0.08,0.35-0.05,0.51c-0.03,0.04-0.08,0.08-0.13,0.07c-0.06-0.01-0.06-0.08-0.05-0.13
	c0.02-0.19-0.07-0.35-0.18-0.5c-0.03-0.04-0.07-0.07-0.1-0.11c-0.12-0.15-0.08-0.35-0.16-0.52c0-0.02,0-0.04,0-0.06
	c0-0.35,0.04-0.69,0.08-1.04c0.01-0.1,0.01-0.21,0.14-0.25c0.07-0.13-0.02-0.3,0.09-0.43l0,0c0.21-0.28,0.18-0.61,0.13-0.92
	c-0.09-0.5,0.19-0.85,0.47-1.18C16.3,14.07,16.36,14.26,16.41,14.37"/>
<path class="st0" d="M14.75,24.65c0.12,0.15-0.01,0.3-0.01,0.45c0,0.33-0.05,0.66-0.24,0.96c-0.16,0.25-0.25,0.55-0.25,0.86
	c0,0.33-0.07,0.63-0.22,0.92c-0.1,0.19-0.01,0.42-0.12,0.6c-0.15,0.11-0.25,0.02-0.22-0.12c0.04-0.16,0-0.35,0.13-0.48h0
	c0.07-0.29-0.04-0.6,0.1-0.89c0.01-0.01,0.02-0.02,0.01-0.04c0.06-0.28,0.15-0.56,0.12-0.85c-0.01-0.13,0.1-0.17,0.14-0.26
	c0.04-0.1,0.12-0.19,0.14-0.3c0.02-0.04,0.04-0.07,0.06-0.11c0.1-0.18-0.01-0.36,0.02-0.55C14.45,24.54,14.46,24.52,14.75,24.65"/>
<path class="st0" d="M17.88,21.65c0.05,0,0.1-0.01,0.15,0c0.34,0.06,0.35,0.06,0.16,0.36c-0.07,0.11-0.02,0.24-0.06,0.35l0,0
	c-0.31,0.12-0.3,0.12-0.26,0.47c0.02,0.21,0.05,0.43-0.18,0.56c-0.01,0.02-0.02,0.04-0.03,0.06c-0.18,0.16-0.04,0.38-0.11,0.57l0,0
	c-0.01,0.06-0.02,0.12,0,0.18c0.04,0.05,0.08,0.1,0.11,0.14c0.05,0.11,0.05,0.23,0.07,0.34c0.01,0.06,0.04,0.15-0.07,0.17
	c-0.45-0.29-0.35-0.75-0.36-1.18c0.16-0.26,0.25-0.5,0.06-0.8c-0.12-0.19,0.08-0.4,0.19-0.6c0.08-0.14,0.45-0.18,0.24-0.48
	C17.77,21.78,17.84,21.7,17.88,21.65L17.88,21.65z"/>
<path class="st0" d="M18.55,21.33c-0.07-0.05-0.11-0.15-0.04-0.19c0.22-0.13,0.18-0.35,0.24-0.53c0.12-0.13,0.2-0.28,0.27-0.45
	c0.27-0.59,0.65-1.08,1.27-1.37c0.24-0.11,0.45-0.2,0.72-0.17c0.13,0.02,0.22-0.22,0.4-0.21c0.02-0.03-0.01,0,0.02-0.02
	c0.07-0.07,0.12-0.25,0.24-0.16c0.13,0.1,0.02,0.23-0.06,0.34c-0.1,0.14-0.27,0.18-0.43,0.21c-0.07-0.01-0.14,0.01-0.19,0.07
	c-0.09,0.08-0.22,0.05-0.32,0.09v0c-0.38,0.18-0.72,0.43-1.09,0.63h0c-0.05,0.18-0.1,0.36-0.27,0.47c-0.08,0.1,0,0.18,0.02,0.26
	c-0.06,0.16-0.15,0.31-0.28,0.41c-0.03,0.11-0.16,0.17-0.14,0.3c-0.07,0.14-0.18,0.25-0.32,0.32l-0.02-0.01L18.55,21.33z"/>
<path class="st0" d="M23.38,14.98c-0.29,0.17-0.17-0.14-0.25-0.22c-0.11-0.2-0.02-0.33,0.15-0.44c0.14-0.11,0.11-0.23,0.02-0.36
	c-0.21-0.3-0.49-0.51-0.78-0.7c-0.33-0.22-0.45-0.55-0.5-0.93l0,0c0.08-0.11,0.16-0.06,0.21,0.01c0.32,0.43,0.77,0.71,1.14,1.08
	c0.04,0.04,0.07,0.08,0.1,0.12l0,0c0.13,0.21,0.25,0.42,0.12,0.67l0,0c-0.03,0.23,0.01,0.47-0.15,0.67
	C23.42,14.91,23.4,14.94,23.38,14.98"/>
<path class="st0" d="M3.71,26.85c0-0.06,0-0.13,0-0.19c0.04-0.21-0.02-0.43,0.04-0.64c0-0.03,0-0.07,0-0.11
	c-0.01-0.01-0.02-0.02-0.01-0.04c0.01-0.01,0.01-0.02,0.02-0.02c0.02-0.01,0.02-0.02,0-0.04c0.04-0.21-0.02-0.43,0.04-0.64
	c0-0.06,0.01-0.13,0.01-0.19c0.01-0.03,0.03-0.04,0.06-0.02c0.03,0.12,0.01,0.24,0.02,0.35c0.02-0.08-0.01-0.17,0-0.25
	c0.01-0.05-0.02-0.11,0.03-0.14C4,24.9,4.04,24.96,4.08,25c0.07,0.07,0.07,0.16,0.07,0.26c-0.02,0.3-0.1,0.61-0.04,0.92
	c0.02,0.05,0,0.1-0.02,0.15c-0.01,0.07-0.01,0.14-0.01,0.21c0.01,0.11,0.04,0.22-0.04,0.31c0,0.03-0.01,0.06-0.01,0.09
	c-0.07,0.26,0.04,0.54-0.1,0.79l-0.01,0.18c-0.03,0.07-0.02,0.15-0.03,0.23c-0.04,0.08-0.05,0.17-0.05,0.26c0,0.05,0.01,0.11,0,0.16
	c-0.05,0.08-0.01,0.2-0.14,0.23c-0.03,0-0.05-0.02-0.06-0.05c-0.02-0.12,0-0.24,0-0.36c0.02-0.19-0.05-0.37,0.02-0.55
	c0-0.08,0.01-0.16,0.01-0.24C3.72,27.35,3.62,27.09,3.71,26.85"/>
<path class="st0" d="M23.36,18.15c-0.1,0.16-0.11,0.32-0.04,0.49c0.02,0.01,0.03,0.01,0.02,0.02c-0.01,0.01-0.01,0.01-0.02,0.01
	c-0.12-0.05-0.26-0.09-0.26-0.26c0-0.03,0.01-0.07,0.01-0.1c0.08-0.13-0.03-0.29,0.06-0.41l0,0c0.03-0.14,0-0.29,0.11-0.41l0,0
	c0.13-0.25,0.12-0.55,0.29-0.79c0.1-0.14,0.1-0.34,0-0.5c-0.15-0.24-0.21-0.53-0.46-0.71l0,0c-0.06-0.1-0.17-0.19-0.12-0.35
	c0.23,0.1,0.34,0.34,0.57,0.43c0.02,0.01,0.03,0.03,0.05,0.04c0.3,0.27,0.36,0.61,0.21,0.99c-0.07,0.16-0.07,0.33-0.1,0.5
	c-0.03,0.13-0.04,0.27-0.16,0.37c-0.05,0.02-0.04,0.07-0.04,0.11c-0.06,0.17-0.03,0.36-0.1,0.52
	C23.38,18.12,23.37,18.14,23.36,18.15"/>
<path class="st0" d="M4.07,26.17c-0.13-0.3-0.02-0.61,0-0.9c0.01-0.17-0.05-0.21-0.12-0.31c-0.09,0.15,0.03,0.3-0.07,0.5
	c-0.01-0.21-0.02-0.35-0.02-0.5c-0.03-0.11-0.01-0.23-0.01-0.34c0.04-0.14,0.06-0.29,0.05-0.43c0-0.18,0-0.36-0.01-0.54
	c0.05-0.14,0.07-0.29,0.06-0.44c0.02-0.12-0.03-0.24,0.03-0.36c0.02-0.05,0.05-0.1,0.07-0.15c-0.04,0.27,0.07,0.54,0.01,0.82
	c0.19-0.07,0.2-0.21,0.12-0.35c-0.06-0.1-0.05-0.15,0.01-0.25c0.12-0.17,0.07-0.36-0.01-0.53c-0.02-0.04-0.03-0.04,0.14-0.17
	c0.01,0.12,0.01,0.23,0.02,0.33c0.04,0.11,0,0.23,0.02,0.34c-0.03,0.14-0.07,0.28-0.06,0.42c0,0.1,0,0.2,0,0.3
	c-0.03,0.14-0.06,0.28-0.05,0.43c0.03,0.12,0,0.24-0.01,0.35c-0.01,0.18-0.06,0.36-0.05,0.54c0.01,0.15,0.01,0.31-0.02,0.46
	c0,0.04-0.01,0.09-0.01,0.13c-0.06,0.14,0.02,0.3-0.05,0.44l0,0C4.07,26.02,4.14,26.11,4.07,26.17"/>
<path class="st0" d="M21.67,17.06c0.18,0.09,0.33,0.35,0.57,0.1c0.1-0.1,0.15-0.05,0.12,0.06c-0.05,0.18-0.18,0.27-0.37,0.26
	c-0.16-0.01-0.33-0.01-0.48,0.05c-0.45,0.12-0.86,0.05-1.23-0.25c-0.02-0.02-0.05-0.02-0.07-0.04c-0.07-0.09-0.26-0.18-0.17-0.3
	c0.08-0.1,0.18,0.07,0.26,0.13c0.19,0.14,0.39,0.25,0.61,0.34c0.32,0.12,0.58-0.01,0.72-0.35C21.63,17.04,21.65,17.04,21.67,17.06"
	/>
<path class="st0" d="M14.7,23.21c0,0.04-0.01,0.09-0.01,0.13c-0.01,0.03,0-0.01-0.01,0.02c-0.04,0.1-0.02,0.28-0.18,0.26
	c-0.14-0.02-0.09-0.17-0.11-0.28c-0.01-0.1-0.01-0.2-0.06-0.3c0-0.02-0.01-0.03-0.01-0.05c-0.04-0.06-0.05-0.12-0.03-0.18
	c0.01-0.02,0.02-0.05,0.04-0.07c0.11-0.09,0.17-0.21,0.22-0.33c0.1-0.23,0.24-0.27,0.46-0.14c0.02,0.02,0.03,0.04,0.04,0.07
	c0.02,0.08,0.01,0.15-0.01,0.23c-0.06,0.11-0.13,0.21-0.22,0.31C14.69,22.95,14.74,23.1,14.7,23.21"/>
<path class="st0" d="M21.62,16.44c-0.15-0.1-0.3-0.08-0.43,0.04c-0.1,0.09-0.2,0.09-0.31,0.03c-0.12-0.07-0.17-0.19-0.18-0.33
	c0-0.06,0.05-0.17,0.11-0.15c0.2,0.09,0.42,0,0.62,0.13c0.15,0.1,0.34,0.21,0.49-0.04c0.06-0.1,0.19-0.05,0.29-0.04
	c0.05,0.01,0.04,0.09,0.03,0.14c-0.02,0.12-0.11,0.12-0.2,0.12c-0.11,0-0.22,0.03-0.33,0.06C21.69,16.42,21.67,16.47,21.62,16.44"/>
<path class="st0" d="M22.33,14.78c0,0.07,0,0.14,0.01,0.21c0.02,0.01,0.02,0.02,0.02,0.03c0,0.01-0.01,0.02-0.01,0.02
	c0.04,0.17,0.19,0.26,0.25,0.42c0,0.14-0.01,0.27-0.13,0.38c0.02-0.31-0.19-0.56-0.22-0.86C22.31,14.93,22.26,14.83,22.33,14.78"/>
<path class="st0" d="M21.82,15.46c0.02-0.02,0.04-0.04,0.06-0.06c0.05,0.06,0.1,0.1,0.19,0.11c0.08,0,0.07,0.08,0.06,0.14
	c0,0.05-0.01,0.11-0.07,0.12c-0.06,0.01-0.08-0.05-0.1-0.1C21.91,15.6,21.86,15.53,21.82,15.46"/>
<path class="st0" d="M21.62,16.44c0.03-0.02,0.07-0.03,0.1-0.05c-0.02,0.22-0.03,0.45-0.05,0.67l-0.05,0
	C21.55,16.86,21.72,16.65,21.62,16.44"/>
<path class="st0" d="M15.17,20.61c0.16-0.17,0.34-0.32,0.46-0.52c0.16-0.22,0.32-0.45,0.48-0.67c0.39-0.39,0.47-0.89,0.24-1.37
	c-0.06-0.11-0.15-0.24-0.07-0.36c0.21-0.32,0.18-0.67,0.17-1.02c-0.01-0.2,0.04-0.37,0.17-0.53c0.03-0.03,0.06-0.03,0.09,0
	c0.02,0.46,0.06,0.93,0.05,1.39c-0.01,0.34,0.04,0.69-0.02,1.01c-0.11,0.56-0.13,1.17-0.53,1.65c-0.07,0.08-0.17,0.12-0.22,0.2
	c-0.28,0.23-0.56,0.45-0.84,0.68c-0.11,0.12-0.15,0.26-0.16,0.43c-0.21-0.31-0.2-0.51,0.04-0.73
	C15.08,20.72,15.12,20.66,15.17,20.61"/>
<path class="st0" d="M20.67,26.31c-0.21-0.08-0.52-0.61-0.48-0.82c0.02-0.14,0.14-0.12,0.22-0.13c0.09-0.01,0.15,0.07,0.11,0.15
	c-0.07,0.17,0.01,0.3,0.1,0.42C20.7,26.06,20.72,26.18,20.67,26.31"/>
<path class="st0" d="M19.74,25.91c-0.07-0.16-0.09-0.33-0.05-0.51c0.02-0.07,0.01-0.17,0.14-0.13c0.1,0.03,0.17,0.1,0.13,0.19
	c-0.11,0.21,0.03,0.34,0.13,0.48c0.05,0.07,0.14,0.16,0.05,0.23c-0.08,0.06-0.17,0-0.24-0.09C19.86,26.02,19.79,25.97,19.74,25.91
	L19.74,25.91z"/>
<path class="st0" d="M14.69,24.19c-0.05,0.11-0.15,0.12-0.25,0.1c-0.03-0.15-0.08-0.28-0.17-0.4c-0.02-0.05,0-0.07,0.05-0.06
	C14.45,23.95,14.61,24.02,14.69,24.19"/>
<path class="st0" d="M46.37,21.46c-0.16,0.53-0.45,1.39-0.65,1.78c-0.34,0.09-1.31,0.31-2.16,0.31c-2.9,0-4.18-2.02-4.18-3.85
	c0-2.46,1.9-4.08,4.51-4.08c0.95,0,1.74,0.26,2.06,0.31c0.1,0.67,0.17,1.14,0.24,1.75l-0.33,0.07c-0.31-1.21-0.98-1.72-2.3-1.72
	c-2,0-3.06,1.65-3.06,3.43c0,2.19,1.31,3.69,3.13,3.69c1.22,0,1.83-0.65,2.43-1.82L46.37,21.46z"/>
<path class="st0" d="M51.85,15.62c1.96,0,3.77,1.54,3.77,3.87c0,2.52-1.78,4.07-3.91,4.07c-2.09,0-3.8-1.64-3.8-3.87
	c0-2.12,1.49-4.07,3.92-4.07H51.85z M49.03,19.34c0,2.2,1.25,3.81,2.93,3.81c1.32,0,2.55-1.09,2.55-3.34c0-2.49-1.35-3.78-2.92-3.78
	C50.28,16.03,49.03,17.13,49.03,19.34"/>
<path class="st0" d="M65.11,16.12c-0.65,0.03-0.94,0.18-0.99,0.68c-0.05,0.37-0.06,0.9-0.06,1.98v4.71h-0.33l-5.02-6.14h-0.03v2.96
	c0,1.08,0.04,1.65,0.07,1.99c0.06,0.61,0.34,0.74,1.12,0.78v0.31h-2.76v-0.31c0.67-0.05,0.97-0.17,1.04-0.77
	c0.05-0.36,0.06-0.92,0.06-2.01v-2.57c0-0.88-0.01-0.89-0.23-1.18c-0.24-0.28-0.48-0.38-1.05-0.43v-0.31h1.68l4.95,5.94h0.03v-2.97
	c0-1.08-0.03-1.61-0.07-1.93c-0.07-0.54-0.36-0.68-1.15-0.72v-0.31h2.74V16.12z"/>
<path class="st0" d="M74.08,20.19c-0.71,0.12-0.77,0.17-0.77,0.84v1.01c0,0.4,0.02,0.78,0.1,1.09c-0.72,0.17-1.69,0.43-2.63,0.43
	c-2.56,0-4.28-1.59-4.28-3.91c0-2.72,2.19-4.03,4.47-4.03c0.98,0,1.87,0.26,2.24,0.34c0.03,0.41,0.1,1.07,0.19,1.81l-0.31,0.07
	c-0.29-1.45-1.17-1.82-2.31-1.82c-1.83,0-3.16,1.34-3.16,3.5c0,1.68,1.01,3.64,3.31,3.64c0.43,0,0.81-0.07,1.07-0.21
	c0.26-0.13,0.4-0.27,0.4-0.77V21.2c0-0.84-0.07-0.91-1.21-1.01v-0.3h2.89V20.19z"/>
<path class="st0" d="M82.33,23.48c-0.16,0-0.3,0-0.44-0.01c-0.78-0.06-1.28-0.3-1.82-1.05c-0.43-0.6-0.85-1.34-1.21-1.89
	c-0.21-0.33-0.39-0.47-1.04-0.47h-0.4v1.88c0,0.99,0.1,1.07,1.05,1.14v0.31h-3.01v-0.31c0.97-0.07,1.07-0.14,1.07-1.14v-4.71
	c0-1.01-0.1-1.04-1.03-1.11v-0.32h2.87c0.84,0,1.39,0.1,1.82,0.39c0.49,0.3,0.78,0.82,0.78,1.52c0,1.01-0.61,1.62-1.49,2.01
	c0.22,0.4,0.71,1.18,1.07,1.69c0.43,0.62,0.65,0.91,0.94,1.22c0.33,0.36,0.61,0.48,0.87,0.55L82.33,23.48z M78.03,19.7
	c0.6,0,0.98-0.1,1.29-0.34c0.46-0.37,0.65-0.82,0.65-1.46c0-1.25-0.85-1.72-1.78-1.72c-0.34,0-0.55,0.05-0.64,0.12
	c-0.1,0.05-0.14,0.18-0.14,0.53v2.89H78.03z"/>
<path class="st0" d="M89.23,21.55c-0.06,0.37-0.3,1.47-0.4,1.84h-5.58v-0.31c1.05-0.09,1.15-0.17,1.15-1.14v-4.65
	c0-1.05-0.1-1.08-1.01-1.16v-0.31h5.18c0.01,0.3,0.06,1.1,0.1,1.68l-0.34,0.04c-0.1-0.49-0.21-0.74-0.36-0.99
	c-0.16-0.27-0.47-0.34-1.33-0.34h-0.95c-0.34,0-0.35,0.03-0.35,0.37v2.68h1.14c1.08,0,1.12-0.11,1.26-0.89h0.33v2.23h-0.33
	c-0.16-0.82-0.23-0.91-1.25-0.91h-1.15v2.23c0,0.54,0.07,0.8,0.27,0.93C85.84,23,86.25,23,86.83,23c0.94,0,1.25-0.1,1.51-0.39
	c0.19-0.23,0.41-0.64,0.57-1.1L89.23,21.55z"/>
<path class="st0" d="M94.58,17.55c-0.2-0.74-0.48-1.55-1.51-1.55c-0.94,0-1.32,0.67-1.32,1.29c0,0.88,0.58,1.31,1.49,1.76
	c0.88,0.45,2.01,0.98,2.01,2.3c0,1.22-1.02,2.19-2.56,2.19c-0.48,0-0.85-0.09-1.14-0.18c-0.3-0.09-0.45-0.17-0.55-0.23
	c-0.1-0.24-0.26-1.25-0.33-1.79l0.34-0.09c0.18,0.73,0.68,1.89,1.9,1.89c0.9,0,1.44-0.57,1.44-1.43c0-0.88-0.67-1.3-1.53-1.76
	c-0.7-0.37-1.92-0.94-1.92-2.28c0-1.11,0.88-2.06,2.37-2.06c0.51,0,0.97,0.13,1.43,0.27c0.06,0.41,0.13,0.85,0.21,1.6L94.58,17.55z"
	/>
<g>
	<path class="st0" d="M87.79,13.73c-0.06,0.06-0.15,0.12-0.26,0.18l-1.74,0.91h-0.46l1.67-1.38c0.06-0.05,0.13-0.1,0.22-0.15
		c0.09-0.05,0.18-0.08,0.28-0.08c0.1,0,0.18,0.03,0.26,0.08c0.08,0.06,0.12,0.13,0.12,0.22C87.88,13.59,87.85,13.67,87.79,13.73z"/>
</g>
</svg>
