<!-- Generator: Adobe Illustrator 23.0.3, SVG Export Plug-In  -->
<svg version="1.1" xmlns="http://www.w3.org/2000/svg" xmlns:xlink="http://www.w3.org/1999/xlink" x="0px" y="0px" width="88.45px"
	 height="43.86px" viewBox="0 0 88.45 43.86" style="enable-background:new 0 0 88.45 43.86;" xml:space="preserve">
<style type="text/css">
	.st0{fill:#A0A0AA;}
</style>
<defs>
</defs>
<path class="st0" d="M12.61,12.53c0,0.58-0.47,1.04-1.05,1.04c-0.58,0-1.05-0.47-1.05-1.04c0-0.57,0.47-1.04,1.05-1.04
	C12.14,11.49,12.61,11.95,12.61,12.53 M9.34,12.53c0,1.21,0.99,2.19,2.22,2.19c1.23,0,2.22-0.98,2.22-2.19
	c0-1.21-0.99-2.19-2.22-2.19C10.34,10.33,9.34,11.31,9.34,12.53"/>
<path class="st0" d="M72.59,9.96c-0.04-0.02-0.07-0.04-0.11-0.06l-0.46,0.45c0.23,0.35,0.52,0.67,0.85,0.94l0.9-1.22
	C73.38,10.14,72.97,10.09,72.59,9.96"/>
<polygon class="st0" points="74.97,16.69 74.96,26.33 77.07,28.42 77.07,14.6 "/>
<path class="st0" d="M53.75,28.65h-2.36v-1.18h2.36V28.65z M50.75,20.06l-2.74,6.3c0.41,0.05,0.8,0.14,1.19,0.26l0.99-2.36v3.16
	c-0.98-0.47-2.08-0.73-3.24-0.73c-1.1,0-2.15,0.24-3.09,0.67l3.1-5.19l-0.17,0l-5.26,6.87l-4.66-6.59c-0.14-0.23-0.23-0.5-0.23-0.78
	c0-0.39,0.15-0.74,0.39-1l2.26-1.66h-0.24c-0.66,0-1.19-0.56-1.19-1.21c0-0.49,0.29-0.91,0.71-1.09c0.36-0.16,0.75-0.25,1.17-0.25
	c0.29,0,0.56,0.04,0.82,0.12l-1.02,0.74h-0.49l0.69,1.17h1.59l-0.7-0.46L42.08,17v-1.84c-0.47-0.26-0.88-0.59-1.21-1l0,1.29
	c-0.35-0.1-0.72-0.15-1.1-0.15c-0.28,0-0.54,0.03-0.81,0.08l2.33-3.77h3.19c0.08,0.33,0.23,0.63,0.43,0.89h-0.72l-1.73,3.12
	l0.85,0.85l-1.64,2.82h-1.25l2.03,1.03l1.69-3.01l0.89,0.89l0.76-1.44h2.01l0.78-1.34l-0.5-0.77l-0.53,0.95h-1.42l-0.53-0.95
	l-0.5,0.95l-0.35,0.63l-0.87-0.86l0.94-1.7h4.05l1.07,1.69l-0.86,1.53l-0.11,0c-0.26,0-0.5,0.08-0.69,0.23l-6.11,4.31h-2.04
	l2.31,1.27l6.15-4.35c0.39-0.28,0.92-0.35,1.4-0.14C50.72,18.49,51.07,19.33,50.75,20.06 M46.46,29.84h-0.5l-0.86-1.73
	c0.55-0.15,1.12-0.24,1.71-0.24c0.14,0,0.36,0,0.49,0.01L46.46,29.84z M38.32,29.84l1.64-1.18l0.82,1.18H38.32z M37.41,26.29V25.2h0
	l0.8,1.09H37.41z M33.85,28.65v-1.18h5.23l0.18,0.26l-1.31,0.92H33.85z M36.21,23.58v2.71h-1.17v-4.28h0.42
	c0.06,0.47,0.23,0.89,0.5,1.25L36.21,23.58z M35.37,18.98h1.92h0.01l-0.76,0.53c-0.48,0.33-0.8,0.8-0.95,1.31h-0.21
	c-0.52,0-0.93-0.41-0.93-0.92C34.44,19.4,34.86,18.98,35.37,18.98 M38.58,7.13v6.67l-1.2,2.04V7.13H38.58z M42.14,10.46h-1.51
	l-0.85,1.38V7.13l1.51,0L42.14,10.46z M46.4,8.67l0.44-1.54h0.97v1.71c-0.3-0.13-0.64-0.21-0.99-0.21
	C46.67,8.63,46.53,8.65,46.4,8.67 M46.82,9.83c0.67,0,1.22,0.54,1.22,1.2c0,0.67-0.55,1.2-1.22,1.2s-1.21-0.54-1.21-1.2
	C45.61,10.36,46.15,9.83,46.82,9.83 M45.33,8.28l-0.34,1.19c-0.25,0.28-0.44,0.62-0.53,1h-1.13l-0.53-2.18H45.33z M42.55,7.13
	L42.4,6.57c0.6,0,1.16-0.15,1.66-0.4c0.5,0.26,1.06,0.4,1.66,0.4l-0.14,0.56H42.55z M49.01,9.99V7.13h1.22v6.52l-0.74-1.16h-0.75
	c0.31-0.4,0.5-0.92,0.5-1.46C49.24,10.65,49.16,10.31,49.01,9.99 M35.75,4.22h16.02l-1.08,1.72h-3.54l0.36-1.38
	c-0.43,0.49-1.07,0.81-1.78,0.81c-0.65,0-1.23-0.26-1.66-0.68c-0.42,0.42-1.01,0.68-1.66,0.68c-0.71,0-1.35-0.32-1.78-0.81
	l0.36,1.38l0.01,0h-4.15L35.75,4.22z M52.56,26.3h-1.17v-4.29h1.17V26.3z M52.03,18.97c0.52-0.03,0.95,0.36,0.98,0.87
	c0.03,0.51-0.37,0.94-0.88,0.97c-0.12,0.01-0.23-0.01-0.34-0.04C52.06,20.24,52.16,19.61,52.03,18.97 M53.75,21.16
	c0.27-0.35,0.44-0.79,0.44-1.26c0-1.16-0.95-2.1-2.12-2.1h-0.68V7.2l2.45-4.15H33.74l2.47,4.15v10.6h-0.84
	c-1.18,0-2.13,0.94-2.13,2.11c0,0.58,0.24,1.11,0.62,1.49v4.89h-1.2v3.54h3.81l0.95,1.18h4.12c0.58-1.03,1.45-1.87,2.49-2.42
	l1.12,2.42h1.97l1.41-2.94c0.6,0.16,1.11,0.38,1.62,0.7c-0.52,0.85-2.12,2-2.12,2l2.52-0.94h4.39V26.3h-1.21V21.16z"/>
<path class="st0" d="M74.71,10.54c-0.2-0.06-0.38-0.15-0.56-0.26l-0.92,1.27c0.38,0.25,0.81,0.44,1.26,0.55L74.71,10.54z"/>
<path class="st0" d="M71.33,22.75l2.07,2.05l0-6.57l-2.08,2.06C71.34,21.1,71.33,22.75,71.33,22.75"/>
<polygon class="st0" points="78.61,14.58 78.61,28.28 80.68,26.22 80.68,16.64 "/>
<path class="st0" d="M81.45,28.35l0.63-0.62l0.63,0.62H81.45z M77.82,30.33l-8.93-8.83l8.92-8.83l8.92,8.83L77.82,30.33z
	 M73.45,29.42l-0.84-0.82c0.13-0.13,0.35-0.27,0.51-0.31c0.42-0.11,0.9-0.01,1.18,0.3L73.45,29.42z M71.54,27.92l0-2.07l1.26,1.25
	c-0.25,0.1-0.48,0.2-0.7,0.34C71.88,27.58,71.71,27.75,71.54,27.92 M69.32,25.24v-1.67l1.07,1.05L69.32,25.24z M68.17,11.06
	c0,0,2.18,3.49,2.45,3.95c-0.03,0.1-0.14,0.17-0.2,0.26c-0.38,0.48-0.51,1.22-0.28,1.82c0.12,0.3,0.32,0.58,0.56,0.81l-1.4,1.37
	l0.01-4.91l-1.12,0.65L68.17,11.06z M72.9,15.76L71.64,17c-0.21-0.09-0.26-0.22-0.33-0.36c-0.07-0.24-0.01-0.49,0.14-0.67
	c0.17-0.21,0.43-0.25,0.69-0.24L72.9,15.76z M67.11,6.91l0.11-0.56l0.57,0.17l4.95,7.99l-0.93,0L67.11,6.91z M71.2,7.9
	c0.15,0.18,0.23,0.26,0.35,0.66c0,0.03-0.65,0.63-0.65,0.63L69.79,7.4C70.38,7.37,70.86,7.54,71.2,7.9 M72.39,9.47
	c0.09,0.01,0.17,0.08,0.25,0.11c0.4,0.13,0.86,0.18,1.28,0.09c0.08,0,0.18-0.08,0.23-0.01c0.23,0.19,0.49,0.36,0.77,0.45l0.03,2.7
	h0.93l-1.71,1.68l-2.6-4.22C71.56,10.27,72.39,9.47,72.39,9.47 M73.24,6.29c0.56-0.35,1.1-0.86,1.23-1.54
	c0.04-0.19,0.04-0.25,0.09-0.38c0.22-0.67,0.85-1.15,1.57-1.19c0.71-0.02,1.38,0.38,1.64,1.01c0.04,0.12,0.06,0.14,0.08,0.21
	c0.05,0.15,0.08,0.32,0.06,0.49L76.61,3.6l-2.78,2.74l0,2.04c-0.15,0.11-0.32,0.09-0.5,0.1c-0.35-0.01-0.61-0.29-0.73-0.59
	C72.43,7.24,72.75,6.66,73.24,6.29 M78.33,6.96c0,0,0.05,0.07,0.1,0.1c0.08,0.11,0.16,0.23,0.2,0.36c0.07,0.29-0.02,0.6-0.21,0.81
	c-0.23,0.22-0.56,0.36-0.89,0.25c-0.07-0.02-0.15-0.05-0.15-0.05l0.01-0.54L78.33,6.96z M75.74,7.87l0.41,0.43c0,0-0.01,0.3,0,0.46
	c-0.19,0.18-0.46,0.24-0.73,0.2c-0.13-0.03-0.26-0.08-0.37-0.16l-0.01-1.94l1.54-1.52l0.83,0.83l-0.98,0.97l-0.68-0.66L75.74,7.87z
	 M79.93,10.66c0.41,0,0.79,0.25,0.96,0.6c0.14,0.23,0.11,0.54-0.03,0.76c-0.23,0.38-0.68,0.59-1.14,0.52
	c-0.23-0.04-0.47-0.14-0.62-0.34l-1.28-1.26l-0.64,0.64l-0.99,0l0-0.84c0,0,0.76-0.59,1.27-0.48c0.34,0.05,0.62,0.24,0.95,0.31
	C78.89,10.7,79.41,10.73,79.93,10.66 M78.95,9.36c0.4-0.3,0.69-0.73,0.87-1.19c0.33-0.57,1.03-0.87,1.73-0.75
	c0.52,0.08,0.96,0.39,1.25,0.9c0.18,0.31,0.19,0.57,0.19,0.9l-0.01,1.32l-0.02,3.37l-1.18-0.67v1.61l-1.17-1.17
	c0.3-0.13,0.6-0.24,0.92-0.56c0.38-0.38,0.7-0.98,0.7-1.4c0-0.29-0.07-0.53-0.07-0.53c-0.2-0.88-0.99-1.6-1.9-1.73
	c-0.34-0.05-0.67-0.01-0.99,0.01c-0.1-0.01-0.2-0.02-0.3-0.04C78.95,9.42,78.85,9.46,78.95,9.36 M88.45,21.45l-5.44-5.37v-0.72
	c0,0,0.75,0.42,1.17,0.66l0.01-6.9C84.2,8.71,84.12,8.35,83.98,8c-0.26-0.66-0.84-1.22-1.48-1.54c-0.92-0.44-2.13-0.33-2.96,0.23
	c-0.34-0.43-0.41-0.97-0.39-1.59c0.02-0.67-0.07-1.1-0.32-1.54c-0.35-0.72-1.06-1.26-1.82-1.48c-1.13-0.31-2.31,0.05-3.06,0.92
	c-0.4,0.44-0.57,0.98-0.71,1.55c-0.16,0.49-0.62,0.72-0.99,1c-0.36,0.25-0.59,0.64-0.8,1.01c-0.66-0.37-1.56-0.49-2.33-0.27
	l-0.57-0.84c-0.74-0.18-1.48-0.36-2.24-0.5l-0.55,2.17l1.2,1.97l-0.01,8.02l1.13-0.65l-0.01,4.13l-0.89,0.88l0.9,0.9l-0.01,3.47
	l0.97,0.97l1.24-0.67l0,3.36l1.45,0l1.7,1.67l1.75-1.75l2.62,2.59l2.53-2.47l2.93,0l1.19-1.19l-1.48-1.47L88.45,21.45z"/>
<polygon class="st0" points="82.26,18.19 82.26,24.66 84.3,22.64 84.3,20.21 "/>
<path class="st0" d="M40.47,26.67l1.12,1.58l0.35-0.43l-0.97-1.37C40.8,26.51,40.63,26.58,40.47,26.67"/>
<path class="st0" d="M41.53,12.07l-0.17,0.31c0.12,0.33,0.29,0.64,0.51,0.91l0.93-1.21H41.53z"/>
<path class="st0" d="M46.95,26.29c0.19,0,0.38,0.01,0.56,0.02l0.63-1.48c-0.39-0.05-0.79-0.07-1.19-0.07V26.29z"/>
<path class="st0" d="M18.66,28.02v1.52h-1.17v-1.15h-4.2v1.15h-1.17v-1.15h-1.51c0.19-0.52,0.29-1.08,0.29-1.67h0.98l-0.92-1.16
	H9.53c-0.23-0.66-0.64-1.27-1.24-1.74c-0.07-0.05-0.13-0.1-0.2-0.14c0.16-0.82,0.09-1.62-0.16-2.37h3.11l0.01,2.43l2.07,2.66
	l-0.44,0.31h2.16l-1.85-2.28l0.24-0.17l2.36,1.46l0.82-0.61l-0.54-2.53l1.66,1.93c-0.18,0.12-0.29,0.32-0.29,0.54
	c0,0.25,0.14,0.47,0.35,0.58l-0.72,1.07h1.39l1.48-2.2v-1.33h1.8c-0.39,0.99-0.38,2.12,0.11,3.16L18.66,28.02z M5.64,26.74
	c0-0.19,0.16-0.35,0.36-0.35c0.2,0,0.36,0.16,0.36,0.35s-0.16,0.35-0.36,0.35C5.8,27.09,5.64,26.93,5.64,26.74 M8.94,29.02
	c-1.27,1.61-3.62,1.9-5.25,0.64c-1.63-1.26-1.92-3.58-0.64-5.19l1.88,1.17c-0.1,0.1-0.2,0.21-0.27,0.34
	c-0.43,0.73-0.17,1.67,0.57,2.09c0.74,0.42,1.68,0.17,2.11-0.56c0.43-0.73,0.17-1.67-0.57-2.09l-3.05-1.86
	C2.84,23,2.28,21.98,2.35,20.88c0.09,0.69,0.5,1.28,1.05,1.61c0.53,0.31,0.84,0.46,1.4,0.69c0.77,0.32,1.24,0.45,2.06,0.62
	c-0.05,0.17-0.11,0.32-0.19,0.48c1.13,0.31,1.87,1.32,1.88,2.43h1.17C9.74,27.53,9.48,28.33,8.94,29.02 M1.85,24.14L1.57,23.8
	l0.35-0.51c0.09,0.12,0.19,0.24,0.3,0.36C2.08,23.81,1.96,23.97,1.85,24.14 M1.25,18.88c-0.42-2.11,0.96-4.16,3.09-4.58l1.04,0.81
	c0.35,1.11,1.4,1.84,2.53,1.78l1.44,1.71l-0.58,0.04l-1.2,1.51H5.81C6.55,20.82,6.95,21.7,7,22.62c-0.84-0.13-1.31-0.29-2.07-0.65
	c-0.46-0.21-0.7-0.35-1.12-0.64c-0.23-0.19-0.32-0.52-0.21-0.81c0.08-0.21,0.23-0.36,0.42-0.43l0.61,1.09l0.76-2.93H2.31l0.86,0.77
	c-0.59,0.16-1.12,0.51-1.49,1.04C1.48,19.7,1.33,19.31,1.25,18.88 M2.63,11.44v-0.43l1.14-0.83l1.42,0.89l-1.38,1.32L2.63,11.44z
	 M1.81,7.87l0.54-0.44l1.16,1.43L2.97,9.31L1.81,7.87z M7.75,15.02l-0.43,0.66c-0.49-0.19-0.85-0.65-0.86-1.21l-1.77-1.4l1.46-1.44
	l0.9,1.52C7.14,13.83,7.38,14.47,7.75,15.02 M6.16,8.41c0.51-0.38,1.24-0.28,1.63,0.23c0.39,0.51,0.29,1.23-0.23,1.62
	c-0.07,0.05-0.14,0.1-0.22,0.13L6.72,10.7L4.76,9.45L6.16,8.41z M7.49,3.67c-0.18-0.1-0.38-0.16-0.6-0.16
	c-0.65,0-1.17,0.52-1.17,1.16c0,0.45,0.42,0.82,0.94,0.82c0.27,0,0.51-0.1,0.68-0.26C7.12,5.66,6.68,5.97,6.16,5.97
	c-0.72,0-1.31-0.59-1.31-1.3C4.86,3.5,5.82,2.55,7,2.55c0.46,0,0.89,0.14,1.24,0.39C7.95,3.14,7.69,3.39,7.49,3.67 M10.44,3.75
	c0.34,0.14,0.61,0.39,0.79,0.68L8.3,4.63C8.65,3.8,9.6,3.41,10.44,3.75 M11.62,6.26l-3.05,0L8.42,5.78l3.2-0.24V6.26z M8.94,7.41
	h2.01l-0.16,0.68C10.29,8.18,9.77,8.35,9.32,8.6L8.94,7.41z M14.95,12.53c0,1.85-1.52,3.35-3.39,3.35c-1.87,0-3.39-1.5-3.39-3.35
	c0-1.85,1.51-3.35,3.39-3.35C13.43,9.17,14.95,10.67,14.95,12.53 M18.22,6.86l0.84-0.88l0.52,2.39l-0.82,0.14l1.15,1.26l0.58,2.61
	l-0.77,0.22c-0.35-0.77-0.98-1.43-1.8-1.83c-0.48-0.21-0.72-0.74-0.57-1.23l-1.21,0.38c0.04,0.87,0.6,1.66,1.47,1.97l-0.29,0.96
	c0,0-0.56-0.07-0.85-0.25c-0.15-0.1-0.35-0.3-0.35-0.3c-0.06-1.21-0.6-2.39-1.61-3.22C15.21,7.76,16.61,6.86,18.22,6.86
	 M15.52,14.76c0.21-0.36,0.33-0.72,0.43-1.11l1.1,0.32l-0.28,0.96L15.52,14.76z M19.74,16.5l0.76,1.83l-0.97,1.67l-0.95-0.69
	l1.01-0.82l-0.52-1.3l-4.97,0.75l0.94-2.52c0.09-0.11,0.18-0.22,0.26-0.33l0.62,0.93L19.74,16.5z M12.8,19.36l-1.3-1.57l0.07-0.76
	c0.6,0,1.21-0.12,1.77-0.36l-0.65,1.8l1.46,1.02L12.8,19.36z M10.54,20.16H9.05l0.41-0.49l0.66-0.01L10.54,20.16z M12.82,23.05
	l-0.45,0.39l-0.2-0.31v-0.94L12.82,23.05z M14.82,23.31l0.27,0.88l-0.84-0.53l-2.03-2.65l0.01-0.85h-0.7l-3.13-3.88l0.18-0.35
	c0.25,0.21,0.52,0.4,0.8,0.55L14.82,23.31z M24.12,22.03h-5.55v1.95l-2.43-2.88l-1.34,0.82l-1.01-1.29l1.31,0.08l0.62-1.51
	l-0.44-0.31l2.53-0.35l-1.07,0.9l3.19,2.26l1.88-3.26l-1.24-3.02l-2.58-0.33l0.56-2.24c0.28,0.34,0.46,0.72,0.56,1.12l2.71-0.8
	l-1.94-8.71H18.9l-1.15,1.27c-1.85,0.16-3.4,1.23-4.24,2.73c-0.5-0.24-1.02-0.38-1.56-0.42l0.15-0.62h0.68V4.3h-0.34
	c-0.43-1.16-1.6-1.93-2.89-1.81c-0.62-0.7-1.52-1.14-2.54-1.14c-1.86,0-3.36,1.49-3.36,3.32c0,1.33,1.09,2.4,2.43,2.4
	c0.53,0,1.01-0.17,1.41-0.45l0.16,0.54C6.95,6.9,6.13,6.99,5.48,7.46L4.17,8.43L2.52,6.33l-1.8,1.4l1.62,2.06l-0.88,0.63v1.59
	l1.77,1.4c-2.62,1.02-3.91,3.95-2.88,6.55c0.22,0.54,0.52,1.03,0.89,1.45v0.08c0,0.23,0.03,0.45,0.09,0.67l-1.15,1.7l1.12,1.45
	c-0.14,0.44-0.21,0.92-0.21,1.4c0,2.68,2.19,4.85,4.9,4.85c1.64,0,3.1-0.8,3.99-2.03l0.94,0l-0.73,1.15h1.61l0.88,0.89l0.88-0.89
	h1.5l-0.64-1.16h1.85l-0.65,1.16h1.58l0.88,0.89l0.88-0.89h1.5l-0.62-1.16v-0.82l3.48-2c-1.15-1.12-1.18-2.94-0.05-4.08
	C23.52,22.38,23.81,22.17,24.12,22.03"/>
<path class="st0" d="M42.79,14.03l0.73-1.24c-0.17-0.08-0.32-0.19-0.44-0.32l-0.9,1.15C42.37,13.78,42.57,13.91,42.79,14.03"/>
<path class="st0" d="M44.9,26.56c0.49-0.13,1.07-0.24,1.59-0.27v-1.53c-0.15,0.01-0.38,0.03-0.53,0.05L44.9,26.56z"/>
<path class="st0" d="M41.46,26.28l0.77,1.19l0.99-1.35c-0.14-0.01-0.28-0.02-0.43-0.02C42.33,26.1,41.89,26.16,41.46,26.28"/>
<rect x="27.62" class="st0" width="0.41" height="32.29"/>
<rect x="59.69" class="st0" width="0.41" height="32.29"/>
<path class="st0" d="M4.43,39.24c-0.39-0.15-0.82-0.25-1.24-0.25c-1.53,0-2.9,1.01-2.9,2.6c0,1.5,1.02,2.25,2.46,2.25
	c0.56,0,1.21-0.12,1.73-0.37c0.04-0.48,0.06-0.63,0.06-0.69c0-0.04-0.03-0.08-0.1-0.08c-0.09,0-0.09,0.06-0.11,0.13
	c-0.09,0.49-0.95,0.71-1.36,0.71c-1.16,0-1.8-1.01-1.8-2.09c0-1.19,0.74-2.17,1.95-2.17c0.45,0,0.98,0.22,1.03,0.42
	c0.04,0.14,0.04,0.18,0.11,0.18C4.36,39.89,4.38,39.88,4.43,39.24"/>
<path class="st0" d="M8.52,43.83c1.49,0,2.49-1.11,2.49-2.54c0-1.4-0.93-2.3-2.34-2.3c-1.49,0-2.49,1.11-2.49,2.54
	C6.17,42.93,7.1,43.83,8.52,43.83 M8.73,43.57c-0.67,0-1.71-0.58-1.71-2.43c0-1.84,1.21-1.89,1.43-1.89c0.67,0,1.71,0.57,1.71,2.43
	C10.16,43.52,8.95,43.57,8.73,43.57"/>
<path class="st0" d="M13.85,39.5c0-0.07,0.02-0.1,0.09-0.1h0.32c0.23,0,0.95,0.23,0.95,1.07c0,0.65-0.52,0.9-1.11,0.9h-0.26V39.5z
	 M14.45,43.7v-0.24h-0.33c-0.23,0-0.27-0.03-0.27-0.98v-0.87h0.45c0.52,1,1.06,1.85,1.27,2.02c0.07,0.06,0.2,0.06,0.36,0.06h0.83
	v-0.24c-0.29,0-0.34-0.06-0.53-0.27c-0.31-0.34-0.55-0.73-1.21-1.72c0.6-0.09,1.04-0.48,1.04-1.11c0-0.59-0.49-1.24-1.53-1.24H12.4
	v0.24h0.33c0.23,0,0.28,0.03,0.28,0.98v3c0,0.07-0.01,0.11-0.11,0.11h-0.33v0.24H14.45z"/>
<path class="st0" d="M20.81,43.46h-0.49c-0.23,0-0.28-0.03-0.28-0.98V39.4h0.14c0.33,0,1.13,0.01,1.31,0.38
	c0.04,0.09,0.07,0.14,0.14,0.14c0.05,0,0.09-0.03,0.09-0.09c0-0.03-0.06-0.17-0.23-0.71h-3.75c-0.17,0.53-0.23,0.68-0.23,0.71
	c0,0.06,0.04,0.09,0.09,0.09c0.07,0,0.1-0.05,0.14-0.14c0.18-0.36,0.97-0.38,1.31-0.38h0.14v3.94c0,0.07-0.01,0.12-0.11,0.12h-0.54
	v0.24h2.26V43.46z"/>
<path class="st0" d="M25.8,42.63c0,0.61-0.57,0.91-1.13,0.91c-0.37,0-0.99-0.17-1.13-0.57c-0.02-0.07-0.04-0.14-0.12-0.14
	c-0.11,0-0.11,0.08-0.11,0.12c0,0.09,0.05,0.27,0.12,0.68c0.38,0.14,0.79,0.21,1.19,0.21c1.63,0,1.84-1.2,1.84-1.44
	c0-1.74-2.37-1.2-2.37-2.34c0-0.52,0.5-0.77,0.97-0.77c0.26,0,0.76,0.1,0.83,0.41c0.02,0.06,0.03,0.12,0.1,0.12
	c0.05,0,0.1-0.02,0.1-0.1c0-0.11-0.03-0.4-0.04-0.59c-0.28-0.11-0.6-0.14-0.89-0.14c-0.82,0-1.73,0.45-1.73,1.33
	C23.43,41.96,25.8,41.41,25.8,42.63"/>
<path class="st0" d="M35.29,39.12H33.9v0.24h0.39c0.11,0,0.17,0.01,0.17,0.11c0,0.19-0.23,0.8-0.32,1.01l-0.87,2.05l-1.05-2.46
	c-0.15-0.35-0.28-0.62-0.28-0.66c0-0.05,0.04-0.05,0.12-0.05h0.31v-0.24h-1.8v0.24h0.23c0.18,0,0.25,0.09,0.58,0.86l1.52,3.56
	c0.02,0.05,0.04,0.08,0.09,0.08c0.05,0,0.07-0.04,0.11-0.12l1.73-4.2c0.07-0.18,0.08-0.18,0.12-0.18h0.33V39.12z"/>
<path class="st0" d="M38.59,42.04l0.44,1.25c0.05,0.14,0.03,0.17-0.11,0.17h-0.33v0.24h1.83v-0.24h-0.18c-0.25,0-0.3-0.09-0.52-0.68
	c-0.4-1.09-1.22-3.2-1.22-3.46c0-0.15,0.15-0.16,0.15-0.24c0-0.04-0.02-0.09-0.07-0.09c-0.11,0-0.46,0.09-0.58,0.12
	c-0.74,1.73-1.5,3.43-1.8,4.22c-0.04,0.1-0.08,0.13-0.19,0.13h-0.23v0.24h1.47v-0.24h-0.41c-0.12,0-0.2-0.02-0.2-0.16
	c0-0.22,0.26-0.86,0.41-1.26H38.59z M38.47,41.76h-1.32c0.23-0.57,0.45-1.14,0.72-1.71L38.47,41.76z"/>
<path class="st0" d="M43.09,39.48c-0.01-0.07,0.01-0.11,0.1-0.11h0.33v-0.24h-1.88v0.24h0.33c0.23,0,0.28,0.03,0.28,0.98v3
	c0,0.07-0.01,0.12-0.11,0.12h-0.33v0.24h3.42c0.15-0.51,0.19-0.62,0.19-0.68c0-0.05-0.03-0.09-0.08-0.09
	c-0.07,0-0.08,0.04-0.11,0.09c-0.23,0.4-1.21,0.4-1.61,0.4h-0.26c-0.25,0-0.28-0.02-0.28-1.56V39.48z"/>
<path class="st0" d="M46.85,43.7h3.42c0.15-0.51,0.19-0.62,0.19-0.68c0-0.05-0.03-0.09-0.08-0.09c-0.07,0-0.08,0.04-0.11,0.1
	c-0.22,0.4-1.21,0.4-1.61,0.4h-0.25c-0.25,0-0.28-0.02-0.28-1.56v-0.53h0.67c0.77,0,0.8,0.08,0.8,0.2v0.26h0.22v-1.27h-0.22v0.25
	c0,0.21-0.03,0.3-0.8,0.3h-0.67V39.5c0-0.07,0.02-0.1,0.09-0.1h0.52c0.83,0,1.21,0.17,1.22,0.3c0.01,0.1,0.02,0.16,0.12,0.16
	c0.07,0,0.08-0.05,0.16-0.73h-3.56v0.24h0.33c0.23,0,0.28,0.03,0.28,0.98v3c0,0.07-0.02,0.11-0.11,0.11h-0.33V43.7z"/>
<path class="st0" d="M53.22,39.12h-1.26v0.24h0.21c0.28,0,0.44,0.32,0.44,0.73v3.28c0,0.09-0.04,0.09-0.23,0.09h-0.2v0.24h1.36
	v-0.24h-0.29c-0.2,0-0.25-0.02-0.28-0.24c-0.05-0.34-0.05-0.86-0.05-1.26v-1.99l3.22,3.61c0.12,0.13,0.16,0.19,0.22,0.19
	c0.05,0,0.07-0.04,0.07-0.09v-4.23c0-0.09,0.04-0.09,0.23-0.09h0.2v-0.24H55.5v0.24h0.29c0.2,0,0.25,0.01,0.28,0.24
	c0.05,0.35,0.05,0.86,0.05,1.26v1.53L53.22,39.12z"/>
<path class="st0" d="M62.56,39.24c-0.39-0.15-0.82-0.25-1.24-0.25c-1.53,0-2.9,1.01-2.9,2.6c0,1.5,1.02,2.25,2.47,2.25
	c0.56,0,1.21-0.12,1.72-0.37c0.04-0.48,0.06-0.63,0.06-0.69c0-0.04-0.03-0.08-0.1-0.08c-0.09,0-0.09,0.06-0.11,0.13
	c-0.09,0.49-0.95,0.71-1.36,0.71c-1.16,0-1.8-1.01-1.8-2.09c0-1.19,0.73-2.17,1.95-2.17c0.44,0,0.98,0.22,1.03,0.42
	c0.04,0.14,0.04,0.18,0.11,0.18C62.5,39.89,62.51,39.88,62.56,39.24"/>
<path class="st0" d="M65.72,39.48c0-0.07,0.02-0.11,0.11-0.11h0.33v-0.24h-1.89v0.24h0.33c0.23,0,0.28,0.03,0.28,0.98v3
	c0,0.07-0.01,0.12-0.11,0.12h-0.33v0.24h1.89v-0.24H66c-0.23,0-0.28-0.03-0.28-0.98V39.48z"/>
<path class="st0" d="M70.36,42.04l0.44,1.25c0.05,0.14,0.03,0.17-0.11,0.17h-0.33v0.24h1.83v-0.24h-0.17
	c-0.25,0-0.31-0.09-0.53-0.68c-0.4-1.09-1.21-3.2-1.21-3.46c0-0.15,0.14-0.16,0.14-0.24c0-0.04-0.02-0.09-0.07-0.09
	c-0.11,0-0.46,0.09-0.58,0.12c-0.74,1.73-1.5,3.43-1.81,4.22c-0.04,0.1-0.08,0.13-0.19,0.13h-0.23v0.24h1.48v-0.24h-0.42
	c-0.12,0-0.2-0.02-0.2-0.16c0-0.22,0.26-0.86,0.41-1.26H70.36z M70.24,41.76h-1.32c0.22-0.57,0.45-1.14,0.72-1.71L70.24,41.76z"/>
<path class="st0" d="M74.78,39.12h-1.26v0.24h0.21c0.28,0,0.44,0.32,0.44,0.73v3.28c0,0.09-0.04,0.09-0.23,0.09h-0.2v0.24h1.36
	v-0.24h-0.29c-0.2,0-0.25-0.02-0.28-0.24c-0.05-0.34-0.05-0.86-0.05-1.26v-1.99l3.22,3.61c0.12,0.13,0.16,0.19,0.22,0.19
	c0.05,0,0.07-0.04,0.07-0.09v-4.23c0-0.09,0.04-0.09,0.23-0.09h0.2v-0.24h-1.36v0.24h0.29c0.2,0,0.24,0.01,0.28,0.24
	c0.05,0.35,0.05,0.86,0.05,1.26v1.53L74.78,39.12z"/>
<path class="st0" d="M80.01,43.7h3.42c0.15-0.51,0.19-0.62,0.19-0.68c0-0.05-0.03-0.09-0.08-0.09c-0.07,0-0.08,0.04-0.11,0.1
	c-0.23,0.4-1.21,0.4-1.61,0.4h-0.25c-0.25,0-0.28-0.02-0.28-1.56v-0.53h0.67c0.77,0,0.8,0.08,0.8,0.2v0.26h0.22v-1.27h-0.22v0.25
	c0,0.21-0.03,0.3-0.8,0.3h-0.67V39.5c0-0.07,0.02-0.1,0.09-0.1h0.52c0.83,0,1.22,0.17,1.23,0.3c0.01,0.1,0.02,0.16,0.11,0.16
	c0.07,0,0.08-0.05,0.16-0.73h-3.57v0.24h0.33c0.23,0,0.28,0.03,0.28,0.98v3c0,0.07-0.02,0.11-0.11,0.11h-0.33V43.7z"/>
<path class="st0" d="M87.78,42.63c0,0.61-0.58,0.91-1.14,0.91c-0.37,0-0.99-0.17-1.13-0.57c-0.02-0.07-0.04-0.14-0.12-0.14
	c-0.11,0-0.11,0.08-0.11,0.12c0,0.09,0.05,0.27,0.12,0.68c0.38,0.14,0.79,0.21,1.19,0.21c1.63,0,1.84-1.2,1.84-1.44
	c0-1.74-2.37-1.2-2.37-2.34c0-0.52,0.5-0.77,0.97-0.77c0.26,0,0.76,0.1,0.83,0.41c0.01,0.06,0.03,0.12,0.1,0.12
	c0.05,0,0.1-0.02,0.1-0.1c0-0.11-0.03-0.4-0.04-0.59c-0.28-0.11-0.6-0.14-0.9-0.14c-0.81,0-1.73,0.45-1.73,1.33
	C85.41,41.96,87.78,41.41,87.78,42.63"/>
</svg>
