<!-- Generator: Adobe Illustrator 23.0.3, SVG Export Plug-In  -->
<svg version="1.1" xmlns="http://www.w3.org/2000/svg" xmlns:xlink="http://www.w3.org/1999/xlink" x="0px" y="0px" width="90.93px"
	 height="24.26px" viewBox="0 0 90.93 24.26" style="enable-background:new 0 0 90.93 24.26;" xml:space="preserve">
<style type="text/css">
	.st0{fill-rule:evenodd;clip-rule:evenodd;fill:#A0A0AA;}
</style>
<defs>
</defs>
<g>
	<path class="st0" d="M18.82,8.98l-0.04,12.96l2.59,0.04v2.08h-7.04l0.02-16.44c0-1.97-0.44-4.33-3.45-4.37
		c-2.9-0.01-3.63,1.34-3.65,2.33C7.24,6.24,7.73,7.26,7.47,8.13C7.19,8.88,6.62,9.62,5.1,9.61c-1.4,0-2.6-1.25-2.6-2.7
		c0-2.67,2.11-4.93,8.48-4.93C17.46,1.98,18.82,5.84,18.82,8.98"/>
	<path class="st0" d="M10.57,6.84v7.02c-0.95-1.21-2.39-1.93-4.38-1.93c-1.71,0-3.3,0.66-4.48,1.84C0.59,14.89,0,16.37,0,18.09
		c0,3.66,2.48,6.17,6.18,6.17c1.88,0,3.41-0.66,4.57-1.96v1.8h1.93V6.84H10.57z M6.84,22.39c-2.26,0-3.85-1.8-3.85-4.32
		s1.59-4.29,3.85-4.29c2.25,0,3.85,1.77,3.85,4.29S9.09,22.39,6.84,22.39"/>
	<polygon class="st0" points="88.88,17.18 90.93,17.18 90.93,15.67 85.07,15.67 85.07,17.18 87.11,17.18 87.11,24.03 88.88,24.03 	
		"/>
	<polygon class="st0" points="76.1,24.03 77.79,24.03 77.78,17.98 82.19,24.03 83.93,24.03 83.93,15.67 82.23,15.67 82.24,21.93 
		77.93,15.67 76.1,15.67 	"/>
	<path class="st0" d="M65.77,17.85l0.06-1.79c-0.67-0.33-1.5-0.59-2.54-0.59c-2.76,0-4.56,1.92-4.56,4.38
		c0,2.52,1.84,4.41,4.52,4.41c0.92,0,1.74-0.22,2.5-0.67l0.01-1.84c-0.71,0.66-1.53,0.97-2.48,0.97c-1.72,0-2.73-1.14-2.73-2.87
		c0-1.79,1.13-2.95,2.91-2.95C64.44,16.9,65.16,17.29,65.77,17.85"/>
	<polygon class="st0" points="44.86,24.03 49.46,24.03 49.46,22.5 46.63,22.5 46.63,15.67 44.86,15.67 	"/>
	<polygon class="st0" points="87.63,0 86.16,0 85.05,2.11 85.85,2.11 	"/>
	<rect x="77.94" y="2.91" class="st0" width="1.78" height="8.36"/>
	<path class="st0" d="M75.97,5.07l0.06-1.79c-0.67-0.32-1.5-0.58-2.55-0.58c-2.76,0-4.56,1.92-4.56,4.39c0,2.52,1.85,4.39,4.53,4.39
		c0.92,0,1.74-0.22,2.49-0.66l0.02-1.84c-0.71,0.65-1.54,0.97-2.49,0.97c-1.72,0-2.73-1.14-2.73-2.87c0-1.79,1.13-2.95,2.91-2.95
		C74.63,4.14,75.36,4.53,75.97,5.07"/>
	<polygon class="st0" points="58.11,4.42 60.15,4.42 60.15,2.91 54.29,2.91 54.29,4.42 56.33,4.42 56.33,11.26 58.11,11.26 	"/>
	<path class="st0" d="M52.88,2.91h-1.76v4.92c0,1.37-0.63,2.08-1.84,2.08c-1.2,0-1.81-0.69-1.81-2.08V2.91h-1.77v5.2
		c0,2.27,1.18,3.37,3.6,3.37c2.4,0,3.58-1.12,3.58-3.37V2.91z"/>
	<rect x="35.05" y="2.91" class="st0" width="1.77" height="8.36"/>
	<path class="st0" d="M89.11,4.01c-0.84-0.82-1.98-1.29-3.14-1.29c-1.16,0-2.31,0.48-3.14,1.29c-0.86,0.83-1.29,1.91-1.29,3.09
		c0,1.33,0.56,2.54,1.61,3.39c0.8,0.64,1.8,1,2.82,1c1.17,0,2.27-0.46,3.14-1.28c0.83-0.81,1.28-1.91,1.28-3.1
		C90.39,5.92,89.96,4.83,89.11,4.01 M85.97,9.9c-1.59,0-2.62-1.25-2.62-2.8c0-1.54,1.07-2.8,2.62-2.8c1.53,0,2.6,1.27,2.6,2.8
		C88.58,8.65,87.52,9.9,85.97,9.9"/>
	<path class="st0" d="M65.14,2.91h-2.03l-3.16,8.35h1.91l0.58-1.77h3.22l0.67,1.77h2.02L65.14,2.91z M62.93,8.08l1.14-3.82
		l1.17,3.82H62.93z"/>
	<path class="st0" d="M41.05,2.91H39v8.35h1.79V8.07h0.49c1.89,0,2.96-1,2.96-2.6C44.24,3.69,43.17,2.91,41.05,2.91 M41.05,6.68
		h-0.26V4.23h0.26c0.93,0,1.38,0.33,1.38,1.18C42.43,6.33,41.97,6.68,41.05,6.68"/>
	<path class="st0" d="M31.7,3.72c-0.91-0.69-2-0.82-3.46-0.82h-2.26v8.35h2.4c1.24,0,2.3-0.04,3.3-0.77c1.01-0.74,1.56-1.9,1.56-3.4
		C33.24,5.63,32.7,4.47,31.7,3.72 M28.75,9.75h-0.99V4.42h0.99c1.79,0,2.66,0.76,2.66,2.67C31.41,8.99,30.55,9.75,28.75,9.75"/>
	<path class="st0" d="M72.01,15.67h-2.03l-3.16,8.36h1.91l0.58-1.78h3.22l0.67,1.78h2.02L72.01,15.67z M69.81,20.85l1.15-3.83
		l1.16,3.83H69.81z"/>
	<path class="st0" d="M40.78,15.67h-2.03l-3.16,8.36h1.91l0.58-1.78h3.21l0.68,1.78h2.01L40.78,15.67z M38.57,20.85l1.14-3.83
		l1.16,3.83H38.57z"/>
	<path class="st0" d="M55.53,15.67H53.5l-3.16,8.36h1.91l0.58-1.78h3.21l0.68,1.78h2.01L55.53,15.67z M53.32,20.85l1.14-3.83
		l1.16,3.83H53.32z"/>
	<path class="st0" d="M31.35,16.48c-0.91-0.69-2-0.82-3.45-0.82h-2.26v8.36h2.39c1.24,0,2.3-0.05,3.3-0.78
		c1.01-0.73,1.56-1.9,1.56-3.38C32.89,18.39,32.35,17.23,31.35,16.48 M28.4,22.52H27.4v-5.34h0.99c1.79,0,2.67,0.76,2.67,2.66
		C31.07,21.75,30.21,22.52,28.4,22.52"/>
</g>
</svg>
