<!-- Generator: Adobe Illustrator 23.0.3, SVG Export Plug-In  -->
<svg version="1.1" xmlns="http://www.w3.org/2000/svg" xmlns:xlink="http://www.w3.org/1999/xlink" x="0px" y="0px"
	 width="113.72px" height="38.56px" viewBox="0 0 113.72 38.56" style="enable-background:new 0 0 113.72 38.56;"
	 xml:space="preserve">
<style type="text/css">
	.st0{fill:#A0A0AA;}
	.st1{fill-rule:evenodd;clip-rule:evenodd;fill:#A0A0AA;}
</style>
<defs>
</defs>
<g>
	<rect x="111.83" y="3.2" class="st0" width="1.89" height="35.1"/>
	<path class="st1" d="M43.45,29.75c0.5,0.14,0.78,0.21,0.83,0.21c0.12,0,0.24-0.04,0.35-0.1c0.11-0.07,0.19-0.17,0.23-0.31h0.28
		l0.12,2.93h-0.3c-0.18-0.58-0.4-1.05-0.68-1.4c-0.54-0.67-1.26-1.02-2.17-1.02c-0.92,0-1.67,0.36-2.25,1.09
		C39.29,31.86,39,32.86,39,34.13c0,1.17,0.31,2.1,0.92,2.79c0.61,0.7,1.38,1.04,2.32,1.04c0.68,0,1.3-0.16,1.87-0.48
		c0.33-0.18,0.69-0.46,1.08-0.83l0.24,0.24c-0.29,0.37-0.65,0.69-1.08,0.97c-0.74,0.46-1.53,0.7-2.39,0.7
		c-1.4,0-2.52-0.46-3.35-1.35c-0.76-0.84-1.14-1.87-1.14-3.11c0-1.27,0.4-2.34,1.2-3.21c0.85-0.91,1.95-1.36,3.31-1.36
		C42.46,29.54,42.95,29.6,43.45,29.75"/>
	<path class="st1" d="M52.53,34.98l-1.52-3.6l-1.49,3.6H52.53z M46.88,38.34V38.1c0.34-0.04,0.59-0.16,0.75-0.38
		c0.17-0.22,0.46-0.81,0.87-1.77l2.73-6.41h0.26l3.26,7.41c0.21,0.49,0.39,0.81,0.52,0.92c0.13,0.11,0.35,0.2,0.65,0.24v0.24h-3.33
		V38.1c0.38-0.04,0.63-0.08,0.74-0.12c0.11-0.05,0.17-0.17,0.17-0.36c0-0.07-0.02-0.18-0.06-0.34c-0.04-0.16-0.1-0.33-0.18-0.51
		l-0.54-1.25h-3.42c-0.34,0.85-0.55,1.37-0.61,1.56s-0.1,0.34-0.1,0.45c0,0.23,0.09,0.38,0.27,0.46c0.11,0.05,0.32,0.08,0.63,0.11
		v0.24H46.88z"/>
	<path class="st1" d="M57.79,35.71c0.22,0.58,0.48,1.05,0.78,1.41c0.52,0.61,1.16,0.91,1.93,0.91c0.42,0,0.78-0.13,1.08-0.4
		c0.31-0.27,0.46-0.63,0.46-1.1c0-0.42-0.15-0.8-0.46-1.11c-0.2-0.2-0.62-0.5-1.26-0.9l-1.12-0.7c-0.34-0.21-0.6-0.43-0.81-0.64
		c-0.37-0.41-0.56-0.86-0.56-1.37c0-0.66,0.22-1.2,0.66-1.64c0.44-0.45,1.02-0.67,1.75-0.67c0.29,0,0.65,0.08,1.07,0.23
		c0.42,0.14,0.66,0.22,0.72,0.22c0.16,0,0.27-0.04,0.33-0.11c0.06-0.08,0.11-0.19,0.15-0.33h0.27l0.29,2.79h-0.31
		c-0.21-0.84-0.55-1.42-1.03-1.75c-0.47-0.33-0.93-0.5-1.39-0.5c-0.36,0-0.67,0.11-0.94,0.32c-0.27,0.21-0.4,0.5-0.4,0.87
		c0,0.33,0.1,0.62,0.31,0.86c0.2,0.24,0.52,0.49,0.95,0.76l1.15,0.71c0.72,0.44,1.22,0.85,1.52,1.21c0.29,0.38,0.44,0.82,0.44,1.33
		c0,0.69-0.26,1.26-0.78,1.72c-0.52,0.46-1.18,0.69-1.98,0.69c-0.4,0-0.83-0.07-1.27-0.23c-0.44-0.15-0.69-0.23-0.75-0.23
		c-0.16,0-0.26,0.05-0.31,0.13c-0.05,0.09-0.09,0.2-0.1,0.3h-0.29l-0.39-2.78H57.79z"/>
	<path class="st1" d="M65.28,29.69h7.39l0.07,2.22h-0.31c-0.15-0.7-0.34-1.15-0.59-1.35c-0.23-0.22-0.73-0.32-1.48-0.32h-0.73v6.69
		c0,0.51,0.08,0.83,0.24,0.95c0.15,0.12,0.5,0.2,1.03,0.24v0.24h-3.81V38.1c0.56-0.04,0.9-0.13,1.04-0.28
		c0.13-0.14,0.2-0.49,0.2-1.06v-6.54h-0.73c-0.72,0-1.22,0.1-1.48,0.31c-0.26,0.21-0.46,0.66-0.59,1.37h-0.32L65.28,29.69z"/>
	<path class="st1" d="M73.97,38.1c0.48-0.05,0.79-0.13,0.93-0.26c0.15-0.12,0.22-0.43,0.22-0.93V31.1c0-0.47-0.07-0.77-0.21-0.9
		c-0.14-0.15-0.45-0.24-0.94-0.27v-0.24h6.95l0.04,1.88h-0.33c-0.11-0.58-0.28-0.96-0.5-1.13c-0.22-0.17-0.72-0.26-1.48-0.26h-1.78
		c-0.19,0-0.31,0.04-0.35,0.09c-0.04,0.07-0.06,0.18-0.06,0.35v2.91h2.01c0.55,0,0.91-0.08,1.06-0.24c0.16-0.16,0.28-0.5,0.38-1.01
		h0.3v3.03h-0.3c-0.1-0.51-0.23-0.84-0.38-1.01c-0.15-0.16-0.51-0.24-1.06-0.24h-2.01v3.24c0,0.26,0.08,0.42,0.24,0.46
		c0.17,0.05,0.65,0.07,1.48,0.07c0.88,0,1.54-0.09,1.96-0.29c0.42-0.2,0.8-0.66,1.14-1.41h0.36l-0.59,2.21h-7.07V38.1z"/>
	<path class="st1" d="M82.78,38.1c0.48-0.05,0.79-0.13,0.93-0.26c0.15-0.12,0.22-0.43,0.22-0.93V31.1c0-0.47-0.07-0.77-0.21-0.9
		c-0.14-0.15-0.46-0.24-0.94-0.27v-0.24h3.69v0.24c-0.48,0.03-0.8,0.1-0.97,0.24c-0.17,0.13-0.25,0.42-0.25,0.85v6.28
		c0,0.14,0.02,0.26,0.07,0.35c0.05,0.08,0.16,0.12,0.33,0.15c0.1,0.01,0.2,0.02,0.31,0.02c0.11,0.01,0.31,0.01,0.61,0.01
		c1.16,0,1.95-0.09,2.36-0.29c0.41-0.19,0.8-0.68,1.18-1.47h0.33l-0.64,2.27h-7.04V38.1z"/>
	<path class="st1" d="M91.57,38.1c0.48-0.05,0.79-0.13,0.93-0.26c0.15-0.12,0.22-0.43,0.22-0.93V31.1c0-0.47-0.07-0.77-0.21-0.9
		c-0.14-0.15-0.45-0.24-0.94-0.27v-0.24h3.7v0.24c-0.48,0.03-0.8,0.1-0.97,0.24c-0.16,0.13-0.24,0.42-0.24,0.85v6.28
		c0,0.14,0.02,0.26,0.07,0.35c0.05,0.08,0.16,0.12,0.33,0.15c0.1,0.01,0.2,0.02,0.3,0.02c0.11,0.01,0.32,0.01,0.62,0.01
		c1.16,0,1.95-0.09,2.35-0.29c0.41-0.19,0.81-0.68,1.19-1.47h0.33l-0.64,2.27h-7.03V38.1z"/>
	<path class="st1" d="M102.91,37.07c0.54,0.66,1.2,0.99,1.99,0.99c0.77,0,1.43-0.32,1.98-0.96c0.55-0.64,0.82-1.67,0.82-3.08
		c0-1.42-0.28-2.46-0.83-3.09c-0.56-0.62-1.21-0.95-1.97-0.95c-0.78,0-1.45,0.33-1.99,0.99c-0.54,0.66-0.81,1.68-0.81,3.06
		C102.1,35.39,102.37,36.41,102.91,37.07 M101.93,30.66c0.81-0.77,1.79-1.16,2.97-1.16c1.18,0,2.17,0.39,2.98,1.17
		c0.87,0.84,1.31,1.96,1.31,3.35c0,1.42-0.45,2.55-1.35,3.39c-0.81,0.75-1.79,1.12-2.93,1.12c-1.22,0-2.24-0.41-3.05-1.24
		c-0.83-0.84-1.23-1.93-1.23-3.26C100.62,32.62,101.05,31.5,101.93,30.66 M106.82,27.35c-0.07,0.08-0.17,0.16-0.3,0.25l-2.01,1.27
		h-0.53l1.92-1.93c0.07-0.07,0.15-0.14,0.26-0.21c0.1-0.08,0.21-0.11,0.33-0.11c0.11,0,0.21,0.05,0.3,0.12
		c0.1,0.08,0.14,0.18,0.14,0.3C106.92,27.15,106.88,27.26,106.82,27.35"/>
	<path class="st1" d="M39.99,24.45c0.11,0.07,0.33,0.1,0.65,0.1c1.02,0,1.86-0.21,2.52-0.61c1.02-0.63,1.52-1.69,1.52-3.19
		c0-1.35-0.42-2.35-1.25-3.03c-0.72-0.58-1.66-0.87-2.84-0.87c-0.29,0-0.49,0.04-0.6,0.09c-0.1,0.07-0.15,0.21-0.15,0.43v6.64
		C39.84,24.24,39.89,24.38,39.99,24.45 M37.36,24.8c0.48-0.06,0.79-0.13,0.93-0.26c0.15-0.12,0.22-0.44,0.22-0.93V17.8
		c0-0.48-0.07-0.78-0.21-0.92c-0.14-0.13-0.46-0.22-0.94-0.26v-0.24h3.53c1.18,0,2.19,0.19,3.01,0.59c1.48,0.7,2.22,1.95,2.22,3.77
		c0,0.64-0.13,1.27-0.4,1.86c-0.27,0.59-0.66,1.08-1.2,1.49c-0.34,0.24-0.69,0.44-1.06,0.58c-0.66,0.25-1.49,0.37-2.46,0.37h-3.63
		V24.8z"/>
	<path class="st1" d="M101.83,24.8c0.48-0.06,0.79-0.13,0.94-0.26c0.15-0.12,0.22-0.44,0.22-0.93V17.8c0-0.46-0.07-0.77-0.21-0.9
		c-0.14-0.15-0.45-0.24-0.94-0.27v-0.24h6.95l0.05,1.88h-0.33c-0.11-0.58-0.28-0.96-0.5-1.13c-0.22-0.17-0.71-0.25-1.48-0.25h-1.78
		c-0.19,0-0.31,0.04-0.36,0.09c-0.04,0.07-0.07,0.18-0.07,0.35v2.91h2.01c0.56,0,0.91-0.09,1.07-0.25c0.15-0.16,0.27-0.5,0.37-1.01
		h0.31v3.03h-0.31c-0.09-0.51-0.22-0.84-0.37-1.01c-0.16-0.16-0.51-0.25-1.06-0.25h-2.01v3.23c0,0.26,0.08,0.42,0.24,0.47
		c0.17,0.04,0.66,0.07,1.48,0.07c0.89,0,1.54-0.1,1.96-0.29c0.42-0.2,0.8-0.67,1.13-1.42h0.37l-0.59,2.21h-7.07V24.8z"/>
	<path class="st1" d="M39.99,11.15c0.11,0.07,0.33,0.11,0.65,0.11c1.02,0,1.86-0.21,2.52-0.61c1.02-0.63,1.52-1.69,1.52-3.19
		c0-1.35-0.42-2.35-1.25-3.03c-0.72-0.58-1.66-0.87-2.84-0.87c-0.29,0-0.49,0.03-0.6,0.09c-0.1,0.07-0.15,0.21-0.15,0.43v6.64
		C39.84,10.94,39.89,11.08,39.99,11.15 M37.36,11.5c0.48-0.06,0.79-0.14,0.93-0.26c0.15-0.12,0.22-0.44,0.22-0.93V4.5
		c0-0.48-0.07-0.79-0.21-0.92c-0.14-0.13-0.46-0.22-0.94-0.26V3.08h3.53c1.18,0,2.19,0.19,3.01,0.58c1.48,0.71,2.22,1.96,2.22,3.77
		c0,0.65-0.13,1.27-0.4,1.86c-0.27,0.58-0.66,1.08-1.2,1.48c-0.34,0.25-0.69,0.46-1.06,0.59c-0.66,0.25-1.49,0.37-2.46,0.37h-3.63
		V11.5z"/>
	<path class="st1" d="M47.19,11.5c0.53-0.04,0.88-0.12,1.03-0.24c0.15-0.12,0.24-0.44,0.24-0.95V4.5c0-0.49-0.08-0.79-0.24-0.93
		c-0.16-0.13-0.5-0.22-1.03-0.25V3.08h3.87v0.24c-0.53,0.03-0.88,0.11-1.03,0.25c-0.16,0.14-0.24,0.44-0.24,0.93v5.81
		c0,0.51,0.08,0.83,0.24,0.95c0.16,0.11,0.5,0.2,1.03,0.24v0.24h-3.87V11.5z"/>
	<path class="st1" d="M56.35,3.8c-0.37-0.16-0.84-0.24-1.41-0.24c-0.27,0-0.43,0.03-0.5,0.08c-0.06,0.06-0.09,0.17-0.09,0.35v3.42
		c0.23,0.02,0.38,0.04,0.46,0.04c0.07,0,0.14,0.01,0.21,0.01c0.6,0,1.07-0.09,1.42-0.26c0.63-0.31,0.94-0.89,0.94-1.75
		C57.38,4.66,57.04,4.11,56.35,3.8 M51.93,11.5c0.5-0.05,0.81-0.15,0.94-0.29c0.12-0.15,0.18-0.5,0.18-1.04V4.5
		c0-0.46-0.07-0.76-0.21-0.9c-0.14-0.14-0.44-0.24-0.91-0.28V3.08h3.45c1.11,0,1.96,0.21,2.54,0.64c0.59,0.43,0.88,1,0.88,1.7
		c0,0.88-0.33,1.53-0.97,1.93c-0.65,0.4-1.47,0.6-2.45,0.6c-0.14,0-0.32,0-0.54-0.01c-0.22-0.01-0.38-0.01-0.48-0.01v2.37
		c0,0.49,0.07,0.81,0.22,0.94c0.15,0.12,0.49,0.21,1.02,0.25v0.24h-3.66V11.5z"/>
	<path class="st1" d="M63.27,3.08v0.24c-0.5,0.04-0.83,0.12-0.98,0.26c-0.15,0.13-0.22,0.44-0.22,0.92v4.19
		c0,0.68,0.09,1.21,0.29,1.6c0.34,0.69,1.01,1.04,1.98,1.04c1.07,0,1.79-0.35,2.16-1.07c0.2-0.4,0.31-1.01,0.31-1.85V5
		c0-0.71-0.09-1.16-0.26-1.34c-0.17-0.18-0.49-0.3-0.97-0.34V3.08h3.03v0.24c-0.51,0.06-0.84,0.18-1,0.37
		C67.45,3.88,67.38,4.32,67.38,5v3.41c0,0.9-0.14,1.6-0.42,2.12c-0.51,0.93-1.48,1.39-2.91,1.39c-1.42,0-2.38-0.46-2.89-1.38
		c-0.28-0.49-0.42-1.15-0.42-1.96V4.5c0-0.47-0.07-0.78-0.22-0.91c-0.14-0.14-0.46-0.23-0.96-0.27V3.08H63.27z"/>
	<path class="st1" d="M69.47,3.08h7.39l0.07,2.22h-0.31c-0.15-0.7-0.34-1.16-0.59-1.37c-0.23-0.21-0.73-0.31-1.48-0.31h-0.73v6.69
		c0,0.51,0.08,0.83,0.24,0.95c0.16,0.11,0.5,0.2,1.03,0.24v0.24h-3.81V11.5c0.56-0.05,0.9-0.13,1.03-0.28
		c0.14-0.14,0.21-0.49,0.21-1.06V3.62h-0.73c-0.73,0-1.22,0.1-1.48,0.31c-0.26,0.21-0.45,0.66-0.59,1.37H69.4L69.47,3.08z"/>
	<path class="st1" d="M82.38,8.38l-1.51-3.61l-1.49,3.61H82.38z M76.74,11.74V11.5c0.34-0.04,0.59-0.17,0.75-0.39
		c0.17-0.22,0.46-0.81,0.87-1.76l2.73-6.42h0.26l3.25,7.42c0.22,0.49,0.39,0.8,0.52,0.92c0.13,0.12,0.35,0.19,0.66,0.24v0.24h-3.32
		V11.5c0.38-0.04,0.63-0.08,0.74-0.12c0.11-0.05,0.17-0.17,0.17-0.36c0-0.06-0.02-0.18-0.07-0.34c-0.04-0.16-0.1-0.33-0.18-0.51
		L82.57,8.9h-3.42c-0.34,0.86-0.55,1.39-0.62,1.57c-0.06,0.19-0.09,0.34-0.09,0.45c0,0.23,0.09,0.38,0.27,0.46
		c0.11,0.05,0.32,0.09,0.63,0.11v0.24H76.74z"/>
	<path class="st1" d="M92.68,3.14c0.49,0.13,0.77,0.21,0.83,0.21c0.12,0,0.24-0.04,0.35-0.1c0.11-0.07,0.19-0.17,0.23-0.32h0.28
		l0.12,2.94h-0.3c-0.18-0.58-0.4-1.05-0.68-1.41c-0.54-0.67-1.26-1.01-2.17-1.01c-0.92,0-1.67,0.36-2.25,1.08
		c-0.58,0.73-0.87,1.73-0.87,2.99c0,1.17,0.31,2.11,0.92,2.8c0.61,0.69,1.38,1.04,2.32,1.04c0.67,0,1.3-0.16,1.87-0.48
		c0.33-0.18,0.69-0.46,1.08-0.84l0.24,0.25c-0.29,0.36-0.65,0.68-1.08,0.97c-0.73,0.46-1.52,0.7-2.38,0.7
		c-1.4,0-2.52-0.46-3.34-1.35C87.08,9.77,86.7,8.74,86.7,7.5c0-1.27,0.4-2.34,1.2-3.21c0.85-0.91,1.95-1.37,3.31-1.37
		C91.69,2.92,92.17,3,92.68,3.14"/>
	<path class="st1" d="M95.7,11.5c0.53-0.04,0.88-0.12,1.03-0.24c0.16-0.12,0.24-0.44,0.24-0.95V4.5c0-0.49-0.08-0.79-0.24-0.93
		c-0.16-0.13-0.5-0.22-1.03-0.25V3.08h3.87v0.24c-0.54,0.03-0.88,0.11-1.04,0.25C98.37,3.71,98.3,4.01,98.3,4.5v5.81
		c0,0.51,0.08,0.83,0.23,0.95c0.16,0.11,0.5,0.2,1.04,0.24v0.24H95.7V11.5z"/>
	<path class="st1" d="M102.91,10.47c0.54,0.65,1.2,0.98,1.99,0.98c0.77,0,1.43-0.31,1.98-0.96c0.55-0.64,0.82-1.67,0.82-3.07
		c0-1.42-0.28-2.46-0.83-3.09c-0.56-0.64-1.21-0.95-1.97-0.95c-0.78,0-1.45,0.33-1.99,0.99c-0.54,0.65-0.81,1.68-0.81,3.06
		C102.1,8.79,102.37,9.8,102.91,10.47 M101.93,4.05c0.81-0.77,1.79-1.16,2.97-1.16c1.18,0,2.17,0.39,2.98,1.17
		c0.87,0.83,1.31,1.95,1.31,3.35c0,1.41-0.45,2.54-1.35,3.39c-0.81,0.75-1.79,1.12-2.93,1.12c-1.22,0-2.24-0.42-3.05-1.24
		c-0.83-0.84-1.23-1.93-1.23-3.26C100.62,6.01,101.05,4.9,101.93,4.05 M106.82,0.73c-0.07,0.09-0.17,0.17-0.3,0.26l-2.01,1.27h-0.53
		l1.92-1.93c0.07-0.07,0.15-0.14,0.26-0.21c0.1-0.08,0.21-0.11,0.33-0.11c0.11,0,0.21,0.04,0.3,0.12c0.1,0.08,0.14,0.18,0.14,0.3
		C106.92,0.55,106.88,0.65,106.82,0.73"/>
	<path class="st0" d="M0,38.25h35.04V3.21H0V38.25z M29.97,13.58l-0.69,2.99l-2.24-3.89L29.97,13.58z M30.09,18.35
		c0,0.29-0.24,0.53-0.53,0.53c-0.29,0-0.53-0.24-0.53-0.53c0-0.29,0.23-0.53,0.53-0.53C29.85,17.82,30.09,18.06,30.09,18.35
		 M25.18,11.27c0.14-0.26,0.46-0.34,0.72-0.2c0.25,0.15,0.34,0.47,0.19,0.72c-0.14,0.26-0.46,0.34-0.72,0.2
		C25.12,11.84,25.03,11.52,25.18,11.27 M23.23,9.87c0.15-0.25,0.47-0.33,0.72-0.19c0.26,0.14,0.34,0.46,0.19,0.72
		c-0.15,0.25-0.47,0.34-0.72,0.19C23.17,10.45,23.08,10.12,23.23,9.87 M26.5,13l2.24,3.88l-3.89,2.25l-0.75-1.3l1.94-1.13l-0.75-1.3
		l-1.95,1.12l-0.74-1.28L26.5,13z M11.15,9.67c0.26-0.14,0.58-0.06,0.72,0.2c0.15,0.25,0.06,0.57-0.19,0.72
		c-0.26,0.14-0.58,0.06-0.72-0.2C10.82,10.14,10.9,9.82,11.15,9.67 M9.2,11.1c0.25-0.14,0.57-0.06,0.72,0.19
		c0.15,0.26,0.06,0.58-0.2,0.72c-0.25,0.15-0.57,0.07-0.72-0.19C8.87,11.57,8.95,11.24,9.2,11.1 M8.04,12.67L5.8,16.56l-0.68-2.99
		L8.04,12.67z M5.5,17.82c0.29,0,0.53,0.24,0.53,0.52c0,0.29-0.24,0.53-0.53,0.53c-0.29,0-0.53-0.24-0.53-0.53
		C4.97,18.06,5.21,17.82,5.5,17.82 M4.71,20.74c0-0.29,0.24-0.53,0.53-0.53c0.29,0,0.53,0.24,0.53,0.53c0,0.29-0.24,0.53-0.53,0.53
		C4.95,21.27,4.71,21.04,4.71,20.74 M4.94,23.13c0-0.28,0.24-0.52,0.53-0.52c0.29,0,0.53,0.24,0.53,0.52c0,0.29-0.24,0.53-0.53,0.53
		C5.18,23.66,4.94,23.42,4.94,23.13 M5.11,27.92l0.68-2.99l2.25,3.89L5.11,27.92z M9.92,30.2c-0.15,0.26-0.47,0.34-0.72,0.19
		C8.94,30.25,8.86,29.93,9,29.67c0.15-0.25,0.47-0.33,0.72-0.19C9.98,29.62,10.06,29.96,9.92,30.2 M11.87,31.6
		c-0.15,0.26-0.47,0.34-0.72,0.2c-0.25-0.15-0.34-0.47-0.19-0.73c0.15-0.24,0.47-0.33,0.72-0.19C11.93,31.03,12.02,31.36,11.87,31.6
		 M8.59,28.5l-2.24-3.89l3.88-2.24l0.75,1.3L9.04,24.8l0.76,1.3l1.94-1.12l0.74,1.28L8.59,28.5z M11.74,16.51L9.8,15.39l-0.76,1.3
		l1.95,1.12l-0.75,1.31l-3.88-2.25l2.24-3.89l3.88,2.25L11.74,16.51z M13.35,8.67c0.26-0.14,0.58-0.06,0.73,0.2
		c0.14,0.25,0.06,0.57-0.19,0.72c-0.25,0.14-0.58,0.06-0.72-0.2C13.01,9.15,13.1,8.82,13.35,8.67 M14.08,32.6
		c-0.15,0.25-0.47,0.33-0.72,0.19c-0.25-0.14-0.34-0.46-0.19-0.72c0.15-0.26,0.47-0.34,0.72-0.19
		C14.14,32.02,14.23,32.35,14.08,32.6 M17.56,35.07l-2.24-2.09h4.49L17.56,35.07z M19.81,32.35h-4.49v-4.49h1.47v2.25h1.51v-2.25
		h1.5V32.35z M19.81,13.59h-1.5v-2.24h-1.51v2.24h-1.47V9.1h4.49V13.59z M15.32,8.46l2.24-2.09l2.24,2.09H15.32z M21.03,8.87
		c0.15-0.25,0.47-0.34,0.72-0.2c0.25,0.15,0.34,0.48,0.2,0.72c-0.15,0.25-0.47,0.34-0.72,0.2C20.97,9.44,20.88,9.12,21.03,8.87
		 M21.77,32.78c-0.25,0.15-0.57,0.06-0.72-0.19c-0.14-0.26-0.06-0.58,0.19-0.72c0.25-0.15,0.57-0.06,0.72,0.19
		C22.11,32.31,22.03,32.64,21.77,32.78 M23.96,31.8c-0.25,0.14-0.58,0.06-0.72-0.2c-0.15-0.25-0.06-0.57,0.19-0.72
		c0.26-0.14,0.58-0.06,0.73,0.2C24.29,31.32,24.21,31.64,23.96,31.8 M25.92,30.39c-0.25,0.14-0.58,0.06-0.72-0.2
		c-0.15-0.25-0.06-0.57,0.19-0.72c0.26-0.14,0.58-0.06,0.73,0.2C26.26,29.91,26.17,30.24,25.92,30.39 M22.59,26.21l0.74-1.28
		l1.95,1.13l0.75-1.31l-1.94-1.12l0.75-1.3l3.89,2.24l-2.24,3.89L22.59,26.21z M27.03,28.78l2.24-3.88l0.68,2.98L27.03,28.78z
		 M29.57,23.66c-0.29,0-0.53-0.24-0.53-0.53c0-0.28,0.23-0.52,0.53-0.52c0.29,0,0.53,0.24,0.53,0.52
		C30.09,23.42,29.85,23.66,29.57,23.66 M29.81,21.27c-0.29,0-0.53-0.24-0.53-0.53c0-0.29,0.24-0.53,0.53-0.53
		c0.29,0,0.53,0.24,0.53,0.53C30.33,21.04,30.1,21.27,29.81,21.27"/>
</g>
</svg>
