<!-- Generator: Adobe Illustrator 23.0.3, SVG Export Plug-In  -->
<svg version="1.1" xmlns="http://www.w3.org/2000/svg" xmlns:xlink="http://www.w3.org/1999/xlink" x="0px" y="0px" width="73.15px"
	 height="36.78px" viewBox="0 0 73.15 36.78" style="enable-background:new 0 0 73.15 36.78;" xml:space="preserve">
<style type="text/css">
	.st0{fill:#A0A0AA;}
	.st1{fill:#FFFFFF;}
	.st2{fill:#949698;}
	.st3{font-family:'GillSans-Italic';}
	.st4{font-size:5.1184px;}
</style>
<defs>
</defs>
<g>
	<polygon class="st0" points="0,0.01 0,26.67 73.15,26.73 73.15,0 	"/>
	<g>
		<path class="st1" d="M50.15,5.44l0.38-0.26l0.41-0.2l0.43-0.15l0.18,0.08l0.14,0.13L51.01,5.3l-0.66,0.31l-0.2-0.12V5.44z
			 M47.62,7.39l0.3-0.49l0.39-0.41l0.47-0.32l0.53-0.21l0.56-0.1l0.64-0.08l0.65,0.02l0.64,0.12l0.61,0.22l0.57,0.32l0.3,0.31
			l0.22,0.37l0.12,0.42l0.02,0.44l-0.08,0.43l-0.18,0.4l-0.27,0.34l-0.34,0.27l-0.61,0.32l-0.65,0.22l-0.67,0.12l-0.68,0l-0.68-0.1
			l-0.65-0.21l-0.61-0.32l-0.34-0.32l-0.24-0.39L47.52,8.3l-0.01-0.46L47.62,7.39z M37.53,7.8l0.04-0.2l0.08-0.19l0.21-0.35
			l0.27-0.31l0.32-0.26l0.73-0.35l0.77-0.24l0.8-0.12l0.81-0.01l0.8,0.11l0.45,0.08l-0.03,0.3l-0.1,0.28l-0.08,0.03L42.5,6.54
			l-0.1-0.19l-0.17-0.13l-0.2-0.06l-0.58-0.12l-0.59-0.01l-0.58,0.1l-0.55,0.21l-0.5,0.31l-0.3,0.37l-0.19,0.43l-0.07,0.47
			l0.06,0.47l0.18,0.44l0.29,0.37l0.38,0.28L40,9.65l0.58,0.12l0.6,0.01l0.59-0.09l0.56-0.19l0.17-0.1l0.14-0.15l0.09-0.18h0.21
			L42.88,9.7l-0.8,0.23l-0.82,0.12l-0.83,0.01l-0.83-0.1l-0.81-0.21L38.4,9.58l-0.33-0.25L37.8,9.01l-0.19-0.38l-0.1-0.41L37.53,7.8
			z M13.26,5.86l3.18,0.02l0.38,0.01l0.37,0.11l0.33,0.2l0.26,0.28l0.18,0.34l-0.02,0.3l-0.11,0.28l-0.18,0.24l-0.25,0.17
			l-0.28,0.09l-0.66,0.16L15.8,8.08l-0.67-0.07l0.02,1.41l0.03,0.15l0.09,0.11h0.63v0.23h-2.41V9.68h0.54l-0.02-3.34l-0.03-0.14
			L13.9,6.1l-0.13-0.04h-0.5V5.86z M2.98,5.86l3.45,0.02l0.56,0.07l0.54,0.16l0.51,0.25L8.49,6.7l0.24,0.34l0.15,0.38l0.05,0.41
			L8.88,8.24L8.74,8.62L8.5,8.96L8.2,9.23L7.74,9.51L7.25,9.71L6.74,9.84L6.21,9.9L3.19,9.91V9.68h0.55L3.72,6.32L3.7,6.18l-0.1-0.1
			L3.46,6.06H2.98L3,5.96L2.98,5.86z M9.83,5.86h2.41v0.2l-0.18-0.04l-0.19,0.02l-0.18,0.07l0.02,3.22l0,0.14l0.06,0.13l0.12,0.08
			h0.58v0.23h-2.41V9.68h0.53l0.06-1.19L10.62,7.3l-0.11-1.19l-0.34-0.09L9.83,6.06V5.86z M7.73,22.57l-0.16,0.26L7.4,22.79
			l-3.43-7.41l-0.1-0.21l-0.17-0.16L3.5,14.93H2.97v-0.42h3.32l0.05,0.42h-0.8l1.2,2.78l1.32,2.73l0.81-1.67l0.73-1.71l0.65-1.74
			l0.05-0.15l-0.06-0.15l-0.14-0.08H9.22v-0.42h2.6v0.42h-0.69L7.73,22.57z M19.46,22.57h-3.43v-0.4l0.27-0.08l0.28-0.02l0.28,0.05
			l-0.06-0.4l-0.12-0.38l-0.18-0.36l-0.5-1.33h-2.89l-0.45,1.05l-0.34,1.09l0.01,0.15l0.09,0.12l0.14,0.05h0.9l0.03,0.42h-2.74
			v-0.42L11,22.17l0.24-0.03l0.22-0.09l3.43-7.54l0.56-0.15l0.58-0.06l0.08,0.09l0,0.12l-0.26,0.26l0.05,0.45l0.12,0.44l0.18,0.42
			l1.12,2.92l1.23,2.88l0.26,0.21l0.31,0.1l0.33-0.02V22.57z M19.59,9.41l-0.16-0.25l-0.09-0.28l-0.03-2.43l0.01-0.17l-0.09-0.14
			l-0.16-0.06l-0.51-0.02v-0.2h2.41v0.2l-0.18-0.04l-0.19,0.02l-0.17,0.07l-0.01,1.36l0.04,1.36l0.15,0.32l0.23,0.27l0.29,0.19
			l0.33,0.11l0.35,0.02l0.44,0.01l0.43-0.08l0.41-0.16l0.37-0.24l0.2-0.29l0.09-0.34V6.64l0.01-0.2l-0.06-0.19l-0.11-0.16
			l-0.63-0.03v-0.2h1.73v0.2L24.4,6.04l-0.26,0.1l-0.02,2.51L24,9.02l-0.21,0.32L23.5,9.61l-0.34,0.19l-0.37,0.1l-0.6,0.12
			l-0.61,0.03l-0.61-0.06l-0.59-0.15L19.81,9.6L19.59,9.41z M27.3,21.74l-0.12,0.43l-0.19,0.4L23.8,22.6l-3.18-0.06v-0.39l0.8-0.03
			l-0.02-6.54l0.02-0.2l-0.06-0.19l-0.13-0.15l-0.17-0.09l-0.77-0.01v-0.42h3.5v0.42L23.4,14.9l-0.38,0.08l-0.07,2.25l0.02,2.25
			l0.11,2.25l0.03,0.14l0.08,0.11l0.12,0.07l0.93,0.02l0.93-0.05l0.92-0.13l0.4-0.12l0.35-0.24l0.27-0.32l0.12,0l0.09,0.08
			L27.3,21.74z M26.67,9.91V9.72l0.28,0.05l0.28-0.02l0.27-0.08V6.12l-0.59-0.03l-0.58,0.08l-0.56,0.18l-0.08,0.13l-0.13,0.07
			l-0.15,0l-0.03-0.06l0.29-0.62h4.78l0.31,0.63l-0.07,0.08l-0.1,0l-0.33-0.26l-0.39-0.15l-0.42-0.03L28.6,6.12l0.02,3.3l0.03,0.14
			l0.09,0.11l0.13,0.04h0.69v0.19H26.67z M30.81,12.41l0.25,0.06l0.23,0.12l0.7,0.5l0.65,0.57l-0.27,0.27l-1.03-0.55l-1.01-0.6
			l0.22-0.22L30.81,12.41z M35.34,21.46l-0.32,1.04l-0.05,0.08H28.6v-0.42h0.67l0.13-0.08l-0.02-6.39l0.01-0.24l-0.06-0.23
			l-0.12-0.2l-0.93-0.1v-0.37h6.66l-0.14,1.13l-0.06,0.09l-0.1,0.05l-0.11-0.01l-0.11-0.17l-0.02-0.2l-0.53-0.26l-0.57-0.13
			l-0.59-0.01l-1.66-0.02l-0.08,0.18v2.7l0.05,0.07l1.1,0.01l1.1-0.06l0.2-0.01l0.18-0.1l0.13-0.16V17h0.42v2.23h-0.42v-0.6
			l-0.15-0.13l-0.18-0.08l-0.2-0.01l-2.2,0.01l-0.02,1.21l0.02,1.2v0.1L31,21.28l0.05,0.34l0.11,0.33l0.36,0.1l0.38,0.01l0.93-0.02
			l0.92-0.13l0.9-0.24l0.26-0.21l0.22-0.25l0.12,0.01l0.08,0.09L35.34,21.46z M34.36,9.94l-0.01-0.22h0.53l0.07-0.02l0.03-0.07
			l-0.63-1.18h-1.92L32.1,8.99l-0.22,0.59l0.07,0.09l0.11,0.03h0.61v0.21l-1.88-0.02l0-0.19l0.29-0.01l0.26-0.12l2.27-3.72L34,5.78
			l0.39-0.05l0.1,0.1l-0.21,0.23l0.86,1.75l0.93,1.71l0.18,0.14l0.21,0.07l0.22-0.01l0.02,0.23L34.36,9.94z M45.54,14.96h-0.6
			l-0.13,0.05l-0.08,0.11v7.5l-0.07,0.08l-0.1,0.01l-0.09-0.06l-6.29-6.57v4.58l0.07,1l0.02,0.22l0.12,0.18l0.19,0.09h0.75v0.42
			h-2.53v-0.42h0.63l0.18-0.08l0.01-3.21l-0.08-3.21l-0.11-0.27l-0.19-0.22L36.99,15l-0.29-0.06l-0.29,0.03l-0.02-0.42h2.36
			l5.44,5.75l0.02-2.23l-0.07-2.22l-0.08-0.62l-0.05-0.13L43.91,15l-0.13-0.03L43,14.96v-0.42h2.53V14.96z M46.66,9.94h-2.41v-0.2
			l0.55-0.03l-0.02-3.34l-0.03-0.14l-0.09-0.11l-0.13-0.04h-0.5V5.9h2.41v0.23h-0.54v3.32l0.03,0.15l0.1,0.11l0.14,0.05h0.5V9.94z
			 M54.95,21.82l-0.1,0.37l-0.83,0.31l-0.86,0.21l-0.88,0.1l-0.89,0L50.5,22.7l-0.86-0.22l-0.83-0.32l-0.52-0.4l-0.44-0.48
			l-0.36-0.55l-0.26-0.6l-0.16-0.64l-0.05-0.65l0.06-0.65l0.16-0.63l0.27-0.6l0.45-0.65l0.54-0.58l0.62-0.49l0.68-0.39l0.73-0.29
			l0.76-0.18l0.78-0.06l0.69-0.01l0.68,0.07l0.67,0.15l0.65,0.23l-0.1,0.87l-0.11,0.24l-0.2-0.04l-0.11-0.3l-0.2-0.26l-0.27-0.18
			l-0.31-0.09l-0.66-0.15l-0.67-0.03l-0.67,0.1l-0.64,0.22l-0.59,0.34l-0.52,0.44l-0.43,0.53l-0.32,0.6l-0.21,0.65l-0.08,0.68
			l0.04,0.68l0.1,0.64l0.21,0.61l0.32,0.56l0.42,0.49l0.5,0.4l0.57,0.3l0.62,0.18l0.64,0.07l0.64-0.06l0.62-0.18l0.57-0.29
			l0.51-0.39l0.13-0.25l0.08-0.27l0.1-0.07l0.12,0.02l0.08,0.1l-0.01,0.12l0.02,0.39L54.95,21.82z M64.03,5.97l0.08-0.04l0.29,0.03
			h4.14L68.4,6.61l-0.1,0.02l-0.08-0.06l0-0.1l-0.27-0.15l-0.3-0.09l-0.31-0.03l-1.36,0l-0.13,0.08v1.41l1.64,0l0.18-0.1l0.09-0.18
			l-0.01-0.2h0.29l-0.01,1.13l-0.28,0l0.01-0.19l-0.09-0.17l-0.9-0.07L65.85,7.9l-0.01,0.84l0.07,0.84l0.06,0.1l0.1,0.06l1.01,0.01
			l1-0.1L68.3,9.6l0.2-0.11l0.16-0.17l0.11,0l0.07,0.08l-0.27,0.6h-4.35V9.78h0.5l0.06-0.08l-0.01-3.27L64.7,6.26l-0.14-0.11
			l-0.51-0.01l-0.05-0.08L64.03,5.97z M60.39,22.57h-3.53v-0.42h0.71l0.1-0.05l0.02-3.38l-0.05-3.38l-0.04-0.15l-0.09-0.12
			l-0.13-0.08h-0.79l-0.08-0.13l-0.02-0.15l0.05-0.14h3.53v0.42H59.4l-0.13,0.08v6.4l0,0.26l0.1,0.24l0.18,0.18h0.74l0.1,0.05V22.57
			z M60.97,9.9l-0.52,0.06l-3.07,0.02l-0.05-0.11l0.05-0.11h0.53l-0.02-3.24l0.01-0.17L57.82,6.2l-0.16-0.06l-0.51-0.02V5.93
			l3.24,0.02l0.55,0.03l0.54,0.13l0.51,0.22l0.46,0.31l0.4,0.39l0.17,0.4l0.06,0.43l-0.04,0.43L62.89,8.7l-0.24,0.36l-0.32,0.29
			l-0.38,0.21l-0.48,0.19L60.97,9.9z M69.92,22.61h-3.4v-0.42h0.71l0.13-0.08l-0.05-0.27l-0.79-2.1l-0.09-0.04h-2.81l-0.34,0.73
			l-0.26,0.76l-0.19,0.78l0.07,0.12l0.12,0.08l0.14,0.02l0.83,0.01v0.39h-2.76V22.2l0.31-0.06l0.32,0.01l0.17-0.23l3.35-7.32
			l0.4-0.14l0.41-0.08l0.42-0.01l-0.02,0.16l-0.07,0.15l-0.12,0.11l-0.04,0.22l0.06,0.22l0.8,2.26l0.88,2.23l0.95,2.2l0.17,0.17
			l0.22,0.1l0.24,0.03l0.24-0.05V22.61z"/>
		<g>
			<polygon class="st0" points="15.13,6.09 15.13,7.75 15.64,7.81 16.16,7.73 16.63,7.53 16.82,7.32 16.9,7.05 16.88,6.77 
				16.75,6.52 16.54,6.34 16.09,6.15 15.61,6.06 			"/>
			<polygon class="st0" points="5,9.58 5.61,9.6 6.2,9.51 6.77,9.31 7.3,9 7.57,8.66 7.73,8.26 7.78,7.82 7.7,7.39 7.51,7 
				7.22,6.67 6.85,6.44 6.37,6.24 5.86,6.11 5.35,6.06 4.83,6.09 4.84,9.16 4.84,9.32 4.9,9.47 			"/>
			<polygon class="st0" points="48.74,8.55 48.99,8.96 49.33,9.3 49.73,9.56 50.18,9.73 50.66,9.79 51.14,9.75 51.59,9.6 
				52.01,9.36 52.36,9.03 52.53,8.58 52.59,8.1 52.54,7.62 52.39,7.16 52.13,6.75 51.79,6.41 51.37,6.16 50.92,6 50.43,5.96 
				49.95,6.03 49.55,6.12 49.19,6.32 48.9,6.6 48.69,6.95 48.58,7.35 48.57,7.76 48.62,8.16 			"/>
			<polygon class="st0" points="59.16,9.65 59.73,9.67 60.3,9.59 60.84,9.42 61.35,9.16 61.65,8.87 61.86,8.51 61.95,8.1 
				61.93,7.68 61.79,7.29 61.55,6.95 61.13,6.61 60.65,6.35 60.14,6.18 59.6,6.12 59.06,6.15 58.98,6.23 58.98,8.96 59.02,9.31 			
				"/>
			<polygon class="st0" points="14.7,16.07 14.68,16.06 14.18,17.01 13.73,17.98 13.35,18.98 15.75,18.98 15.77,18.95 			"/>
			<polygon class="st0" points="65.2,16.14 65.15,16.14 64.44,17.57 63.84,19.05 66.25,19.05 65.76,17.58 			"/>
		</g>
		<polygon class="st2" points="33.46,6.69 32.99,7.4 32.59,8.14 34.2,8.14 34.21,8.11 33.52,6.72 		"/>
		<rect x="0.03" y="27.34" class="st0" width="73.12" height="9.45"/>
	</g>
	<text transform="matrix(1 0 0 1 3.2765 33.4351)" class="st1 st3 st4">Colze a colze amb els Ajuntaments</text>
</g>
</svg>
