<!-- Generator: Adobe Illustrator 23.0.3, SVG Export Plug-In  -->
<svg version="1.1" xmlns="http://www.w3.org/2000/svg" xmlns:xlink="http://www.w3.org/1999/xlink" x="0px" y="0px" width="91.21px"
	 height="35.05px" viewBox="0 0 91.21 35.05" style="enable-background:new 0 0 91.21 35.05;" xml:space="preserve">
<style type="text/css">
	.st0{fill:#A0A0AA;}
</style>
<defs>
</defs>
<g>
	<path class="st0" d="M0.94,17.37c0.16-0.66-0.45-0.28-0.61-0.53c0.2-0.04,0.37-0.08,0.54-0.11c0-0.03-0.01-0.06-0.01-0.1
		c-0.17-0.02-0.34-0.05-0.53-0.08c0.17-0.26,0.72,0.11,0.64-0.45c-0.06-0.38-0.37-0.27-0.65-0.33c0.07-0.09,0.12-0.14,0.15-0.19
		c-0.05-0.02-0.11-0.05-0.17-0.07c0-0.02,0-0.05,0-0.07c0.16-0.02,0.33-0.03,0.52-0.05c0.01-0.09,0.01-0.19,0.02-0.32
		c-0.08-0.01-0.15-0.03-0.21-0.02c-0.32,0.05-0.41-0.1-0.38-0.4c0.02-0.26-0.01-0.52-0.01-0.77c0-0.65,0.03-0.69,0.72-0.8
		c-0.03-0.3-0.06-0.6-0.11-0.9c-0.03-0.23-0.09-0.45-0.13-0.68c-0.04-0.22,0.05-0.33,0.29-0.32c0.09,0.01,0.19,0,0.32,0V9.87
		c0.12,0,0.2,0,0.28,0c0.4,0.01,0.39-0.02,0.39-0.41c0.01-1.09,0.05-2.18,0.07-3.27c0-0.12-0.05-0.25-0.03-0.37
		c0.03-0.19,0.03-0.44,0.15-0.55c0.1-0.09,0.42-0.1,0.53-0.01c0.12,0.1,0.14,0.35,0.17,0.55C2.93,5.94,2.88,6.07,2.88,6.2
		C2.9,7.29,2.92,8.38,2.94,9.47c0,0.09-0.04,0.18-0.06,0.3c0.09,0.03,0.19,0.1,0.28,0.1c1.36,0.02,2.72,0.06,4.03-0.38
		C7.94,9.25,8.57,8.83,9,8.14C9.21,7.8,9.25,7.45,9.17,7.06C9.1,6.76,9.06,6.44,9.06,6.12c0-0.16,0.12-0.33,0.15-0.49
		c0.05-0.28-0.1-0.42-0.37-0.48c-0.08-0.02-0.2-0.13-0.19-0.19C8.67,4.58,8.26,4.55,8.13,4.3C8.09,4.22,7.97,4.19,7.89,4.13
		c0.08-0.07,0.15-0.17,0.24-0.21c1.88-0.9,3.76-1.79,5.64-2.67c0.84-0.4,1.68-0.81,2.54-1.19c0.16-0.07,0.4-0.08,0.55-0.01
		C18.91,1,20.96,1.98,23,2.95c0.68,0.32,1.35,0.63,2.03,0.96c0.1,0.05,0.18,0.14,0.27,0.21c-0.08,0.06-0.19,0.11-0.25,0.19
		c-0.18,0.26-0.6,0.36-0.52,0.78c-0.62,0.26-0.67,0.37-0.44,0.98c0.02,0.05,0.02,0.11,0.01,0.17c-0.04,0.4-0.08,0.8-0.12,1.2
		c-0.04,0.46,0.23,0.79,0.5,1.12c0.57,0.69,1.36,0.96,2.19,1.15c1.05,0.24,2.12,0.24,3.18,0.21c0.29-0.01,0.41-0.04,0.4-0.43
		c-0.03-1.13,0.04-2.27,0.07-3.4c0-0.1-0.04-0.19-0.06-0.29c-0.03-0.22-0.04-0.47,0.21-0.54c0.16-0.05,0.4-0.02,0.54,0.07
		c0.19,0.12,0.19,0.34,0.09,0.57C31.06,6,31.1,6.18,31.11,6.33c0.03,0.98,0.06,1.97,0.08,2.95c0.01,0.18-0.07,0.44,0.02,0.53
		c0.1,0.1,0.35,0.05,0.53,0.07c0.02,0,0.04,0.02,0.09,0.05v1.22c0.12,0.01,0.22,0.02,0.32,0.03c0.28,0.02,0.42,0.16,0.3,0.4
		c-0.25,0.48-0.17,0.99-0.19,1.47c0.04,0.04,0.05,0.06,0.07,0.07c0.55,0.09,0.66,0.22,0.63,0.8c-0.01,0.25-0.04,0.49-0.02,0.73
		c0.02,0.3-0.06,0.45-0.38,0.4c-0.05-0.01-0.11,0.01-0.19,0.01v0.32c0.17,0.02,0.33,0.03,0.51,0.05c-0.03,0.13-0.05,0.24-0.07,0.34
		c-0.6,0.08-0.64,0.12-0.58,0.62c0.2,0.03,0.4,0.05,0.61,0.08c0,0.03,0,0.06,0,0.09c-0.18,0.03-0.36,0.05-0.53,0.08
		c0,0.03,0,0.07,0,0.1c0.18,0.03,0.36,0.05,0.54,0.08c0,0.03,0.01,0.06,0.01,0.08c-0.2,0.03-0.41,0.05-0.63,0.08v0.34
		c0.21,0.01,0.42,0.03,0.63,0.04c0,0.03,0,0.06,0,0.09c-0.21,0.02-0.42,0.03-0.65,0.05v7.63c0.24,0.02,0.47,0.03,0.69,0.04
		c0,0.03,0,0.06,0,0.09l-0.63,0.05c0,0.02,0,0.04,0,0.06h0.64c0,0.04,0,0.07,0,0.11c-0.23,0.02-0.45,0.03-0.71,0.05
		c-0.01,0.11-0.01,0.22-0.02,0.34c0.24,0.02,0.45,0.04,0.66,0.06c0,0.04,0,0.07,0,0.1c-0.2,0.01-0.4,0.02-0.64,0.03
		c-0.01,0.13-0.02,0.25-0.02,0.38c0,1.76,0.01,3.52-0.01,5.27c0,0.32,0.08,0.45,0.41,0.42c0.1-0.01,0.21,0.02,0.32,0.03
		c0,0.03,0,0.07,0,0.1c-0.18,0.02-0.35,0.03-0.56,0.05v2.26h0.95c0,0.04,0,0.09,0,0.13C22.19,34.84,11.1,34.94,0,35.05
		c0-0.05,0-0.1,0-0.16c0.23,0,0.46,0.02,0.69-0.01c0.1-0.01,0.25-0.14,0.26-0.22c0.02-0.76,0.01-1.52,0.01-2.3
		c-0.21-0.03-0.4-0.05-0.59-0.07c0-0.03,0-0.06,0-0.09c0.14-0.01,0.29,0,0.42-0.05c0.09-0.03,0.23-0.14,0.23-0.21
		c0.01-1.92,0-3.84-0.01-5.76c0-0.01-0.01-0.02-0.03-0.06c-0.19-0.02-0.4-0.04-0.63-0.07c0.17-0.28,0.74,0.13,0.66-0.49
		c-0.24-0.02-0.47-0.03-0.7-0.05c0-0.04,0-0.07,0-0.11c0.21-0.01,0.43-0.03,0.64-0.04c0-0.02,0-0.04,0-0.06H0.31
		c0-0.04,0-0.07-0.01-0.11c0.22-0.02,0.44-0.03,0.69-0.05v-7.62c-0.22-0.02-0.44-0.04-0.66-0.06c0-0.03,0-0.06,0-0.09H0.94z
		 M14.75,23.34c-0.09-0.03-0.18-0.11-0.26-0.09c-0.66,0.18-1.31,0.39-1.72,1.01c-0.27,0.37-0.53,0.75-0.79,1.12
		c0.07-0.31,0.17-0.61,0.34-0.87c0.53-0.8,1.29-1.26,2.23-1.43c-0.41-1.53-0.21-2.39,0.68-3.03c0.75-0.54,1.85-0.6,2.61-0.07
		c1.12,0.79,1.31,1.86,0.78,3.08c1.47,0.41,2.73,1.57,2.55,2.38c-0.05-0.1-0.1-0.18-0.14-0.27c-0.43-1.04-1.21-1.67-2.29-1.92
		c-0.1-0.02-0.26,0.04-0.35,0.11c-0.37,0.31-0.79,0.58-0.76,1.15c0,0.02-0.02,0.04-0.03,0.07c-0.01,0.13-0.05,0.27-0.02,0.39
		c0.04,0.16,0.14,0.31,0.21,0.46h2.18c-0.17-0.49-0.56-0.74-0.9-1.05c0.46,0.08,0.76,0.38,0.93,0.76c0.19,0.4,0.46,0.33,0.83,0.26
		c-0.4-1.15-1.23-1.74-2.41-1.96c0.09-0.06,0.11-0.09,0.13-0.09c1.04,0.04,2.17,0.96,2.41,1.98c0.02,0.1-0.02,0.26-0.09,0.32
		c-0.34,0.31-0.78,0.55-0.58,1.13c0.01,0.03-0.01,0.07-0.02,0.12c0.28,0.03,0.38,0.13,0.15,0.36c-0.04,0.04-0.06,0.13-0.06,0.19
		c-0.01,1.48-0.01,2.95,0,4.43c0,0.08,0.13,0.22,0.21,0.23c0.73,0.11,0.78,0.07,0.78-0.67c0-4.52,0-9.05,0.01-13.57
		c0-0.3-0.07-0.43-0.41-0.42c-2.93,0.01-5.86,0.01-8.79,0.01c-0.11,0-0.22,0.01-0.36,0.02V18v13.25c0,0.94,0,0.94,0.94,0.89
		c0.02,0,0.04-0.02,0.06-0.03c0.01-0.02,0.02-0.04,0.02-0.06c0-1.52,0.01-3.04,0.01-4.57c0-0.06-0.02-0.15-0.07-0.19
		c-0.26-0.23-0.08-0.32,0.09-0.38c0.02-0.16,0.02-0.28,0.04-0.4c0.04-0.26,0.05-0.48-0.3-0.55c-0.25-0.05-0.45-0.47-0.35-0.7
		c0.15-0.35,0.34-0.68,0.51-1.02C13.36,23.8,13.96,23.36,14.75,23.34c-0.08,0.06-0.15,0.16-0.24,0.17
		c-0.81,0.14-1.41,0.59-1.86,1.26c-0.12,0.19-0.2,0.41-0.3,0.62c0.53,0.13,0.59,0.1,0.82-0.27c0.22-0.35,0.49-0.66,0.95-0.74
		c-0.34,0.31-0.76,0.55-0.9,1.05h2.16c0.07-0.15,0.15-0.26,0.19-0.39c0.04-0.13,0.06-0.27,0.05-0.39c-0.02-0.17-0.07-0.34-0.11-0.5
		c-0.03-0.1-0.07-0.23-0.14-0.3C15.17,23.67,14.96,23.51,14.75,23.34 M10.45,4.47c0-0.03-0.01-0.06-0.01-0.08
		c0.04-0.03,0.07-0.06,0.11-0.08c1.94-0.92,3.88-1.85,5.83-2.75c0.13-0.06,0.35-0.04,0.49,0.02c1.82,0.85,3.63,1.71,5.45,2.57
		c0.15,0.07,0.29,0.16,0.44,0.24c-0.01,0.03-0.02,0.07-0.02,0.1h-1.56c0.1,0.21,0.15,0.48,0.24,0.5c0.46,0.09,0.51,0.38,0.48,0.75
		c-0.02,0.22,0.07,0.31,0.3,0.3c0.42-0.02,0.84-0.02,1.26,0c0.29,0.02,0.39-0.08,0.38-0.37c-0.01-0.17,0.02-0.42,0.13-0.5
		c0.2-0.16,0.45-0.24,0.49-0.55c0.01-0.06,0.12-0.1,0.18-0.16c0.11-0.12,0.22-0.25,0.34-0.4c-0.13-0.07-0.21-0.11-0.29-0.15
		c-2.64-1.25-5.28-2.5-7.92-3.75c-0.1-0.05-0.25-0.04-0.35,0.01c-2.48,1.17-4.96,2.35-7.44,3.52c-0.25,0.12-0.49,0.24-0.7,0.35
		c0.2,0.32,0.38,0.6,0.56,0.89C8.85,4.96,8.88,4.99,8.9,4.99c0.43,0.07,0.49,0.36,0.44,0.72C9.31,5.97,9.43,6.04,9.67,6.03
		c0.45-0.02,0.89-0.01,1.34,0c0.22,0.01,0.31-0.07,0.28-0.28c-0.07-0.46,0.1-0.74,0.57-0.77c0.03-0.18,0.06-0.32,0.09-0.51H10.45z
		 M3.94,25.14h4.87v-7.62H3.94V25.14z M24.36,17.53v1.65c0,1.86,0,3.73,0,5.59c0,0.21-0.04,0.41,0.31,0.41
		c1.42-0.02,2.84-0.01,4.25-0.01c0.23,0,0.34-0.06,0.34-0.31c0-2.37,0-4.73,0.01-7.1c0-0.2-0.08-0.27-0.27-0.27
		c-1.49,0.01-2.98,0-4.46,0.01C24.48,17.5,24.44,17.52,24.36,17.53 M14.08,34.51h5.08c0.05-0.33,0.13-0.66,0.13-1
		c0-1.19-0.03-2.39-0.04-3.58c-0.01-0.76,0-1.52-0.01-2.28c0-0.41-0.07-0.49-0.49-0.49c-1.44,0-2.88,0-4.32,0
		c-0.31,0-0.47,0.1-0.46,0.45c0.02,1.94,0.01,3.89,0.02,5.83C13.99,33.79,14.05,34.14,14.08,34.51 M21.68,6.03
		c0.12-0.65,0.1-0.69-0.41-0.89c-0.05-0.02-0.12-0.09-0.12-0.14c0.01-0.48-0.33-0.5-0.67-0.5c-1.28,0-2.55,0-3.83,0
		c-1.32,0-2.65,0-3.97,0c-0.31,0-0.59,0.04-0.61,0.45c0,0.07-0.14,0.17-0.23,0.19c-0.35,0.1-0.44,0.24-0.39,0.65
		c0.04,0.32,0.28,0.23,0.46,0.23c3.08,0,6.16,0,9.24,0H21.68z M3.95,26.11c-0.01,0.07-0.02,0.13-0.02,0.19c0,1.87,0,3.75,0,5.62
		c0,0.31,0.13,0.44,0.44,0.43c1.34-0.01,2.67-0.01,4.01-0.01c0.44,0,0.45-0.01,0.45-0.46c0-1.81,0-3.61,0-5.41
		c0-0.12-0.01-0.25-0.02-0.37H3.95z M24.38,26.11c-0.01,0.15-0.02,0.25-0.02,0.36c0,1.14,0,2.27,0,3.41c0,0.68,0,1.36,0.01,2.04
		c0,0.24,0.05,0.44,0.36,0.44c1.42-0.01,2.84-0.01,4.25,0c0.22,0,0.28-0.08,0.27-0.29c-0.02-0.38-0.01-0.77-0.01-1.15
		c0-1.49,0-2.98,0.01-4.46c0-0.27-0.07-0.37-0.35-0.36c-1.41,0.02-2.81,0.01-4.22,0.01C24.6,26.09,24.5,26.1,24.38,26.11
		 M11.13,14.87c0.07,0.01,0.11,0.03,0.16,0.03c3.5,0,7,0,10.5,0.01c0.22,0,0.28-0.09,0.28-0.29c-0.01-0.67-0.01-1.33,0.01-2
		c0.01-0.29-0.08-0.38-0.38-0.38c-2.92,0.01-5.83,0-8.75,0h-1.82V14.87z M31.34,30.77c0-0.14,0-0.25,0-0.37
		c-0.04-3.44-0.08-6.89-0.12-10.33c-0.01-0.89-0.03-0.9-0.93-0.78c-0.01,0-0.02,0.01-0.06,0.06c-0.05,3.78-0.1,7.59-0.15,11.43
		H31.34z M3.12,30.78c0-0.17,0-0.3,0-0.44c-0.03-2.04-0.06-4.08-0.09-6.12c-0.02-1.54-0.02-3.07-0.05-4.6
		c0-0.12-0.08-0.32-0.14-0.33c-0.28-0.04-0.57-0.02-0.86-0.02c-0.04,3.88-0.08,7.69-0.12,11.51H3.12z M22.37,19.29
		c-0.05,3.84-0.1,7.66-0.15,11.48h1.26c-0.04-3.83-0.08-7.65-0.12-11.48H22.37z M10.97,30.78c0-0.17,0-0.31,0-0.45
		c-0.03-2.33-0.06-4.66-0.09-6.99c-0.02-1.24-0.03-2.48-0.06-3.72c0-0.11-0.08-0.31-0.15-0.32c-0.27-0.04-0.55-0.02-0.83-0.02
		c-0.05,3.86-0.09,7.67-0.13,11.5H10.97z M4.04,34.8h4.72v-2.26H4.04V34.8z M29.23,32.54h-4.74v2.07h4.74V32.54z M9.51,12.24
		c-2.03,0-4.02,0-6.01,0c-0.23,0-0.23,0.15-0.23,0.3c0,0.68,0,1.36-0.01,2.04c-0.01,0.26,0.09,0.34,0.35,0.34
		c1.19-0.01,2.39,0,3.58,0h2.32V12.24z M23.67,14.88h6.21v-2.63h-6.21V14.88z M21.52,17.51v0.5c0,4.1,0,8.2,0,12.29
		c0,0.53-0.01,1.05,0.01,1.58c0,0.09,0.07,0.18,0.12,0.25c0.01,0.02,0.17-0.03,0.17-0.05c0-0.08-0.04-0.17-0.05-0.25
		c-0.03-0.18-0.13-0.44-0.05-0.52c0.28-0.28,0.37-0.6,0.37-0.96c0.04-2.67,0.07-5.34,0.09-8.01c0.01-1.47,0.12-2.94-0.21-4.39
		C21.93,17.75,21.9,17.49,21.52,17.51 M8.98,24.83L8.98,24.83c0,0.43,0,0.86,0,1.29c0,1.91,0,3.81,0.01,5.72
		c0,0.1,0.07,0.2,0.13,0.29c0.01,0.02,0.12-0.03,0.19-0.04c-0.03-0.11-0.06-0.21-0.08-0.32c-0.02-0.16-0.1-0.42-0.03-0.47
		c0.3-0.23,0.35-0.56,0.35-0.86c0.06-3.63,0.11-7.26,0.13-10.89c0-0.57-0.15-1.15-0.26-1.72c-0.03-0.13-0.19-0.23-0.29-0.35
		c-0.05,0.14-0.14,0.27-0.14,0.41C8.98,20.22,8.98,22.52,8.98,24.83 M29.42,17.52c-0.01,0.09-0.02,0.17-0.02,0.25
		c0,1.63,0,3.26,0,4.89c0,3.02,0,6.04,0,9.07c0,0.14,0.07,0.27,0.11,0.41c0,0.01,0.1-0.02,0.15-0.03c-0.03-0.13-0.07-0.25-0.09-0.38
		c-0.02-0.14-0.09-0.35-0.02-0.41c0.29-0.26,0.37-0.59,0.38-0.95c0.05-3.21,0.09-6.42,0.13-9.63c0.01-0.55-0.03-1.09-0.07-1.64
		c-0.03-0.39-0.08-0.78-0.17-1.15C29.78,17.76,29.77,17.48,29.42,17.52 M11.15,10.5c-0.1,0.69-0.05,0.75,0.58,0.75
		c0.01,0,0.02,0,0.04,0c1.59,0,3.18,0,4.78,0c1.67,0,3.35,0,5.02,0c0.25,0,0.51,0.03,0.53-0.38c0.02-0.43-0.24-0.37-0.5-0.37
		c-3.34,0-6.67,0-10.01,0H11.15z M31.98,31.41c-0.08,0.15-0.16,0.31-0.24,0.48c-0.03,0.06-0.04,0.15-0.01,0.2
		c0.03,0.04,0.13,0.07,0.18,0.05c0.05-0.01,0.1-0.09,0.11-0.15c0.02-0.08,0.01-0.16,0.01-0.24c0-4.14,0-8.27,0-12.4v-1.88
		c-0.14,0.08-0.28,0.11-0.3,0.18c-0.07,0.2-0.06,0.43-0.14,0.62c-0.25,0.6-0.24,1.23-0.23,1.86c0.04,3.43,0.08,6.86,0.11,10.3
		C31.49,30.8,31.61,31.14,31.98,31.41 M11.65,32.18V17.49c-0.33,0.06-0.4,0.27-0.44,0.52c-0.01,0.1,0,0.21-0.01,0.3
		c-0.07,0.4-0.2,0.8-0.2,1.2c0.02,3.66,0.06,7.31,0.11,10.97c0,0.25,0.08,0.58,0.25,0.73c0.28,0.24,0.15,0.41,0.05,0.63
		c-0.04,0.08-0.09,0.21-0.07,0.24C11.41,32.13,11.52,32.14,11.65,32.18 M24.18,17.55c-0.03-0.03-0.06-0.06-0.09-0.08
		c-0.08,0.07-0.21,0.13-0.24,0.21c-0.07,0.2-0.08,0.41-0.12,0.62c-0.07,0.41-0.22,0.81-0.21,1.22c0.02,3.65,0.06,7.31,0.11,10.96
		c0,0.24,0.07,0.56,0.24,0.69c0.31,0.24,0.17,0.44,0.07,0.69c-0.03,0.08-0.07,0.19-0.03,0.24c0.04,0.05,0.16,0.04,0.27,0.07V17.55z
		 M1.19,17.51v14.63c0.27,0.03,0.35-0.04,0.23-0.29c-0.08-0.17-0.31-0.36-0.09-0.55c0.28-0.25,0.37-0.56,0.38-0.9
		c0.04-3.16,0.06-6.33,0.11-9.49c0.02-1-0.06-1.98-0.23-2.97C1.56,17.75,1.52,17.49,1.19,17.51 M3.79,17.41
		c-0.16,0.12-0.28,0.17-0.3,0.25c-0.07,0.21-0.09,0.43-0.14,0.65c-0.07,0.39-0.2,0.77-0.2,1.16c0.02,3.67,0.05,7.33,0.1,11
		c0,0.26,0.13,0.57,0.31,0.76c0.14,0.16,0.17,0.25,0.09,0.41c-0.05,0.09-0.12,0.18-0.13,0.27c-0.01,0.07,0.05,0.15,0.08,0.22
		c0.06-0.05,0.18-0.09,0.18-0.14c0.02-0.2,0-0.4,0-0.6l0.01-11.95C3.79,18.81,3.79,18.17,3.79,17.41 M22.23,4.34
		c0-0.02,0-0.04,0.01-0.06c-1.82-0.86-3.65-1.73-5.48-2.58c-0.1-0.05-0.28-0.02-0.39,0.03c-1.15,0.53-2.3,1.08-3.45,1.62
		c-0.66,0.31-1.31,0.63-1.97,0.94c0.01,0.02,0.02,0.03,0.02,0.05H22.23z M16.61,7.1L16.61,7.1c-1.59,0-3.19,0-4.78-0.01
		c-0.32,0-0.4,0.1-0.39,0.4c0.02,0.67,0.02,1.34,0,2c-0.01,0.3,0.1,0.38,0.39,0.38c3.17-0.01,6.35-0.02,9.52-0.01
		c0.33,0,0.39-0.11,0.38-0.41c-0.02-0.68-0.02-1.36,0-2.04c0.01-0.27-0.08-0.33-0.34-0.33C19.8,7.1,18.21,7.1,16.61,7.1
		 M31.66,10.53c-0.12-0.01-0.21-0.02-0.3-0.02c-2.46,0-4.92,0-7.37-0.01c-0.25,0-0.36,0.07-0.35,0.34c0.02,0.35,0.07,0.41,0.51,0.41
		c2.41,0,4.82,0,7.23,0c0.09,0,0.18-0.02,0.28-0.03V10.53z M9.51,10.53c-0.13-0.01-0.24-0.02-0.34-0.02c-2.44,0-4.88,0.01-7.31-0.01
		c-0.36,0-0.35,0.17-0.37,0.43c-0.02,0.32,0.14,0.33,0.38,0.33c1.42-0.01,2.84,0,4.25,0c0.96,0,1.92,0,2.88-0.01
		c0.5,0,0.52-0.03,0.51-0.5C9.53,10.68,9.52,10.63,9.51,10.53 M11.85,16.41c0.12,0.01,0.24,0.02,0.37,0.02c2.9,0,5.81,0,8.71,0
		c0.07,0,0.16,0.03,0.21-0.01c0.09-0.06,0.2-0.15,0.21-0.24c0.04-0.28-0.12-0.39-0.4-0.39c-2.88,0-5.76,0-8.64,0
		C11.85,15.81,11.77,15.92,11.85,16.41 M13.01,27.67c0,2.11,0,4.19,0,6.28c0,0.06,0.04,0.17,0.07,0.17
		c0.22,0.02,0.44,0.04,0.65-0.01c0.06-0.01,0.1-0.24,0.1-0.37c0-1.93-0.01-3.86-0.03-5.79c0-0.09-0.01-0.18-0.02-0.29H13.01z
		 M6.7,9.86c1.53,0,2.98,0,4.42-0.01c0.06,0,0.16-0.13,0.16-0.21c0.01-0.77,0.01-1.55,0-2.32c0-0.08-0.14-0.22-0.21-0.22
		c-0.49-0.02-0.98-0.02-1.47,0c-0.08,0-0.23,0.14-0.23,0.21c0,0.94-0.56,1.51-1.29,1.93C7.67,9.48,7.21,9.64,6.7,9.86 M19.42,34.14
		c0.17,0,0.29-0.02,0.4,0c0.36,0.06,0.47-0.08,0.44-0.44c-0.04-0.64-0.04-1.28-0.05-1.93c-0.01-1.24-0.02-2.48,0.01-3.72
		c0.01-0.35-0.11-0.46-0.44-0.41c-0.12,0.02-0.25,0.01-0.36,0.02V34.14z M21.88,7.1c0,0.82,0.02,1.58-0.01,2.33
		c-0.01,0.34,0.1,0.45,0.43,0.45c1.26-0.02,2.53-0.01,3.79-0.02c0.08,0,0.16-0.02,0.24-0.04c-0.24-0.14-0.49-0.2-0.72-0.31
		c-0.96-0.45-1.75-1.04-1.82-2.23c0-0.07-0.11-0.19-0.18-0.19C23.07,7.09,22.51,7.1,21.88,7.1 M17,23.05
		c0.66-0.14,0.95-0.88,0.85-1.37c-0.15-0.7-0.67-1.07-1.41-1.01c-0.58,0.04-1.07,0.57-1.1,1.17c-0.03,0.6,0.33,1.1,0.88,1.18
		c-0.02-0.12-0.06-0.23-0.06-0.34c0-0.1-0.01-0.25,0.05-0.29c0.14-0.09,0.26-0.16,0.25-0.35c0-0.03,0.1-0.09,0.16-0.09
		c0.04,0,0.12,0.07,0.12,0.1c-0.02,0.19,0.09,0.24,0.24,0.31c0.06,0.03,0.06,0.21,0.07,0.32C17.04,22.8,17.02,22.91,17,23.05
		 M21.3,17.35c0.12-0.3,0.03-0.4-0.27-0.4c-0.6,0.01-1.19,0-1.79,0c-2.34,0-4.68,0-7.03,0c-0.43,0-0.45,0.03-0.34,0.4H21.3z
		 M22.08,10.03c-0.09-0.01-0.18-0.02-0.27-0.02c-3.36,0-6.72,0-10.08,0c-0.16,0-0.33-0.01-0.49,0.01c-0.06,0.01-0.16,0.11-0.16,0.16
		c0.01,0.06,0.09,0.15,0.16,0.17c0.1,0.03,0.21,0.01,0.31,0.01c2.07,0,4.14,0,6.22,0c1.35,0,2.69,0,4.04,0
		C22.06,10.37,22.18,10.31,22.08,10.03 M15.83,23.34c-1.1-0.78-0.95-1.89-0.42-2.51c0.53-0.62,1.6-0.67,2.25-0.1
		c0.34,0.3,0.5,0.68,0.52,1.11c0.03,0.65-0.3,1.13-0.83,1.5c0.12,0.09,0.22,0.16,0.3,0.22c0.81-0.57,1.1-1.41,0.8-2.31
		c-0.26-0.78-1.06-1.35-1.88-1.32c-0.93,0.03-1.7,0.62-1.92,1.47c-0.22,0.84,0.13,1.71,0.87,2.16
		C15.63,23.49,15.72,23.43,15.83,23.34 M10.96,12.26H9.72v2.77h1.23V12.26z M30.08,12.25c0,0.89,0,1.74,0.01,2.59
		c0,0.07,0.11,0.18,0.18,0.19c0.35,0.02,0.69,0.01,1.05,0.01v-2.78H30.08z M22.22,12.25c0,0.88,0,1.73,0.01,2.58
		c0,0.07,0.11,0.19,0.18,0.19c0.35,0.02,0.69,0.01,1.06,0.01v-2.78H22.22z M3.11,12.26H1.88v2.75h1.22V12.26z M20.09,26.63
		c0.12-0.34,0.03-0.47-0.32-0.46c-2.11,0.01-4.21,0.01-6.32,0.01c-0.12,0-0.25,0.01-0.37,0.02v0.44H20.09z M17.11,23.72
		c-0.09-0.08-0.17-0.15-0.23-0.23c-0.2-0.24-0.43-0.21-0.59,0.01c-0.17,0.24-0.32,0.24-0.52,0.03c-0.16,0.36-0.23,0.72-0.01,1
		c0.2,0.25,0.1,0.42,0,0.61c-0.14,0.27,0.02,0.65,0.34,0.67c0.34,0.02,0.68,0.02,1.02,0c0.29-0.02,0.43-0.39,0.32-0.66
		c-0.07-0.17-0.23-0.33-0.02-0.58c0.24-0.28,0.2-0.67-0.02-1.02C17.29,23.61,17.21,23.67,17.11,23.72 M21.21,15.08h-9.25
		c0.01,0.13,0.03,0.22,0.04,0.31h9.21V15.08z M9.56,10.01H9.15c-1.98,0-3.96,0-5.94,0c-0.22,0-0.41,0-0.51-0.26
		C2.67,9.69,2.3,9.68,2.29,9.71c-0.1,0.27-0.3,0.29-0.53,0.31c-0.09,0.01-0.17,0.1-0.26,0.16c0.09,0.06,0.16,0.15,0.26,0.18
		c0.1,0.03,0.21,0.01,0.31,0.01c1.39,0,2.79,0,4.18,0c1.01,0,2.02-0.01,3.02-0.01C9.48,10.36,9.69,10.36,9.56,10.01 M26.77,16.45
		L26.77,16.45c0.72-0.01,1.43-0.02,2.14,0c0.28,0.01,0.32-0.12,0.29-0.34c-0.03-0.26-0.22-0.3-0.43-0.3c-1.15,0-2.3,0-3.44,0
		c-0.21,0-0.42-0.01-0.63,0.01c-0.22,0.02-0.36,0.12-0.36,0.38c0.01,0.27,0.17,0.26,0.36,0.26C25.39,16.44,26.08,16.45,26.77,16.45
		 M8.8,16.41c0.06-0.45-0.01-0.59-0.32-0.6c-1.38-0.01-2.76,0-4.14,0c-0.24,0-0.35,0.13-0.36,0.37c-0.01,0.28,0.17,0.25,0.35,0.25
		c1.41,0,2.83,0,4.24,0C8.65,16.44,8.73,16.42,8.8,16.41 M23.64,10.01c-0.11,0.39,0.12,0.36,0.32,0.36c1.66,0,3.33,0,4.99,0
		c0.81,0,1.62,0.01,2.42-0.01c0.1,0,0.19-0.1,0.29-0.16c-0.09-0.06-0.17-0.17-0.26-0.17c-0.23-0.02-0.41-0.04-0.49-0.3
		c-0.01-0.04-0.37-0.05-0.4,0.02c-0.12,0.25-0.31,0.29-0.55,0.29c-1.97-0.01-3.94-0.01-5.9-0.02
		C23.93,10.01,23.79,10.01,23.64,10.01 M22,11.87c-0.29-0.17-10.63-0.14-10.82,0.03C11.54,12.05,21.8,12.03,22,11.87 M21.72,6.78
		l-0.03-0.1H11.51c-0.01,0.04-0.02,0.09-0.03,0.13c0.13,0.03,0.27,0.09,0.4,0.09c1.03,0.01,2.06,0,3.09,0c2.12,0,4.24,0,6.36-0.01
		C21.47,6.9,21.6,6.82,21.72,6.78 M22.07,33.48h1.67c0-0.43,0.01-0.83-0.01-1.22c-0.01-0.09-0.12-0.24-0.18-0.24
		c-0.5-0.02-0.99-0.01-1.48-0.01V33.48z M29.94,32c0,0.44-0.01,0.83,0.01,1.23c0,0.1,0.1,0.27,0.16,0.27
		c0.5,0.02,0.99,0.01,1.51,0.01c0-0.44,0.02-0.83-0.01-1.21c-0.01-0.1-0.14-0.28-0.22-0.28C30.9,31.98,30.42,32,29.94,32 M9.51,32
		c0,0.47-0.01,0.9,0.01,1.33c0,0.07,0.14,0.18,0.23,0.18c0.41,0.02,0.82,0.02,1.23-0.01c0.08-0.01,0.22-0.13,0.23-0.22
		c0.02-0.34,0.02-0.68,0-1.02c-0.01-0.09-0.12-0.26-0.2-0.26C10.52,31.99,10.03,32,9.51,32 M1.68,33.51c0.5,0,0.97,0.01,1.45-0.01
		c0.07,0,0.18-0.13,0.19-0.21c0.02-0.35,0.02-0.7,0-1.05c0-0.08-0.11-0.23-0.18-0.23C2.66,31.99,2.17,32,1.68,32V33.51z M2.5,33.84
		c-0.12,0-0.23,0-0.35,0c-0.87,0.02-0.7-0.17-0.74,0.77c-0.01,0.2,0.07,0.27,0.27,0.27c0.55-0.01,1.1-0.01,1.65-0.03
		c0.08,0,0.21-0.07,0.21-0.12c0.02-0.26,0.03-0.51,0.01-0.77c0-0.05-0.15-0.12-0.24-0.12C3.03,33.83,2.76,33.84,2.5,33.84
		 M20.47,34.69c0.23,0.01,0.37,0,0.5,0.02c0.32,0.05,0.4-0.09,0.39-0.39c-0.02-0.45,0-0.91-0.01-1.37
		c-0.01-0.73,0.09-0.62-0.63-0.64c-0.27-0.01-0.34,0.1-0.33,0.35C20.42,33.33,20.44,34,20.47,34.69 M9.49,11.82H1.01
		C1.26,12.02,9.12,12.05,9.49,11.82 M23.72,11.77c0,0.06,0,0.11,0,0.17h8.4v-0.17C29.32,11.77,26.52,11.77,23.72,11.77 M11.95,34.77
		c0.62,0.05,0.61,0.05,0.8-0.45c0.25-0.65,0.06-1.3,0.12-1.98h-0.92V34.77z M9.29,34.8h1.35c0.84,0,0.84,0,0.77-0.84
		c0-0.03-0.03-0.06-0.05-0.1H9.29V34.8z M11.54,6.34c0,0.03,0,0.06,0.01,0.09h10.08c0-0.03,0-0.06,0-0.09H11.54z M8.81,25.54
		c-1.58,0-3.13,0-4.67,0.01c-0.07,0-0.14,0.12-0.22,0.19C4,25.8,4.07,25.92,4.15,25.93c0.27,0.02,0.54,0.01,0.81,0.01
		c1.18,0,2.37,0,3.55,0c0.1,0,0.2-0.02,0.31-0.03V25.54z M24.41,17.36h0.87c1.21,0,2.41,0,3.62,0c0.21,0,0.37-0.03,0.29-0.28
		c-0.02-0.07-0.2-0.13-0.31-0.13c-1.41-0.01-2.81,0-4.22-0.01C24.36,16.95,24.29,17.07,24.41,17.36 M8.79,16.96
		c-1.54,0-3.07,0-4.6,0.01c-0.07,0-0.14,0.13-0.21,0.2c0.1,0.06,0.2,0.18,0.3,0.18c1.42,0.01,2.83,0,4.25,0.01
		C8.8,17.37,8.88,17.27,8.79,16.96 M26.83,25.54c-0.73,0-1.45-0.01-2.18,0.01c-0.1,0-0.19,0.13-0.28,0.19
		c0.09,0.06,0.18,0.18,0.27,0.18c1.44,0.01,2.88,0.01,4.32,0c0.1,0,0.19-0.13,0.29-0.2c-0.1-0.06-0.21-0.17-0.31-0.17
		C28.23,25.53,27.53,25.54,26.83,25.54 M11.95,16.63c0.29,0.23,9.12,0.2,9.32,0H11.95z M30.97,9.46c0-1.01,0-1.99,0-2.97
		c0-0.19,0.01-0.4-0.27-0.4c-0.27,0-0.26,0.22-0.26,0.41c-0.02,0.9-0.03,1.8-0.05,2.7c0,0.09,0.03,0.18,0.04,0.25H30.97z M2.24,9.47
		C2.4,9.35,2.8,9.74,2.8,9.22c0-0.96-0.04-1.91-0.08-2.87c0-0.09-0.16-0.18-0.24-0.26C2.4,6.17,2.25,6.25,2.25,6.33
		C2.24,7.36,2.24,8.39,2.24,9.47 M22.94,33.84c-0.26,0-0.51,0.02-0.77-0.01c-0.31-0.03-0.36,0.13-0.33,0.37
		c0.02,0.22-0.11,0.52,0.32,0.51c0.51-0.02,1.03-0.02,1.54-0.02c0.4,0,0.27-0.29,0.29-0.5c0.02-0.23-0.02-0.39-0.31-0.36
		C23.43,33.85,23.18,33.84,22.94,33.84 M31.81,33.84H30.3c-0.66,0-0.66,0-0.6,0.65c0,0.03,0.03,0.06,0.04,0.1h2.08V33.84z
		 M29.07,15.07h-4.58c0.01,0.12,0.02,0.22,0.03,0.32h4.55V15.07z M8.75,15.16c-0.03-0.03-0.07-0.06-0.1-0.09H4.14v0.34
		c1.47,0,2.91,0,4.36-0.01C8.59,15.4,8.67,15.24,8.75,15.16 M9.81,10.01c-0.04,0.26-0.09,0.46-0.11,0.67
		c-0.08,0.53-0.04,0.57,0.51,0.57c0.09,0,0.19,0,0.28,0c0.54,0,0.55-0.01,0.49-0.55c-0.02-0.19-0.05-0.38-0.09-0.57
		c-0.01-0.05-0.09-0.12-0.14-0.12C10.42,10.01,10.1,10.01,9.81,10.01 M23.4,10.01c-0.31,0-0.62-0.01-0.94,0
		c-0.06,0-0.16,0.06-0.16,0.09c-0.04,0.37-0.06,0.74-0.09,1.14c0.39,0,0.72-0.01,1.04,0c0.18,0.01,0.26-0.07,0.24-0.25
		C23.46,10.69,23.43,10.38,23.4,10.01 M13.1,26.83c0.54,0.26,6.61,0.28,7.06,0H13.1z M10.53,18.79c0.07-0.18,0.15-0.38,0.23-0.58
		c0.02,0,0.04,0.01,0.05,0.01c0.01,0.1,0.02,0.21,0.03,0.31c0.01,0,0.02,0,0.04,0.01c0.07-0.34,0.13-0.68,0.2-1.03H9.52
		c0.23,0.45,0.44,0.87,0.63,1.24c0.06-0.06,0.13-0.13,0.21-0.2C10.41,18.64,10.46,18.71,10.53,18.79 M29.89,17.52
		c0.24,0.48,0.47,0.92,0.68,1.34c0.01-0.07,0.02-0.17,0.04-0.4c0.15,0.14,0.23,0.22,0.31,0.3c0.19-0.38,0.4-0.8,0.62-1.23H29.89z
		 M1.65,17.52c0.23,0.44,0.44,0.85,0.64,1.22c0.07-0.06,0.15-0.18,0.19-0.16c0.08,0.03,0.15,0.12,0.2,0.17
		c0.2-0.39,0.41-0.79,0.63-1.23H1.65z M23.04,18.77c0.2-0.4,0.42-0.82,0.63-1.24h-1.63c0.23,0.45,0.44,0.87,0.63,1.24
		c0.05-0.05,0.12-0.13,0.21-0.21C22.94,18.64,23,18.71,23.04,18.77 M0.44,14.9h0.61c0.7,0,0.72-0.02,0.64-0.72
		c-0.01-0.08-0.1-0.2-0.16-0.21c-0.36-0.02-0.71-0.01-1.09-0.01V14.9z M31.51,14.88h1.23v-0.9h-1.23V14.88z M32.03,16.95
		c-0.8,0-1.55,0-2.31,0c-0.07,0-0.16-0.02-0.21,0.02c-0.07,0.06-0.13,0.15-0.14,0.23c0,0.05,0.11,0.15,0.17,0.15
		c0.83,0.01,1.65,0.01,2.48,0.01V16.95z M24.14,17.36c0.11-0.32,0-0.41-0.29-0.41c-0.56,0.01-1.12,0-1.69,0
		c-0.16,0-0.33-0.02-0.49,0.02c-0.07,0.01-0.14,0.14-0.14,0.22c-0.01,0.05,0.1,0.16,0.16,0.16C22.51,17.36,23.33,17.36,24.14,17.36
		 M11.65,16.96c-0.84,0-1.63-0.01-2.42,0.01c-0.08,0-0.15,0.14-0.23,0.22c0.08,0.06,0.16,0.16,0.24,0.17
		c0.28,0.02,0.56,0.01,0.84,0.01c0.52,0,1.04,0,1.57,0V16.96z M1.19,17.33h2.59c0.09-0.28,0.01-0.39-0.27-0.39
		c-0.69,0.01-1.38,0.01-2.07,0C1.15,16.94,1.1,17.07,1.19,17.33 M24.49,16.62c-0.01,0.03-0.02,0.06-0.02,0.09
		c0.07,0.03,0.13,0.07,0.2,0.07c1.42,0,2.83,0.01,4.24,0c0.07,0,0.13-0.05,0.2-0.08c-0.01-0.03-0.02-0.05-0.03-0.08H24.49z
		 M4.11,16.64c0,0.03,0,0.06-0.01,0.1h4.6c0-0.03,0-0.07,0-0.1H4.11z M31.79,13.69c0.32-0.47,0.43-0.93,0.27-1.43h-0.55v1.41
		C31.63,13.69,31.72,13.69,31.79,13.69 M11.73,34.8v-2.46c-0.18,0-0.42-0.09-0.38,0.23c0.07,0.72,0.16,1.43,0.25,2.15
		C11.6,34.74,11.65,34.75,11.73,34.8 M3.85,32.36c-0.25-0.08-0.42-0.03-0.38,0.28c0.09,0.71,0.18,1.42,0.28,2.13
		c0,0.01,0.04,0.01,0.1,0.02V32.36z M10.3,15.41L10.3,15.41c0.42,0,0.84,0.01,1.26-0.01c0.07,0,0.14-0.1,0.22-0.16
		c-0.07-0.06-0.13-0.16-0.21-0.18c-0.09-0.03-0.2,0.01-0.3,0.03c-0.14,0.03-0.29,0.1-0.43,0.09c-0.52-0.04-1.05,0.12-1.57-0.11
		c-0.1-0.04-0.38,0.07-0.39,0.14c-0.04,0.25,0.19,0.2,0.34,0.2C9.58,15.41,9.94,15.41,10.3,15.41 M30.68,15.41L30.68,15.41
		c0.41,0,0.82,0.01,1.23-0.01c0.09,0,0.17-0.1,0.26-0.16c-0.1-0.06-0.18-0.14-0.28-0.19c-0.06-0.02-0.14,0-0.2,0.02
		c-0.16,0.03-0.33,0.11-0.49,0.1c-0.51-0.04-1.04,0.12-1.55-0.11c-0.09-0.04-0.27,0.1-0.41,0.15c0.11,0.06,0.23,0.18,0.34,0.18
		C29.95,15.43,30.31,15.41,30.68,15.41 M22.84,15.41c0.41,0,0.82,0.01,1.23-0.01c0.09,0,0.18-0.11,0.26-0.17
		c-0.09-0.06-0.17-0.15-0.27-0.18c-0.08-0.02-0.18,0.01-0.27,0.03c-0.13,0.03-0.26,0.09-0.38,0.09c-0.55-0.03-1.11,0.11-1.65-0.11
		c-0.08-0.03-0.24,0.1-0.36,0.16c0.11,0.06,0.21,0.17,0.32,0.17C22.09,15.42,22.47,15.41,22.84,15.41 M2.49,15.41L2.49,15.41
		c0.41,0,0.82,0.01,1.23-0.01c0.08,0,0.15-0.11,0.22-0.16c-0.06-0.06-0.11-0.15-0.18-0.18c-0.08-0.03-0.19-0.01-0.28,0
		C3.24,15.1,3,15.18,2.75,15.17c-0.44-0.01-0.9,0.12-1.34-0.11c-0.08-0.04-0.26,0.1-0.39,0.16c0.11,0.06,0.23,0.17,0.35,0.18
		C1.74,15.43,2.12,15.41,2.49,15.41 M1.08,12.25c0.04,0.43-0.08,0.82,0.18,1.21c0.13,0.2,0.19,0.28,0.4,0.19v-1.4H1.08z
		 M21.54,32.35v2.34c0.03,0,0.06,0.01,0.09,0.01c0.02-0.13,0.04-0.26,0.05-0.38c0.01-0.19-0.06-0.44,0.04-0.55
		c0.29-0.35,0.15-0.74,0.2-1.11C21.95,32.38,21.82,32.26,21.54,32.35 M29.41,34.58c0.04,0,0.08,0.01,0.12,0.01
		c0.01-0.12,0.02-0.23,0.03-0.35c0.01-0.16-0.05-0.38,0.03-0.48c0.28-0.36,0.16-0.76,0.19-1.15c0.03-0.31-0.12-0.34-0.36-0.26V34.58
		z M11.52,11.41c0,0.01,0,0.02,0,0.03h10.15v-0.03H11.52z M1.5,32.35H1.14v2.48c0.04,0,0.07,0,0.11,0c0-0.17,0-0.33,0-0.5
		c0-0.19-0.07-0.43,0.03-0.55C1.64,33.34,1.43,32.85,1.5,32.35 M24.28,32.36c-0.28-0.1-0.42,0-0.38,0.29
		c0.09,0.66,0.19,1.31,0.28,1.96c0,0.01,0.04,0.02,0.09,0.04V32.36z M8.98,34.8c0.05,0,0.09,0,0.14,0c0-0.14,0-0.28,0-0.42
		c0.01-0.21-0.06-0.47,0.04-0.62c0.33-0.46,0.11-0.94,0.18-1.42H8.98V34.8z M2.72,15.83c0.05,0.2,0.1,0.39,0.16,0.61
		c0.13,0,0.28,0,0.43,0c0.55,0.01,0.59-0.04,0.45-0.61H2.72z M10.07,15.81c-0.27,0-0.56,0.01-0.85,0c-0.19-0.01-0.26,0.07-0.23,0.25
		c0.02,0.16-0.07,0.38,0.21,0.39c0.25,0.01,0.5,0,0.74,0C9.99,16.21,10.03,16.02,10.07,15.81 M22.45,16.44
		c0.06-0.24,0.1-0.42,0.15-0.63c-0.29,0-0.59-0.01-0.88,0.01c-0.07,0.01-0.18,0.12-0.19,0.2c-0.05,0.29,0.02,0.47,0.38,0.42
		C22.09,16.42,22.28,16.44,22.45,16.44 M30.95,15.82c0.06,0.22,0.11,0.41,0.17,0.6h0.9v-0.6H30.95z M23.26,16.44
		c0.14,0,0.28,0,0.43,0c0.54-0.01,0.59-0.06,0.43-0.62h-1.01C23.16,16.03,23.21,16.21,23.26,16.44 M30.3,16.44
		c0.06-0.25,0.11-0.43,0.16-0.63c-0.25,0-0.49,0.01-0.73,0c-0.25-0.01-0.38,0.04-0.37,0.34c0,0.31,0.17,0.3,0.38,0.3
		C29.93,16.43,30.13,16.44,30.3,16.44 M2.09,16.42c0.05-0.23,0.09-0.41,0.12-0.59H1.17c-0.06,0.6-0.06,0.6,0.51,0.61
		C1.82,16.44,1.96,16.43,2.09,16.42 M11.65,15.83h-1.07c0.05,0.2,0.1,0.38,0.14,0.58h0.92V15.83z M31.8,32.35
		c0,0.4-0.09,0.81,0.03,1.15c0.09,0.27,0.16,0.52,0.16,0.79c0,0.09,0.03,0.19,0.04,0.28c0.03,0,0.05-0.01,0.08-0.01v-2.22H31.8z
		 M21.35,16.64c0.36,0.21,2.73,0.2,2.97,0H21.35z M11.78,16.64H8.85C9.17,16.86,11.59,16.84,11.78,16.64 M32.17,16.64h-2.93
		C29.49,16.85,31.91,16.85,32.17,16.64 M1.03,16.64c0.26,0.22,2.69,0.21,2.88,0H1.03z M24.03,11.41c0,0.01,0,0.02,0,0.02h8.14v-0.02
		H24.03z M1.03,11.41c0,0.01,0,0.02,0,0.03h8.1v-0.03H1.03z M12.58,15.57c0,0.01-0.01,0.01-0.02,0.02h7.98v-0.02H12.58z
		 M21.84,31.45c0.08,0.25,0.08,0.25,1.63,0.25c0.17,0,0.4,0.08,0.4-0.25H21.84z M3.51,31.45H1.48c-0.02,0.03-0.03,0.06-0.05,0.09
		c0.09,0.05,0.19,0.15,0.28,0.16C2.9,31.79,3.4,31.72,3.51,31.45 M31.76,31.44h-2.05c-0.01,0.03-0.03,0.05-0.05,0.08
		c0.08,0.06,0.16,0.16,0.25,0.17C30.76,31.81,31.61,31.71,31.76,31.44 M11.35,31.45H9.32c0,0.32,0.23,0.25,0.4,0.25
		C11.25,31.71,11.25,31.71,11.35,31.45 M21.88,6.69c0.14,0.3,1.74,0.32,1.98,0H21.88z M9.36,6.68C9.35,6.71,9.34,6.74,9.34,6.77
		c0.05,0.04,0.1,0.12,0.15,0.12c0.56,0.01,1.12,0.01,1.68,0c0.05,0,0.1-0.12,0.16-0.21H9.36z M21.87,6.34c0,0.03,0,0.06,0.01,0.08
		h1.98l0-0.08H21.87z M9.35,6.34c0,0.03,0.01,0.06,0.01,0.09h1.99c0-0.03,0-0.06,0-0.09H9.35z M8.75,25.33H4.01v0.03h4.74V25.33z
		 M29.15,25.34h-4.67v0.03h4.67V25.34z M30.27,5.64c0.22,0.14,0.35,0.3,0.46,0.28c0.12-0.02,0.25-0.19,0.28-0.32
		c0.01-0.07-0.19-0.25-0.29-0.25C30.6,5.35,30.48,5.5,30.27,5.64 M20.21,27.14h-0.87c0.04,0.14,0.07,0.25,0.09,0.35
		C20.18,27.55,20.21,27.54,20.21,27.14 M2.5,6.06c0.13-0.2,0.29-0.33,0.27-0.44c-0.01-0.11-0.2-0.28-0.3-0.27
		c-0.11,0.01-0.28,0.19-0.29,0.3C2.18,5.76,2.35,5.88,2.5,6.06 M13.02,27.49c0.74,0.04,0.85,0.03,0.8-0.35h-0.86
		C12.97,27.27,12.99,27.38,13.02,27.49 M24.9,15.57c-0.01,0.01-0.01,0.01-0.02,0.02h3.69v-0.02H24.9z M8.06,15.59v-0.01
		c-1.16-0.01-2.33-0.01-3.49-0.01v0.02H8.06z M32.39,13.78c0.14-0.11,0.25-0.2,0.36-0.28c-0.1-0.07-0.21-0.21-0.28-0.19
		c-0.14,0.03-0.27,0.16-0.4,0.24C32.15,13.61,32.24,13.68,32.39,13.78 M13.97,34.72l-0.02-0.18c-0.18,0-0.36-0.01-0.54,0
		c-0.17,0.02-0.34,0.06-0.51,0.1c0.17,0.04,0.34,0.11,0.51,0.13C13.6,34.78,13.78,34.74,13.97,34.72 M10.97,11.93
		c0.01-0.03,0.01-0.06,0.02-0.08H9.67c0,0.03,0,0.06,0,0.08H10.97z M0.78,13.77c0.15-0.09,0.26-0.16,0.37-0.22
		c-0.13-0.09-0.26-0.21-0.41-0.25c-0.08-0.02-0.19,0.13-0.29,0.2C0.55,13.58,0.65,13.67,0.78,13.77 M17.02,22.6
		c-0.21-0.09-0.33-0.19-0.44-0.18c-0.1,0.01-0.18,0.14-0.28,0.22c0.09,0.1,0.2,0.29,0.28,0.28C16.71,22.92,16.82,22.76,17.02,22.6
		 M23.51,11.95c-0.42-0.2-1.16-0.16-1.29,0H23.51z M12.74,25.74c0,0.02,0,0.04-0.01,0.06h2.9v-0.06H12.74z M20.36,34.67
		c0-0.03-0.01-0.06-0.01-0.09h-1.02l0,0.09H20.36z M3.91,15.6c0-0.01,0-0.01,0-0.02H1.03c0,0.01,0,0.01,0,0.02H3.91z M20.47,25.8
		c0-0.02,0-0.04,0-0.06h-2.88v0.06H20.47z M9.29,15.57c-0.01,0.01-0.02,0.01-0.03,0.02h2.54c0-0.01,0-0.01,0-0.02H9.29z
		 M23.15,16.21c-0.13-0.1-0.21-0.2-0.28-0.2c-0.08,0.01-0.15,0.11-0.22,0.18c0.07,0.07,0.13,0.17,0.21,0.19
		C22.93,16.38,23.01,16.29,23.15,16.21 M10.61,16.18c-0.13-0.08-0.22-0.18-0.29-0.17c-0.07,0.01-0.13,0.12-0.2,0.19
		c0.07,0.06,0.14,0.17,0.21,0.17C10.41,16.37,10.48,16.27,10.61,16.18 M2.77,16.2c-0.13-0.09-0.21-0.2-0.28-0.19
		c-0.08,0-0.15,0.11-0.22,0.17c0.07,0.07,0.13,0.18,0.2,0.19C2.54,16.38,2.63,16.29,2.77,16.2 M31,16.2c-0.13-0.1-0.2-0.2-0.28-0.19
		c-0.07,0-0.14,0.11-0.21,0.17c0.07,0.07,0.12,0.18,0.19,0.19C30.77,16.38,30.86,16.29,31,16.2 M22.08,15.59h1.53v-0.02h-1.53V15.59
		z M31.46,15.6c0-0.01,0-0.01,0-0.02h-1.5v0.02H31.46z M23.52,33.66c0.01,0,0.02,0,0.03,0c-0.46,0-0.92,0-1.39,0H23.52z"/>
	<path class="st0" d="M7.85,23.93H4.91v-3.85h2.93V23.93z M7.71,23.83c0-1.17,0-2.3-0.01-3.43c0-0.07-0.17-0.18-0.26-0.18
		c-0.71-0.01-1.43,0-2.14-0.01c-0.22,0-0.28,0.09-0.28,0.29c0,1.03,0.01,2.06,0,3.09c0,0.18,0.07,0.25,0.25,0.25
		C6.06,23.83,6.86,23.83,7.71,23.83"/>
	<path class="st0" d="M28.32,23.93h-2.99v-0.59c0-0.99,0.01-1.97-0.01-2.95c0-0.27,0.09-0.34,0.35-0.34c0.77,0.01,1.55,0,2.32,0
		c0.17,0,0.33-0.01,0.33,0.24C28.32,21.49,28.32,22.68,28.32,23.93 M28.09,23.83c0.03-0.06,0.05-0.09,0.05-0.12
		c0.01-1.1,0.01-2.2,0-3.3c0-0.07-0.16-0.19-0.24-0.2c-0.73-0.02-1.45-0.01-2.18,0c-0.08,0-0.23,0.13-0.23,0.2
		c-0.01,1.07-0.01,2.13,0,3.2c0,0.07,0.12,0.21,0.19,0.21C26.49,23.83,27.29,23.83,28.09,23.83"/>
	<path class="st0" d="M14.68,34.27c-0.28,0.06-0.47,0.09-0.47-0.27c0-1.99-0.01-3.98-0.02-5.97c0-0.18,0.04-0.29,0.24-0.29
		c1.5,0,2.99,0,4.53,0c0.01,0.15,0.03,0.27,0.03,0.39c0,0.68,0,1.36,0,2.04c0.01,1.24,0.03,2.48,0.05,3.72
		c0,0.08,0.03,0.18-0.01,0.24c-0.05,0.08-0.15,0.16-0.24,0.17c-0.06,0.01-0.18-0.11-0.18-0.18c-0.02-0.29,0-0.58-0.01-0.88
		c-0.02-1.6-0.04-3.2-0.06-4.8c0-0.08-0.02-0.16-0.03-0.26h-3.83V34.27z M18.74,34.1c0.04,0,0.09,0,0.13,0.01
		c0.01-0.13,0.02-0.26,0.02-0.39c-0.01-1.8-0.03-3.61-0.02-5.41c0-0.35-0.11-0.44-0.44-0.43c-1.22,0.01-2.44,0.02-3.66,0
		c-0.33,0-0.45,0.08-0.44,0.43c0.03,1.84,0.03,3.68,0.04,5.52c0,0.09,0.02,0.18,0.03,0.27c0.04,0,0.07-0.01,0.11-0.01v-6.04h4.22
		V34.1z"/>
	<path class="st0" d="M4.38,27.04c0.37-0.27,3.51-0.29,3.99-0.02c-0.08,0.12-0.14,0.34-0.24,0.35c-0.43,0.07-0.27,0.37-0.28,0.6
		c0,1.03-0.01,2.06,0,3.09c0,0.2,0.12,0.4,0.1,0.59c-0.02,0.14-0.18,0.37-0.28,0.38c-0.88,0.03-1.75,0.02-2.63,0.01
		c-0.25,0-0.34-0.22-0.24-0.44c0.05-0.11,0.07-0.24,0.07-0.36c0.01-1.05,0.01-2.11,0-3.16c0-0.28,0.14-0.61-0.29-0.74
		C4.5,27.31,4.45,27.15,4.38,27.04 M7.38,31.49c0-1.09,0-2.14-0.01-3.19c0-0.07-0.18-0.19-0.28-0.2c-0.47-0.02-0.93,0-1.4-0.02
		c-0.25-0.01-0.32,0.09-0.32,0.33c0.01,0.92,0,1.85,0,2.77c0,0.1,0.02,0.2,0.04,0.3H7.38z M7.69,27.78c-0.84,0-1.65-0.01-2.47,0.01
		c-0.07,0-0.18,0.16-0.18,0.25c-0.01,1.1-0.01,2.2-0.01,3.3c0,0.08,0.04,0.15,0.06,0.22c0.03,0,0.06-0.01,0.1-0.01
		c0.01-0.12,0.02-0.24,0.02-0.37c0-0.97,0.01-1.94,0-2.91c0-0.26,0.09-0.36,0.34-0.35c0.54,0.01,1.08,0.02,1.62,0
		c0.31-0.01,0.41,0.1,0.4,0.4c-0.01,0.97-0.01,1.94-0.01,2.91c0,0.11,0.03,0.22,0.04,0.33c0.03,0,0.06-0.01,0.1-0.01V27.78z
		 M8.01,27.23c0-0.03,0-0.06,0-0.1H4.74c0,0.03,0,0.06,0,0.1H8.01z M7.7,31.87c0-0.03-0.01-0.06-0.01-0.09H5.03
		c0,0.03,0,0.06,0,0.09H7.7z M5.13,27.49c0,0.03,0,0.06,0,0.1h2.48c0-0.03,0-0.06,0-0.1H5.13z"/>
	<path class="st0" d="M24.77,27.05c0.52-0.27,3.62-0.27,4.1,0c-0.18,0.15-0.34,0.28-0.48,0.41c-0.05,0.05-0.11,0.13-0.11,0.19
		c0.01,1.17,0.03,2.34,0.05,3.51c0,0.17,0.11,0.34,0.08,0.5c-0.03,0.14-0.17,0.37-0.27,0.38c-0.88,0.03-1.76,0.03-2.63,0.02
		c-0.27,0-0.35-0.22-0.22-0.48c0.05-0.1,0.05-0.22,0.05-0.34c0.01-1.19,0.02-2.39,0.02-3.58c0-0.07-0.07-0.15-0.13-0.2
		C25.09,27.32,24.95,27.2,24.77,27.05 M27.82,31.49c0-1.09,0-2.14-0.01-3.19c0-0.07-0.09-0.19-0.14-0.19
		c-0.61-0.01-1.23-0.01-1.85-0.01v3.39H27.82z M28.01,31.58c0.03,0,0.06,0,0.09,0c0.02-0.07,0.06-0.15,0.06-0.22
		c0-1.11,0-2.22,0-3.34c0-0.18-0.08-0.24-0.25-0.24c-0.73,0-1.45,0-2.18,0c-0.2,0-0.26,0.09-0.26,0.28c0.01,1.09,0,2.18,0.01,3.27
		c0,0.08,0.04,0.17,0.06,0.25c0.04-0.01,0.07-0.01,0.11-0.02v-0.38c0-0.95,0.02-1.9-0.01-2.84c-0.01-0.34,0.11-0.42,0.42-0.41
		c0.49,0.02,0.99,0.03,1.47,0c0.38-0.03,0.46,0.13,0.45,0.46c-0.02,0.94-0.01,1.87-0.01,2.81C27.98,31.32,28,31.45,28.01,31.58
		 M25.21,27.14c0,0.03,0,0.06,0,0.09h3.24c0-0.03,0-0.06,0-0.09H25.21z M25.48,31.78c0,0.03,0,0.06,0,0.09h2.67
		c0-0.03,0-0.06,0-0.09H25.48z M25.54,27.59h2.55C27.78,27.38,25.8,27.38,25.54,27.59"/>
	<path class="st0" d="M19.96,14.34h-6.73c0-0.56-0.01-1.11,0.01-1.65c0-0.07,0.2-0.18,0.3-0.18c0.77-0.02,1.54-0.01,2.32-0.01
		c1.23,0,2.46,0.01,3.69-0.01c0.3,0,0.43,0.07,0.41,0.39C19.95,13.36,19.96,13.82,19.96,14.34 M16.61,14.24c0.96,0,1.92-0.01,2.88,0
		c0.26,0,0.36-0.07,0.35-0.34c-0.02-0.33,0.01-0.66-0.02-0.98c-0.01-0.09-0.14-0.22-0.24-0.24c-0.17-0.04-0.35-0.01-0.52-0.01
		c-1.77,0-3.53,0.01-5.3-0.01c-0.31,0-0.41,0.09-0.39,0.4c0.02,0.28,0.02,0.56,0,0.84c-0.02,0.26,0.07,0.35,0.34,0.34
		C14.67,14.23,15.64,14.24,16.61,14.24"/>
	<path class="st0" d="M12.53,14.34c-0.85,0.1-0.85,0.1-0.84-0.72c0-0.27,0.01-0.54,0-0.81c-0.01-0.22,0.07-0.31,0.31-0.31
		c0.58-0.01,0.58-0.02,0.58,0.56c0,0.4,0,0.8-0.01,1.19C12.57,14.27,12.55,14.29,12.53,14.34 M11.84,13.45L11.84,13.45
		c0,0.17,0,0.35-0.01,0.52c-0.01,0.23,0.12,0.26,0.31,0.26c0.19,0,0.28-0.06,0.27-0.26c-0.01-0.34-0.01-0.67,0-1.01
		c0.01-0.22-0.08-0.31-0.31-0.31c-0.23,0-0.28,0.11-0.27,0.31C11.85,13.13,11.84,13.29,11.84,13.45"/>
	<path class="st0" d="M21.49,14.34h-0.85c0-0.56,0-1.11,0-1.65c0-0.05,0.04-0.14,0.07-0.14c0.22-0.02,0.44-0.05,0.65,0
		c0.07,0.01,0.11,0.25,0.12,0.39C21.5,13.39,21.49,13.85,21.49,14.34 M21.34,13.44c0-0.17-0.01-0.35,0-0.53
		c0.01-0.21-0.1-0.25-0.29-0.25c-0.18,0-0.29,0.04-0.28,0.25c0.01,0.33,0.01,0.66,0,0.98c-0.01,0.23,0.05,0.34,0.31,0.34
		c0.27,0,0.27-0.15,0.26-0.34C21.33,13.75,21.34,13.59,21.34,13.44"/>
	<path class="st0" d="M7.37,14.34H5.39c0-0.55-0.01-1.11,0.01-1.67c0-0.06,0.13-0.16,0.21-0.16c0.5-0.02,1.01-0.01,1.51-0.01
		c0.2,0,0.26,0.1,0.25,0.29C7.36,13.29,7.37,13.8,7.37,14.34 M5.52,14.23c0.54,0,1.02,0.01,1.5-0.01c0.07,0,0.19-0.15,0.2-0.24
		c0.02-0.35-0.01-0.7,0.01-1.05c0.01-0.21-0.08-0.27-0.27-0.27c-0.4,0-0.8-0.01-1.19,0.01c-0.08,0-0.23,0.13-0.23,0.21
		C5.51,13.31,5.52,13.75,5.52,14.23"/>
	<path class="st0" d="M4.63,14.29c-0.05,0.04-0.06,0.05-0.07,0.05c-0.78,0.09-0.78,0.09-0.78-0.69c0-0.29,0.01-0.58,0-0.87
		c-0.01-0.32,0.21-0.29,0.4-0.27c0.19,0.01,0.46-0.1,0.45,0.26c0,0.06,0,0.12,0,0.17V14.29z M4.46,12.7H3.94v1.51h0.51V12.7z"/>
	<path class="st0" d="M8.92,14.34h-0.8c0-0.56-0.01-1.09,0.01-1.63c0-0.07,0.1-0.18,0.18-0.2c0.54-0.12,0.67-0.02,0.66,0.53
		c0,0.4-0.01,0.8-0.01,1.2C8.96,14.27,8.94,14.29,8.92,14.34 M8.29,12.69v1.54c0.21-0.06,0.5,0.15,0.52-0.2
		c0.03-0.44,0.01-0.88,0.01-1.34H8.29z"/>
	<path class="st0" d="M27.83,14.35h-1.99c0-0.56-0.01-1.1,0.01-1.65c0-0.07,0.13-0.18,0.2-0.18c0.51-0.02,1.03-0.02,1.54,0
		c0.08,0,0.23,0.14,0.23,0.22C27.84,13.26,27.83,13.78,27.83,14.35 M25.97,14.23c0.52,0,1,0.01,1.47-0.01c0.07,0,0.2-0.15,0.2-0.24
		c0.02-0.36,0.02-0.72,0-1.08c-0.01-0.08-0.14-0.22-0.21-0.22c-0.42-0.02-0.84-0.02-1.26,0c-0.07,0-0.19,0.13-0.19,0.21
		C25.96,13.31,25.97,13.74,25.97,14.23"/>
	<path class="st0" d="M29.42,14.34h-0.88c0-0.56,0-1.1,0-1.64c0-0.05,0.04-0.14,0.07-0.14c0.23-0.02,0.46-0.05,0.68-0.01
		c0.06,0.01,0.11,0.25,0.12,0.39C29.43,13.39,29.42,13.86,29.42,14.34 M28.73,14.18c0.51,0.11,0.55,0.09,0.55-0.39
		c0-0.22,0-0.44,0-0.67c0-0.49-0.01-0.5-0.55-0.42V14.18z"/>
	<path class="st0" d="M25.09,14.35h-0.87c0-0.56-0.01-1.1,0.01-1.65c0-0.07,0.12-0.16,0.2-0.18c0.13-0.03,0.29-0.04,0.41,0
		c0.1,0.03,0.23,0.16,0.24,0.25C25.1,13.27,25.09,13.79,25.09,14.35 M24.39,14.28c0.22-0.13,0.52,0.15,0.54-0.27
		c0.02-0.37,0-0.75,0.01-1.12c0-0.21-0.12-0.22-0.27-0.22c-0.15,0-0.28,0-0.28,0.21C24.39,13.31,24.39,13.74,24.39,14.28"/>
	<path class="st0" d="M20.35,3.94h-7.5c-0.01-0.03-0.02-0.06-0.03-0.09c0.1-0.06,0.2-0.13,0.3-0.18c1.08-0.51,2.15-1.02,3.24-1.52
		c0.12-0.06,0.31-0.08,0.43-0.03c1.16,0.53,2.3,1.09,3.45,1.63c0.05,0.02,0.09,0.06,0.13,0.09C20.35,3.88,20.35,3.91,20.35,3.94
		 M16.6,3.82L16.6,3.82c0.22-0.01,0.44-0.01,0.67-0.01c0.52,0.01,0.79-0.31,0.7-0.84c-0.01-0.06-0.07-0.14-0.12-0.18
		c-0.7-0.39-1.39-0.77-2.2-0.17c-0.4,0.29-0.5,0.38-0.35,0.88c0.07,0.25,0.18,0.34,0.44,0.32C16.02,3.81,16.31,3.82,16.6,3.82
		 M15.03,2.95c-0.56,0.27-1.1,0.52-1.64,0.78c0.01,0.02,0.01,0.04,0.02,0.07h1.79C15.14,3.51,15.09,3.26,15.03,2.95 M17.99,3.78
		h1.79c0-0.02,0.01-0.04,0.01-0.07c-0.54-0.25-1.09-0.51-1.63-0.76C18.1,3.24,18.05,3.49,17.99,3.78"/>
	<path class="st0" d="M19.93,9.7h-6.67V7.33h6.67V9.7z M13.39,9.58h0.4c1.85,0,3.7,0,5.55,0c0.09,0,0.2,0.02,0.28-0.01
		c0.08-0.03,0.18-0.12,0.19-0.19c0.01-0.63,0.01-1.26,0.01-1.9h-6.42V9.58z"/>
	<path class="st0" d="M12.75,9.69h-0.93c-0.01-0.17-0.03-0.34-0.03-0.51c0-0.53,0.01-1.05,0-1.58c0-0.2,0.06-0.29,0.28-0.3
		c0.68-0.03,0.68-0.04,0.68,0.65C12.76,8.53,12.75,9.1,12.75,9.69 M11.99,9.54c0.59,0.1,0.6,0.09,0.6-0.44c0-0.19,0-0.37,0-0.56
		c0-0.36,0-0.71,0-1.06h-0.6V9.54z"/>
	<path class="st0" d="M20.45,7.36c0.06-0.02,0.08-0.04,0.1-0.04c0.82-0.09,0.82-0.09,0.82,0.72v1.64h-0.92V7.36z M21.19,9.58V7.48
		h-0.61c0,0.65-0.01,1.26,0.01,1.88c0,0.07,0.12,0.18,0.2,0.2C20.91,9.6,21.05,9.58,21.19,9.58"/>
	<path class="st0" d="M10.74,9.7H9.96c0-0.76-0.01-1.5,0.02-2.24c0-0.06,0.31-0.12,0.49-0.15c0.14-0.02,0.28,0,0.27,0.21
		C10.73,8.24,10.74,8.95,10.74,9.7 M10.59,7.45c-0.19,0.01-0.32,0.02-0.48,0.03c0,0.66-0.01,1.28,0.01,1.89
		c0,0.07,0.15,0.18,0.24,0.2c0.07,0.01,0.21-0.11,0.22-0.18C10.6,8.76,10.59,8.13,10.59,7.45"/>
	<path class="st0" d="M23.21,9.7h-0.74V7.34h0.74V9.7z M22.61,7.48c0,0.65-0.01,1.28,0.01,1.91c0,0.07,0.16,0.18,0.25,0.18
		c0.07,0.01,0.21-0.12,0.21-0.19c0.02-0.63,0.01-1.26,0.01-1.9H22.61z"/>
	<path class="st0" d="M16.5,25.09c0.49-0.23,0.52-0.42,0.24-1.12c0.24,0.08,0.38,0.3,0.35,0.61c-0.03,0.27-0.09,0.55-0.4,0.64
		c-0.1,0.03-0.31-0.02-0.34-0.09c-0.11-0.24-0.21-0.51-0.22-0.77c-0.01-0.14,0.16-0.3,0.26-0.45c0.02,0.02,0.05,0.03,0.08,0.05
		c-0.07,0.2-0.21,0.4-0.2,0.59C16.26,24.73,16.42,24.91,16.5,25.09"/>
	<path class="st0" d="M7.57,20.43c0,1.03,0,2.02-0.01,3.01c0,0.07-0.12,0.2-0.19,0.2c-0.71,0.02-1.43,0.01-2.17,0.01v-3.22H7.57z
		 M7.41,20.59H5.35v2.9h2.05V20.59z"/>
	<path class="st0" d="M28.03,22.06c0,0.45,0,0.89,0,1.33c0,0.2-0.08,0.27-0.27,0.26c-0.62-0.01-1.24,0-1.86,0.01
		c-0.19,0-0.28-0.05-0.28-0.25c0.01-0.92,0-1.85,0.01-2.77c0-0.08,0.16-0.22,0.25-0.23c0.63-0.02,1.26,0,1.9,0
		c0.21,0,0.26,0.1,0.25,0.28C28.03,21.14,28.03,21.6,28.03,22.06L28.03,22.06z M25.78,23.48h2.03c0.02-0.04,0.05-0.06,0.05-0.08
		c0.01-0.89,0.02-1.77,0.01-2.66c0-0.06-0.14-0.18-0.23-0.18c-0.55-0.02-1.1-0.02-1.65,0c-0.07,0-0.2,0.13-0.2,0.2
		C25.77,21.65,25.78,22.55,25.78,23.48"/>
	<path class="st0" d="M17.27,3.05c0.01,0.37-0.28,0.67-0.65,0.68c-0.38,0.01-0.68-0.26-0.7-0.63c-0.02-0.37,0.29-0.7,0.67-0.71
		C16.95,2.39,17.26,2.69,17.27,3.05 M17.11,3.07c0.01-0.28-0.26-0.54-0.53-0.53c-0.23,0.01-0.52,0.3-0.51,0.53
		c0.01,0.26,0.27,0.51,0.53,0.51C16.87,3.58,17.1,3.35,17.11,3.07"/>
	<path class="st0" d="M42.67,23.48l0.53,1.73c0.27,0.12,0.58,0.22,0.94,0.3c0.36,0.08,0.67,0.11,0.93,0.11
		c0.35,0,0.67-0.06,0.97-0.18c0.29-0.12,0.53-0.28,0.72-0.46c0.18-0.19,0.33-0.4,0.42-0.64c0.1-0.24,0.15-0.47,0.15-0.69
		c0-0.46-0.16-0.86-0.47-1.17c-0.31-0.32-0.84-0.73-1.58-1.22c-0.74-0.5-1.27-0.91-1.6-1.24c-0.29-0.29-0.5-0.59-0.64-0.89
		c-0.14-0.3-0.21-0.63-0.21-0.99c0-0.4,0.11-0.8,0.33-1.2c0.22-0.4,0.56-0.73,1.02-0.99c0.46-0.26,1.02-0.4,1.69-0.4
		c0.3,0,0.63,0.01,0.97,0.05c0.34,0.03,0.58,0.05,0.71,0.05c0.11,0,0.22-0.01,0.32-0.01c0.1,0,0.18-0.01,0.24-0.01
		c0.06-0.01,0.12-0.02,0.19-0.02l0.04,2.4h-0.09l-0.44-1.62c-0.65-0.29-1.22-0.43-1.7-0.43c-0.4,0-0.76,0.08-1.09,0.23
		c-0.32,0.15-0.57,0.36-0.75,0.63c-0.18,0.26-0.27,0.56-0.27,0.9c0,0.35,0.12,0.66,0.36,0.95c0.24,0.29,0.56,0.57,0.98,0.85
		c0.41,0.28,0.86,0.57,1.33,0.88c0.47,0.31,0.85,0.61,1.14,0.89c0.56,0.56,0.84,1.2,0.84,1.93c0,0.41-0.11,0.84-0.32,1.27
		c-0.22,0.44-0.58,0.81-1.09,1.11c-0.51,0.3-1.17,0.46-1.98,0.46c-0.29,0-0.63-0.02-1.04-0.05c-0.41-0.03-0.71-0.05-0.9-0.05
		c-0.09,0-0.16,0-0.21,0.01c-0.05,0-0.13,0.01-0.23,0.02c-0.1,0.01-0.16,0.01-0.18,0.01l-0.11-2.47H42.67z M46.11,15.67h-0.22
		c-0.51,0-0.99,0.1-1.43,0.31c-0.43,0.21-0.78,0.5-1.03,0.88c-0.25,0.38-0.38,0.81-0.38,1.28c0,0.59,0.26,1.15,0.78,1.67
		c0.23,0.22,0.44,0.4,0.64,0.55c0.2,0.15,0.5,0.36,0.9,0.64c0.4,0.27,0.72,0.5,0.97,0.68c0.24,0.18,0.44,0.34,0.59,0.5
		c0.42,0.42,0.63,0.89,0.63,1.41c0,0.35-0.1,0.7-0.29,1.03c-0.19,0.33-0.48,0.6-0.84,0.81c-0.37,0.21-0.8,0.31-1.3,0.32v0.08
		c0.57,0.02,1.08-0.08,1.53-0.3c0.45-0.22,0.79-0.51,1.03-0.87c0.24-0.36,0.35-0.73,0.35-1.12c0-0.33-0.05-0.64-0.16-0.91
		c-0.11-0.27-0.3-0.55-0.59-0.84c-0.16-0.16-0.46-0.39-0.88-0.68s-0.86-0.59-1.29-0.88c-0.44-0.3-0.75-0.54-0.95-0.73
		c-0.49-0.49-0.74-1.02-0.74-1.61c0-0.51,0.22-1,0.67-1.44c0.45-0.45,1.12-0.68,2.02-0.7V15.67z"/>
	<path class="st0" d="M49.13,15.72v-0.07h7.48l0.18,2.18h-0.11l-0.51-1.71c-0.4-0.03-0.85-0.04-1.34-0.04
		c-0.9,0-1.63,0.06-2.18,0.19c-0.09,0.76-0.14,1.62-0.14,2.6c0,0.61,0.02,1.1,0.06,1.48c0.74,0.04,1.21,0.06,1.41,0.06
		c0.53,0,1.07-0.03,1.64-0.09l0.32-1.19h0.12v2.99h-0.12l-0.33-1.26c-0.41-0.05-0.86-0.07-1.35-0.07c-0.62,0-1.18,0.03-1.68,0.09
		c-0.06,0.54-0.08,1.07-0.06,1.59c0.01,0.66,0.02,1.21,0.03,1.65c0.01,0.43,0.04,0.81,0.08,1.12c0.57,0.17,1.32,0.26,2.25,0.26
		c0.53,0,0.98-0.02,1.35-0.06l0.56-1.69h0.1l-0.15,2.2h-7.56v-0.07l1.68-0.25c0.04-0.19,0.07-0.48,0.1-0.88
		c0.03-0.39,0.06-0.83,0.08-1.32c0.02-0.49,0.04-0.9,0.05-1.23c0.01-0.33,0.01-0.62,0.01-0.87v-1.77c0-0.22-0.01-0.54-0.02-0.96
		c-0.01-0.41-0.04-0.84-0.06-1.29c-0.03-0.45-0.07-0.89-0.12-1.33L49.13,15.72z M51.26,25.66h0.48v-9.73h-0.48V25.66z"/>
	<path class="st0" d="M57.4,15.73v-0.07h3.55c0.23,0.32,0.54,0.7,0.91,1.15c0.37,0.45,0.7,0.84,0.99,1.16l3.15,3.5
		c0.42,0.45,0.74,0.81,0.97,1.05c0.23,0.25,0.53,0.55,0.9,0.91c0.03-0.32,0.05-0.63,0.06-0.91c0.01-0.28,0.01-0.54,0.01-0.79v-3.03
		c0-1.09-0.05-1.99-0.16-2.7l-1.71-0.26v-0.07h4.18v0.07L68.55,16c-0.09,0.66-0.13,1.49-0.13,2.51v7.7h-0.07
		c-0.72-0.91-1.43-1.76-2.13-2.55l-4.3-4.79c-0.64-0.68-1.18-1.22-1.63-1.62c-0.07,0.64-0.1,1.23-0.1,1.78v4.44
		c0,0.59,0.05,1.3,0.14,2.13l1.78,0.26v0.07h-4.27v-0.07l1.73-0.25c0.06-0.34,0.1-0.82,0.12-1.44c0.02-0.62,0.04-1.18,0.04-1.66
		v-3.44c0-0.41-0.01-0.81-0.02-1.21c-0.01-0.4-0.04-0.8-0.08-1.19l-0.93-0.69L57.4,15.73z M59.51,15.91l8.48,9.43v-0.66l-7.89-8.77
		H59.51z"/>
	<path class="st0" d="M76.39,15.55l3.04,7.25c0.39,0.95,0.85,1.88,1.38,2.82l1.17,0.25v0.07h-4.96v-0.07l1.91-0.25
		c-0.07-0.46-0.2-0.97-0.39-1.51c-0.19-0.54-0.4-1.02-0.63-1.42h-4.4c-0.19,0.47-0.34,0.86-0.45,1.17c-0.12,0.3-0.23,0.62-0.33,0.95
		c-0.11,0.33-0.17,0.6-0.21,0.82l1.84,0.25v0.07h-3.93v-0.07l1.29-0.25c0.31-0.54,0.6-1.14,0.86-1.8l3.25-8.27H76.39z M75.65,17.52
		c-0.13,0.25-0.29,0.61-0.5,1.09c-0.21,0.48-0.4,0.92-0.57,1.34c-0.17,0.42-0.34,0.86-0.53,1.33c-0.18,0.47-0.3,0.78-0.37,0.93
		c0.28,0.04,0.6,0.06,0.97,0.08c0.37,0.01,0.72,0.02,1.05,0.02c0.82,0,1.49-0.03,2.02-0.1c-0.18-0.53-0.48-1.28-0.91-2.26
		C76.39,18.98,76,18.17,75.65,17.52 M75.76,16.93l3.64,8.73h0.47l-3.88-9.32L75.76,16.93z"/>
	<path class="st0" d="M82.74,15.65h6.1c0.37,0,0.71-0.01,1.02-0.03c0.31-0.02,0.71-0.05,1.19-0.1l0.16,2.27h-0.09l-0.52-1.66
		c-0.43-0.08-0.87-0.11-1.33-0.11c-0.4,0-0.76,0.02-1.09,0.06c-0.33,0.04-0.68,0.11-1.06,0.21c-0.04,0.43-0.07,0.86-0.08,1.26
		c-0.02,0.41-0.03,0.78-0.04,1.12s-0.01,0.58-0.01,0.7v2.33c0,0.61,0.02,1.3,0.06,2.06c0.04,0.76,0.09,1.37,0.15,1.82l1.73,0.26
		v0.07h-5.3v-0.07l1.71-0.26c0.14-1.04,0.22-2.29,0.22-3.76v-2.54c0-0.52-0.01-1.04-0.03-1.55c-0.02-0.51-0.06-0.99-0.12-1.45
		c-0.27-0.08-0.59-0.14-0.95-0.18c-0.36-0.04-0.7-0.07-1.02-0.08c-0.51,0-1.01,0.04-1.51,0.13l-0.5,1.67h-0.1l0.15-2.3
		c0.14,0.01,0.34,0.03,0.61,0.07C82.35,15.64,82.57,15.65,82.74,15.65 M85.78,25.66h0.47v-9.75h-0.47V25.66z"/>
</g>
</svg>
